  0
SECTION
  2
HEADER
  9
$ACADVER
  1
AC1024
  9
$ACADMAINTVER
 70
6
  9
$DWGCODEPAGE
  3
ANSI_1252
  9
$LASTSAVEDBY
  1
ezdxf
  9
$INSBASE
 10
0.0
 20
0.0
 30
0.0
  9
$EXTMIN
 10
1e+20
 20
1e+20
 30
1e+20
  9
$EXTMAX
 10
-1e+20
 20
-1e+20
 30
-1e+20
  9
$LIMMIN
 10
0.0
 20
0.0
  9
$LIMMAX
 10
420.0
 20
297.0
  9
$ORTHOMODE
 70
0
  9
$REGENMODE
 70
1
  9
$FILLMODE
 70
1
  9
$QTEXTMODE
 70
0
  9
$MIRRTEXT
 70
1
  9
$LTSCALE
 40
1.0
  9
$ATTMODE
 70
1
  9
$TEXTSIZE
 40
2.5
  9
$TRACEWID
 40
1.0
  9
$TEXTSTYLE
  7
Standard
  9
$CLAYER
  8
0
  9
$CELTYPE
  6
ByLayer
  9
$CECOLOR
 62
256
  9
$CELTSCALE
 40
1.0
  9
$DISPSILH
 70
0
  9
$DIMSCALE
 40
1.0
  9
$DIMASZ
 40
2.5
  9
$DIMEXO
 40
0.625
  9
$DIMDLI
 40
3.75
  9
$DIMRND
 40
0.0
  9
$DIMDLE
 40
0.0
  9
$DIMEXE
 40
1.25
  9
$DIMTP
 40
0.0
  9
$DIMTM
 40
0.0
  9
$DIMTXT
 40
2.5
  9
$DIMCEN
 40
2.5
  9
$DIMTSZ
 40
0.0
  9
$DIMTOL
 70
0
  9
$DIMLIM
 70
0
  9
$DIMTIH
 70
0
  9
$DIMTOH
 70
0
  9
$DIMSE1
 70
0
  9
$DIMSE2
 70
0
  9
$DIMTAD
 70
1
  9
$DIMZIN
 70
8
  9
$DIMBLK
  1

  9
$DIMASO
 70
1
  9
$DIMSHO
 70
1
  9
$DIMPOST
  1

  9
$DIMAPOST
  1

  9
$DIMALT
 70
0
  9
$DIMALTD
 70
3
  9
$DIMALTF
 40
0.03937007874
  9
$DIMLFAC
 40
1.0
  9
$DIMTOFL
 70
1
  9
$DIMTVP
 40
0.0
  9
$DIMTIX
 70
0
  9
$DIMSOXD
 70
0
  9
$DIMSAH
 70
0
  9
$DIMBLK1
  1

  9
$DIMBLK2
  1

  9
$DIMSTYLE
  2
ISO-25
  9
$DIMCLRD
 70
0
  9
$DIMCLRE
 70
0
  9
$DIMCLRT
 70
0
  9
$DIMTFAC
 40
1.0
  9
$DIMGAP
 40
0.625
  9
$DIMJUST
 70
0
  9
$DIMSD1
 70
0
  9
$DIMSD2
 70
0
  9
$DIMTOLJ
 70
0
  9
$DIMTZIN
 70
8
  9
$DIMALTZ
 70
0
  9
$DIMALTTZ
 70
0
  9
$DIMUPT
 70
0
  9
$DIMDEC
 70
2
  9
$DIMTDEC
 70
2
  9
$DIMALTU
 70
2
  9
$DIMALTTD
 70
3
  9
$DIMTXSTY
  7
Standard
  9
$DIMAUNIT
 70
0
  9
$DIMADEC
 70
0
  9
$DIMALTRND
 40
0.0
  9
$DIMAZIN
 70
0
  9
$DIMDSEP
 70
44
  9
$DIMATFIT
 70
3
  9
$DIMFRAC
 70
0
  9
$DIMLDRBLK
  1

  9
$DIMLUNIT
 70
2
  9
$DIMLWD
 70
-2
  9
$DIMLWE
 70
-2
  9
$DIMTMOVE
 70
0
  9
$DIMFXL
 40
1.0
  9
$DIMFXLON
 70
0
  9
$DIMJOGANG
 40
0.785398163397
  9
$DIMTFILL
 70
0
  9
$DIMTFILLCLR
 70
0
  9
$DIMARCSYM
 70
0
  9
$DIMLTYPE
  6

  9
$DIMLTEX1
  6

  9
$DIMLTEX2
  6

  9
$DIMTXTDIRECTION
 70
0
  9
$LUNITS
 70
2
  9
$LUPREC
 70
4
  9
$SKETCHINC
 40
1.0
  9
$FILLETRAD
 40
10.0
  9
$AUNITS
 70
0
  9
$AUPREC
 70
2
  9
$MENU
  1
.
  9
$ELEVATION
 40
0.0
  9
$PELEVATION
 40
0.0
  9
$THICKNESS
 40
0.0
  9
$LIMCHECK
 70
0
  9
$CHAMFERA
 40
0.0
  9
$CHAMFERB
 40
0.0
  9
$CHAMFERC
 40
0.0
  9
$CHAMFERD
 40
0.0
  9
$SKPOLY
 70
0
  9
$TDCREATE
 40
2461201.3309375
  9
$TDUCREATE
 40
2458532.153996898
  9
$TDUPDATE
 40
2461201.3309375
  9
$TDUUPDATE
 40
2458532.1544311
  9
$TDINDWG
 40
0.0
  9
$TDUSRTIMER
 40
0.0
  9
$USRTIMER
 70
1
  9
$ANGBASE
 50
0.0
  9
$ANGDIR
 70
0
  9
$PDMODE
 70
0
  9
$PDSIZE
 40
0.0
  9
$PLINEWID
 40
0.0
  9
$SPLFRAME
 70
0
  9
$SPLINETYPE
 70
6
  9
$SPLINESEGS
 70
8
  9
$HANDSEED
  5
13E
  9
$SURFTAB1
 70
6
  9
$SURFTAB2
 70
6
  9
$SURFTYPE
 70
6
  9
$SURFU
 70
6
  9
$SURFV
 70
6
  9
$UCSBASE
  2

  9
$UCSNAME
  2

  9
$UCSORG
 10
0.0
 20
0.0
 30
0.0
  9
$UCSXDIR
 10
1.0
 20
0.0
 30
0.0
  9
$UCSYDIR
 10
0.0
 20
1.0
 30
0.0
  9
$UCSORTHOREF
  2

  9
$UCSORTHOVIEW
 70
0
  9
$UCSORGTOP
 10
0.0
 20
0.0
 30
0.0
  9
$UCSORGBOTTOM
 10
0.0
 20
0.0
 30
0.0
  9
$UCSORGLEFT
 10
0.0
 20
0.0
 30
0.0
  9
$UCSORGRIGHT
 10
0.0
 20
0.0
 30
0.0
  9
$UCSORGFRONT
 10
0.0
 20
0.0
 30
0.0
  9
$UCSORGBACK
 10
0.0
 20
0.0
 30
0.0
  9
$PUCSBASE
  2

  9
$PUCSNAME
  2

  9
$PUCSORG
 10
0.0
 20
0.0
 30
0.0
  9
$PUCSXDIR
 10
1.0
 20
0.0
 30
0.0
  9
$PUCSYDIR
 10
0.0
 20
1.0
 30
0.0
  9
$PUCSORTHOREF
  2

  9
$PUCSORTHOVIEW
 70
0
  9
$PUCSORGTOP
 10
0.0
 20
0.0
 30
0.0
  9
$PUCSORGBOTTOM
 10
0.0
 20
0.0
 30
0.0
  9
$PUCSORGLEFT
 10
0.0
 20
0.0
 30
0.0
  9
$PUCSORGRIGHT
 10
0.0
 20
0.0
 30
0.0
  9
$PUCSORGFRONT
 10
0.0
 20
0.0
 30
0.0
  9
$PUCSORGBACK
 10
0.0
 20
0.0
 30
0.0
  9
$USERI1
 70
0
  9
$USERI2
 70
0
  9
$USERI3
 70
0
  9
$USERI4
 70
0
  9
$USERI5
 70
0
  9
$USERR1
 40
0.0
  9
$USERR2
 40
0.0
  9
$USERR3
 40
0.0
  9
$USERR4
 40
0.0
  9
$USERR5
 40
0.0
  9
$WORLDVIEW
 70
1
  9
$SHADEDGE
 70
3
  9
$SHADEDIF
 70
70
  9
$TILEMODE
 70
1
  9
$MAXACTVP
 70
64
  9
$PINSBASE
 10
0.0
 20
0.0
 30
0.0
  9
$PLIMCHECK
 70
0
  9
$PEXTMIN
 10
1e+20
 20
1e+20
 30
1e+20
  9
$PEXTMAX
 10
-1e+20
 20
-1e+20
 30
-1e+20
  9
$PLIMMIN
 10
0.0
 20
0.0
  9
$PLIMMAX
 10
420.0
 20
297.0
  9
$UNITMODE
 70
0
  9
$VISRETAIN
 70
1
  9
$PLINEGEN
 70
0
  9
$PSLTSCALE
 70
1
  9
$TREEDEPTH
 70
3020
  9
$CMLSTYLE
  2
Standard
  9
$CMLJUST
 70
0
  9
$CMLSCALE
 40
20.0
  9
$PROXYGRAPHICS
 70
1
  9
$MEASUREMENT
 70
1
  9
$CELWEIGHT
370
-1
  9
$ENDCAPS
280
0
  9
$JOINSTYLE
280
0
  9
$LWDISPLAY
290
0
  9
$INSUNITS
 70
6
  9
$HYPERLINKBASE
  1

  9
$STYLESHEET
  1

  9
$XEDIT
290
1
  9
$CEPSNTYPE
380
0
  9
$PSTYLEMODE
290
1
  9
$FINGERPRINTGUID
  2
{733DFB35-94AF-4650-9032-CC157D3DB0D9}
  9
$VERSIONGUID
  2
{512768EB-2001-4836-AF75-345DDBAD546D}
  9
$EXTNAMES
290
1
  9
$PSVPSCALE
 40
0.0
  9
$OLESTARTUP
290
0
  9
$SORTENTS
280
127
  9
$INDEXCTL
280
0
  9
$HIDETEXT
280
1
  9
$XCLIPFRAME
280
1
  9
$HALOGAP
280
0
  9
$OBSCOLOR
 70
257
  9
$OBSLTYPE
280
0
  9
$INTERSECTIONDISPLAY
280
0
  9
$INTERSECTIONCOLOR
 70
257
  9
$DIMASSOC
280
2
  9
$PROJECTNAME
  1

  9
$CAMERADISPLAY
290
0
  9
$LENSLENGTH
 40
50.0
  9
$CAMERAHEIGHT
 40
0.0
  9
$STEPSPERSEC
 40
24.0
  9
$STEPSIZE
 40
100.0
  9
$3DDWFPREC
 40
2.0
  9
$PSOLWIDTH
 40
0.005
  9
$PSOLHEIGHT
 40
0.08
  9
$LOFTANG1
 40
1.570796326795
  9
$LOFTANG2
 40
1.570796326795
  9
$LOFTMAG1
 40
0.0
  9
$LOFTMAG2
 40
0.0
  9
$LOFTPARAM
 70
7
  9
$LOFTNORMALS
280
1
  9
$LATITUDE
 40
37.795
  9
$LONGITUDE
 40
-122.394
  9
$NORTHDIRECTION
 40
0.0
  9
$TIMEZONE
 70
-8000
  9
$LIGHTGLYPHDISPLAY
280
1
  9
$TILEMODELIGHTSYNCH
280
1
  9
$CMATERIAL
347
20
  9
$SOLIDHIST
280
0
  9
$SHOWHIST
280
1
  9
$DWFFRAME
280
2
  9
$DGNFRAME
280
2
  9
$REALWORLDSCALE
290
1
  9
$INTERFERECOLOR
 62
256
  9
$CSHADOW
280
0
  9
$SHADOWPLANELOCATION
 40
0.0
  0
ENDSEC
  0
SECTION
  2
CLASSES
  0
CLASS
  1
ACDBDICTIONARYWDFLT
  2
AcDbDictionaryWithDefault
  3
ObjectDBX Classes
 90
0
 91
0
280
0
281
0
  0
CLASS
  1
SUN
  2
AcDbSun
  3
SCENEOE
 90
1153
 91
0
280
0
281
0
  0
CLASS
  1
VISUALSTYLE
  2
AcDbVisualStyle
  3
ObjectDBX Classes
 90
4095
 91
0
280
0
281
0
  0
CLASS
  1
MATERIAL
  2
AcDbMaterial
  3
ObjectDBX Classes
 90
1153
 91
0
280
0
281
0
  0
CLASS
  1
SCALE
  2
AcDbScale
  3
ObjectDBX Classes
 90
1153
 91
0
280
0
281
0
  0
CLASS
  1
TABLESTYLE
  2
AcDbTableStyle
  3
ObjectDBX Classes
 90
4095
 91
0
280
0
281
0
  0
CLASS
  1
MLEADERSTYLE
  2
AcDbMLeaderStyle
  3
ACDB_MLEADERSTYLE_CLASS
 90
4095
 91
0
280
0
281
0
  0
CLASS
  1
DICTIONARYVAR
  2
AcDbDictionaryVar
  3
ObjectDBX Classes
 90
0
 91
0
280
0
281
0
  0
CLASS
  1
CELLSTYLEMAP
  2
AcDbCellStyleMap
  3
ObjectDBX Classes
 90
1152
 91
0
280
0
281
0
  0
CLASS
  1
MENTALRAYRENDERSETTINGS
  2
AcDbMentalRayRenderSettings
  3
SCENEOE
 90
1024
 91
0
280
0
281
0
  0
CLASS
  1
ACDBDETAILVIEWSTYLE
  2
AcDbDetailViewStyle
  3
ObjectDBX Classes
 90
1025
 91
0
280
0
281
0
  0
CLASS
  1
ACDBSECTIONVIEWSTYLE
  2
AcDbSectionViewStyle
  3
ObjectDBX Classes
 90
1025
 91
0
280
0
281
0
  0
CLASS
  1
RASTERVARIABLES
  2
AcDbRasterVariables
  3
ISM
 90
0
 91
0
280
0
281
0
  0
CLASS
  1
ACDBPLACEHOLDER
  2
AcDbPlaceHolder
  3
ObjectDBX Classes
 90
0
 91
0
280
0
281
0
  0
CLASS
  1
LAYOUT
  2
AcDbLayout
  3
ObjectDBX Classes
 90
0
 91
0
280
0
281
0
  0
ENDSEC
  0
SECTION
  2
TABLES
  0
TABLE
  2
VPORT
  5
8
330
0
100
AcDbSymbolTable
 70
1
  0
VPORT
  5
23
330
8
100
AcDbSymbolTableRecord
100
AcDbViewportTableRecord
  2
*Active
 70
0
 10
0.0
 20
0.0
 11
1.0
 21
1.0
 12
0.0
 22
0.0
 13
0.0
 23
0.0
 14
0.5
 24
0.5
 15
0.5
 25
0.5
 16
0.0
 26
0.0
 36
1.0
 17
0.0
 27
0.0
 37
0.0
 40
1000.0
 41
1.34
 42
50.0
 43
0.0
 44
0.0
 50
0.0
 51
0.0
 71
0
 72
1000
 73
1
 74
3
 75
0
 76
0
 77
0
 78
0
281
0
 65
0
146
0.0
  0
ENDTAB
  0
TABLE
  2
LTYPE
  5
2
330
0
100
AcDbSymbolTable
 70
3
  0
LTYPE
  5
24
330
2
100
AcDbSymbolTableRecord
100
AcDbLinetypeTableRecord
  2
ByBlock
 70
0
  3

 72
65
 73
0
 40
0.0
  0
LTYPE
  5
25
330
2
100
AcDbSymbolTableRecord
100
AcDbLinetypeTableRecord
  2
ByLayer
 70
0
  3

 72
65
 73
0
 40
0.0
  0
LTYPE
  5
26
330
2
100
AcDbSymbolTableRecord
100
AcDbLinetypeTableRecord
  2
Continuous
 70
0
  3

 72
65
 73
0
 40
0.0
  0
ENDTAB
  0
TABLE
  2
LAYER
  5
1
330
0
100
AcDbSymbolTable
 70
5
  0
LAYER
  5
27
330
1
100
AcDbSymbolTableRecord
100
AcDbLayerTableRecord
  2
0
 70
0
 62
7
  6
Continuous
370
-3
390
13
347
21
  0
LAYER
  5
28
330
1
100
AcDbSymbolTableRecord
100
AcDbLayerTableRecord
  2
Defpoints
 70
0
 62
7
  6
Continuous
290
0
370
-3
390
13
347
21
  0
LAYER
  5
2F
330
1
100
AcDbSymbolTableRecord
100
AcDbLayerTableRecord
  2
EXCESS_ERROR
 70
0
 62
1
  6
Continuous
370
-3
390
13
347
21
  0
LAYER
  5
30
330
1
100
AcDbSymbolTableRecord
100
AcDbLayerTableRecord
  2
MISSING_ERROR
 70
0
 62
3
  6
Continuous
370
-3
390
13
347
21
  0
LAYER
  5
31
330
1
100
AcDbSymbolTableRecord
100
AcDbLayerTableRecord
  2
DESCRIPTION_ERROR
 70
0
 62
5
  6
Continuous
370
-3
390
13
347
21
  0
ENDTAB
  0
TABLE
  2
STYLE
  5
5
330
0
100
AcDbSymbolTable
 70
1
  0
STYLE
  5
29
330
5
100
AcDbSymbolTableRecord
100
AcDbTextStyleTableRecord
  2
Standard
 70
0
 40
0.0
 41
1.0
 50
0.0
 71
0
 42
2.5
  3
txt
  4

  0
ENDTAB
  0
TABLE
  2
VIEW
  5
7
330
0
100
AcDbSymbolTable
 70
0
  0
ENDTAB
  0
TABLE
  2
UCS
  5
6
330
0
100
AcDbSymbolTable
 70
0
  0
ENDTAB
  0
TABLE
  2
APPID
  5
3
330
0
100
AcDbSymbolTable
 70
3
  0
APPID
  5
2A
330
3
100
AcDbSymbolTableRecord
100
AcDbRegAppTableRecord
  2
ACAD
 70
0
  0
APPID
  5
13B
330
3
100
AcDbSymbolTableRecord
100
AcDbRegAppTableRecord
  2
HATCHBACKGROUNDCOLOR
 70
0
  0
APPID
  5
13C
330
3
100
AcDbSymbolTableRecord
100
AcDbRegAppTableRecord
  2
EZDXF
 70
0
  0
ENDTAB
  0
TABLE
  2
DIMSTYLE
  5
4
330
0
100
AcDbSymbolTable
 70
1
100
AcDbDimStyleTable
  0
DIMSTYLE
105
2B
330
4
100
AcDbSymbolTableRecord
100
AcDbDimStyleTableRecord
  2
Standard
 70
0
 40
1.0
 41
2.5
 42
0.625
 43
3.75
 44
1.25
 45
0.0
 46
0.0
 47
0.0
 48
0.0
 49
2.5
140
2.5
141
2.5
142
0.0
143
0.03937007874
144
1.0
145
0.0
146
1.0
147
0.625
148
0.0
 69
0
 70
0
 71
0
 72
0
 73
0
 74
0
 75
0
 76
0
 77
1
 78
8
 79
3
170
0
171
3
172
1
173
0
174
0
175
0
176
0
177
0
178
0
179
2
271
2
272
2
273
2
274
3
275
0
276
0
277
2
278
44
279
0
280
0
281
0
282
0
283
0
284
8
285
0
286
0
288
0
289
3
290
0
371
-2
372
-2
  0
ENDTAB
  0
TABLE
  2
BLOCK_RECORD
  5
9
330
0
100
AcDbSymbolTable
 70
2
  0
BLOCK_RECORD
  5
17
330
9
100
AcDbSymbolTableRecord
100
AcDbBlockTableRecord
  2
*Model_Space
340
1A
 70
0
280
1
281
0
  0
BLOCK_RECORD
  5
1B
330
9
100
AcDbSymbolTableRecord
100
AcDbBlockTableRecord
  2
*Paper_Space
340
1E
 70
0
280
1
281
0
  0
ENDTAB
  0
ENDSEC
  0
SECTION
  2
BLOCKS
  0
BLOCK
  5
18
330
17
100
AcDbEntity
  8
0
100
AcDbBlockBegin
  2
*Model_Space
 70
0
 10
0.0
 20
0.0
 30
0.0
  3
*Model_Space
  1

  0
ENDBLK
  5
19
330
17
100
AcDbEntity
  8
0
100
AcDbBlockEnd
  0
BLOCK
  5
1C
330
1B
100
AcDbEntity
  8
0
100
AcDbBlockBegin
  2
*Paper_Space
 70
0
 10
0.0
 20
0.0
 30
0.0
  3
*Paper_Space
  1

  0
ENDBLK
  5
1D
330
1B
100
AcDbEntity
  8
0
100
AcDbBlockEnd
  0
ENDSEC
  0
SECTION
  2
ENTITIES
  0
LWPOLYLINE
  5
32
330
17
100
AcDbEntity
  8
DESCRIPTION_ERROR
100
AcDbPolyline
 90
33
 70
1
 10
214069.8
 20
466921.92
 10
214070.03999999998
 20
466922.16
 10
214076.63999999998
 20
466922.63999999996
 10
214076.95344875343
 20
466922.3265512466
 10
214077.0
 20
466921.76191746653
 10
214077.0
 20
466918.43999999994
 10
214077.28565081581
 20
466918.29717459204
 10
214077.3126
 20
466917.9703
 10
214078.37952005403
 20
466918.1404799459
 10
214078.3990189769
 20
466918.12098102306
 10
214078.44
 20
466917.6181409306
 10
214078.44
 20
466916.16
 10
214078.60626328472
 20
466915.5780785035
 10
214078.9689
 20
466911.1285
 10
214078.89681066808
 20
466911.12
 10
214077.47999999998
 20
466911.12
 10
214076.75999999998
 20
466910.75999999995
 10
214073.28
 20
466910.99999999994
 10
214072.91999999998
 20
466910.63999999996
 10
214072.19999999998
 20
466910.75999999995
 10
214071.53738243371
 20
466912.9687252209
 10
214071.4167306012
 20
466915.3111595592
 10
214071.36
 20
466917.24
 10
214071.31713645317
 20
466917.2447626163
 10
214071.3151
 20
466917.2843000001
 10
214071.06037623095
 20
466917.27329152985
 10
214070.28
 20
466917.36
 10
214069.91999999998
 20
466917.83999999997
 10
214069.81648969336
 20
466921.3593504251
 10
214070.0691
 20
466921.3814
 10
214070.0269999999
 20
466921.9788
 10
214069.80078623796
 20
466921.8932679086
 10
214069.8
 20
466921.92
  0
LWPOLYLINE
  5
33
330
17
100
AcDbEntity
  8
DESCRIPTION_ERROR
100
AcDbPolyline
 90
21
 70
1
 10
214401.0
 20
467373.12
 10
214402.31999999998
 20
467372.99999999994
 10
214402.8
 20
467372.63999999996
 10
214403.16
 20
467369.87999999995
 10
214402.68
 20
467368.92
 10
214401.59999999998
 20
467369.39999999997
 10
214399.19999999998
 20
467369.16
 10
214399.08
 20
467367.72
 10
214397.75999999998
 20
467366.87999999995
 10
214397.52
 20
467365.8
 10
214396.56
 20
467365.43999999994
 10
214394.63999999998
 20
467365.43999999994
 10
214394.63999999998
 20
467364.36
 10
214393.68
 20
467364.12
 10
214390.44
 20
467364.24
 10
214390.22123150947
 20
467364.51346061315
 10
214390.1232
 20
467367.0855
 10
214390.0283
 20
467373.5525
 10
214400.7374566876
 20
467373.709651534
 10
214400.7470707905
 20
467373.71016815543
 10
214401.0
 20
467373.12
  0
LWPOLYLINE
  5
34
330
17
100
AcDbEntity
  8
DESCRIPTION_ERROR
100
AcDbPolyline
 90
31
 70
1
 10
214203.36
 20
468141.24
 10
214203.12
 20
468141.48
 10
214200.96
 20
468141.48
 10
214200.59999999998
 20
468141.83999999997
 10
214200.72
 20
468142.56
 10
214202.28
 20
468143.39999999997
 10
214202.16
 20
468144.12
 10
214202.52
 20
468144.72
 10
214202.52
 20
468145.31999999995
 10
214202.03999999998
 20
468146.51999999996
 10
214200.59999999998
 20
468146.51999999996
 10
214200.0
 20
468146.27999999997
 10
214199.63999999998
 20
468145.8
 10
214199.63999999998
 20
468145.31999999995
 10
214199.03999999998
 20
468144.95999999996
 10
214197.47999999998
 20
468145.07999999996
 10
214197.0
 20
468145.56
 10
214196.87999999998
 20
468146.27999999997
 10
214196.28
 20
468147.12
 10
214195.91999999998
 20
468148.31999999995
 10
214195.71175213097
 20
468148.3894159563
 10
214195.3427142654
 20
468153.3538901837
 10
214202.97582421312
 20
468153.83999999997
 10
214203.46254733336
 20
468153.83999999997
 10
214203.72
 20
468150.24609068147
 10
214203.72
 20
468149.87999999995
 10
214203.76459356674
 20
468149.62358699116
 10
214204.3002021978
 20
468142.1467607637
 10
214204.2790219296
 20
468140.9393096791
 10
214203.29913432215
 20
468140.8748059329
 10
214203.36
 20
468141.24
  0
LWPOLYLINE
  5
35
330
17
100
AcDbEntity
  8
DESCRIPTION_ERROR
100
AcDbPolyline
 90
5
 70
1
 10
214200.36
 20
468149.16
 10
214200.59999999998
 20
468148.92
 10
214200.72
 20
468149.16
 10
214200.47999999998
 20
468149.39999999997
 10
214200.36
 20
468149.16
  0
LWPOLYLINE
  5
36
330
17
100
AcDbEntity
  8
DESCRIPTION_ERROR
100
AcDbPolyline
 90
4
 70
1
 10
214200.96
 20
468148.07999999996
 10
214200.96
 20
468148.56
 10
214200.72
 20
468148.19999999995
 10
214200.96
 20
468148.07999999996
  0
LWPOLYLINE
  5
37
330
17
100
AcDbEntity
  8
DESCRIPTION_ERROR
100
AcDbPolyline
 90
35
 70
1
 10
214634.63999999998
 20
467506.19999999995
 10
214635.0
 20
467506.19999999995
 10
214635.24
 20
467506.92
 10
214635.12
 20
467507.51999999996
 10
214635.47999999998
 20
467507.87999999995
 10
214635.24
 20
467509.43999999994
 10
214636.08
 20
467510.04
 10
214636.8
 20
467510.04
 10
214637.28
 20
467509.43999999994
 10
214638.24
 20
467509.31999999995
 10
214638.59999999998
 20
467508.72
 10
214639.08
 20
467508.48
 10
214639.31999999998
 20
467508.48
 10
214639.44
 20
467508.95999999996
 10
214640.28
 20
467509.07999999996
 10
214641.0
 20
467509.56
 10
214642.8
 20
467509.43999999994
 10
214642.56
 20
467508.95999999996
 10
214641.47999999998
 20
467508.36
 10
214641.36
 20
467507.16
 10
214641.96
 20
467506.56
 10
214641.96
 20
467505.48
 10
214642.31999999998
 20
467505.24
 10
214642.31999999998
 20
467504.51999999996
 10
214641.72
 20
467504.04
 10
214642.56
 20
467504.04
 10
214643.4
 20
467503.56
 10
214643.41735006782
 20
467503.49927476264
 10
214643.3821
 20
467502.3076
 10
214643.25011817022
 20
467498.9771344342
 10
214643.23359733578
 20
467498.81853442354
 10
214640.9243
 20
467499.0074
 10
214640.9232999999
 20
467499.4582
 10
214634.63999999998
 20
467499.7244913352
 10
214634.63999999998
 20
467506.19999999995
  0
LWPOLYLINE
  5
38
330
17
100
AcDbEntity
  8
DESCRIPTION_ERROR
100
AcDbPolyline
 90
5
 70
1
 10
214638.84
 20
467507.39999999997
 10
214639.44
 20
467507.27999999997
 10
214639.56
 20
467507.87999999995
 10
214639.08
 20
467508.24
 10
214638.84
 20
467507.39999999997
  0
LWPOLYLINE
  5
39
330
17
100
AcDbEntity
  8
DESCRIPTION_ERROR
100
AcDbPolyline
 90
5
 70
1
 10
214639.8
 20
467505.36
 10
214640.28
 20
467505.36
 10
214640.28
 20
467505.72
 10
214639.68
 20
467505.6
 10
214639.8
 20
467505.36
  0
LWPOLYLINE
  5
3A
330
17
100
AcDbEntity
  8
DESCRIPTION_ERROR
100
AcDbPolyline
 90
7
 70
1
 10
214638.0
 20
467504.04
 10
214638.72
 20
467503.68
 10
214639.91999999998
 20
467503.68
 10
214640.63999999998
 20
467504.04
 10
214640.28
 20
467504.63999999996
 10
214638.84
 20
467504.75999999995
 10
214638.0
 20
467504.04
  0
LWPOLYLINE
  5
3B
330
17
100
AcDbEntity
  8
DESCRIPTION_ERROR
100
AcDbPolyline
 90
31
 70
1
 10
215475.24
 20
467831.99999999994
 10
215475.84
 20
467832.6
 10
215477.16
 20
467831.87999999995
 10
215477.63999999998
 20
467830.92
 10
215478.84
 20
467830.31999999995
 10
215479.8
 20
467829.12
 10
215479.31999999998
 20
467827.43999999994
 10
215478.59999999998
 20
467826.6
 10
215477.75999999998
 20
467824.43999999994
 10
215477.28
 20
467823.95999999996
 10
215476.56
 20
467822.51999999996
 10
215475.59999999998
 20
467821.43999999994
 10
215475.36
 20
467821.43999999994
 10
215475.0
 20
467820.24
 10
215474.03999999998
 20
467818.68
 10
215472.84
 20
467818.43999999994
 10
215471.63999999998
 20
467818.68
 10
215470.31999999998
 20
467818.56
 10
215470.31999999998
 20
467818.31999999995
 10
215469.72
 20
467817.83999999997
 10
215468.16
 20
467818.31999999995
 10
215467.31999999998
 20
467817.36
 10
215467.08
 20
467817.36
 10
215467.10700019234
 20
467817.6030017311
 10
215469.8092999336
 20
467822.53271105204
 10
215470.19999999998
 20
467822.87999999995
 10
215471.03999999998
 20
467823.24
 10
215471.16
 20
467823.83999999997
 10
215471.00206671396
 20
467824.7086330732
 10
215474.9249278045
 20
467831.864969059
 10
215475.24
 20
467831.99999999994
  0
LWPOLYLINE
  5
3C
330
17
100
AcDbEntity
  8
DESCRIPTION_ERROR
100
AcDbPolyline
 90
10
 70
1
 10
215468.52
 20
467819.87999999995
 10
215468.63999999998
 20
467819.04
 10
215469.12
 20
467819.16
 10
215469.47999999998
 20
467818.68
 10
215470.08
 20
467818.68
 10
215470.19999999998
 20
467819.04
 10
215469.96
 20
467819.16
 10
215469.59999999998
 20
467820.24
 10
215469.0
 20
467820.36
 10
215468.52
 20
467819.87999999995
  0
LWPOLYLINE
  5
3D
330
17
100
AcDbEntity
  8
DESCRIPTION_ERROR
100
AcDbPolyline
 90
11
 70
1
 10
214695.96
 20
467652.36
 10
214692.24
 20
467652.6
 10
214691.33831000736
 20
467653.16355624533
 10
214691.864
 20
467665.8086999998
 10
214696.49096919168
 20
467665.58488354995
 10
214696.71352316605
 20
467665.3941230005
 10
214696.4668228128
 20
467658.6543482832
 10
214696.44
 20
467658.48
 10
214696.44991558156
 20
467658.192448135
 10
214696.28949363984
 20
467653.80977201526
 10
214695.96
 20
467652.36
  0
LWPOLYLINE
  5
3E
330
17
100
AcDbEntity
  8
DESCRIPTION_ERROR
100
AcDbPolyline
 90
28
 70
1
 10
213770.52
 20
467246.51999999996
 10
213770.52
 20
467246.99999999994
 10
213770.28
 20
467247.72
 10
213770.28
 20
467249.04
 10
213770.52
 20
467249.39999999997
 10
213770.87999999998
 20
467248.07999999996
 10
213771.59999999998
 20
467247.6
 10
213772.56
 20
467247.6
 10
213772.8
 20
467247.83999999997
 10
213774.36
 20
467248.19999999995
 10
213774.40234574114
 20
467248.13648138824
 10
213774.5786
 20
467236.7207999999
 10
213774.5313
 20
467239.7847
 10
213774.8268309726
 20
467239.78830972605
 10
213774.72
 20
467238.72
 10
213775.08
 20
467236.31999999995
 10
213774.96
 20
467228.87999999995
 10
213774.84608545096
 20
467228.5382563528
 10
213770.965
 20
467228.4849999999
 10
213771.0175
 20
467230.6964
 10
213771.3992999999
 20
467232.2653000001
 10
213771.4754
 20
467234.8526
 10
213771.6589
 20
467236.6212
 10
213770.49020243302
 20
467245.1718218972
 10
213770.52
 20
467245.43999999994
 10
213770.3473705647
 20
467246.21683245874
 10
213770.30593367602
 20
467246.51999999996
 10
213770.52
 20
467246.51999999996
  0
LWPOLYLINE
  5
3F
330
17
100
AcDbEntity
  8
DESCRIPTION_ERROR
100
AcDbPolyline
 90
15
 70
1
 10
213871.31999999998
 20
467765.39999999997
 10
213861.96
 20
467762.39999999997
 10
213858.72
 20
467761.07999999996
 10
213855.0
 20
467760.12
 10
213853.44
 20
467759.27999999997
 10
213851.28
 20
467758.68
 10
213851.28
 20
467753.39999999997
 10
213841.49091789217
 20
467753.39999999997
 10
213838.6135
 20
467761.6706000001
 10
213846.143
 20
467764.3627000001
 10
213853.6943
 20
467766.9441
 10
213861.2458
 20
467769.5919
 10
213869.0411
 20
467772.3715
 10
213871.27893388428
 20
467765.87226033054
 10
213871.31999999998
 20
467765.39999999997
  0
LWPOLYLINE
  5
40
330
17
100
AcDbEntity
  8
DESCRIPTION_ERROR
100
AcDbPolyline
 90
92
 70
1
 10
213862.91999999998
 20
467814.92230152787
 10
213899.9132
 20
467828.3875
 10
213901.57639882097
 20
467823.75368448027
 10
213901.68
 20
467823.36
 10
213901.7616762039
 20
467823.2374856941
 10
213902.39139059294
 20
467821.48304703523
 10
213902.4
 20
467821.43999999994
 10
213902.4887947535
 20
467821.2116706338
 10
213904.444
 20
467815.7643
 10
213904.3997
 20
467815.7645
 10
213906.4634057894
 20
467810.34637684235
 10
213906.59999999998
 20
467809.8
 10
213906.9002040142
 20
467809.1995919715
 10
213908.27912409956
 20
467805.5793284216
 10
213908.4
 20
467805.12
 10
213910.31999999998
 20
467800.19999999995
 10
213910.44
 20
467799.48
 10
213909.24
 20
467799.48
 10
213908.75999999998
 20
467798.39999999997
 10
213908.87999999998
 20
467797.8
 10
213908.63999999998
 20
467797.56
 10
213907.91999999998
 20
467797.68
 10
213908.4
 20
467798.27999999997
 10
213908.4
 20
467798.63999999996
 10
213908.28
 20
467798.87999999995
 10
213907.68
 20
467798.87999999995
 10
213907.31999999998
 20
467798.39999999997
 10
213907.31999999998
 20
467797.92
 10
213906.96
 20
467797.43999999994
 10
213906.47999999998
 20
467795.87999999995
 10
213905.52
 20
467795.75999999995
 10
213904.56
 20
467795.27999999997
 10
213903.12
 20
467795.39999999997
 10
213902.28
 20
467794.8
 10
213902.28
 20
467794.43999999994
 10
213901.19999999998
 20
467794.31999999995
 10
213901.19999999998
 20
467794.92
 10
213901.68
 20
467795.39999999997
 10
213901.8
 20
467796.12
 10
213902.16
 20
467796.36
 10
213902.03999999998
 20
467797.31999999995
 10
213902.4
 20
467797.68
 10
213903.59999999998
 20
467797.8
 10
213904.08
 20
467798.27999999997
 10
213904.44
 20
467798.27999999997
 10
213904.56
 20
467797.8
 10
213905.03999999998
 20
467797.8
 10
213905.52
 20
467798.27999999997
 10
213905.87999999998
 20
467798.27999999997
 10
213905.87999999998
 20
467798.04
 10
213906.36
 20
467797.8
 10
213906.72
 20
467798.39999999997
 10
213906.47999999998
 20
467798.87999999995
 10
213905.63999999998
 20
467799.12
 10
213905.75999999998
 20
467799.48
 10
213900.96
 20
467799.6
 10
213900.84
 20
467800.92
 10
213900.36
 20
467801.39999999997
 10
213900.47999999998
 20
467802.36
 10
213899.28
 20
467803.68
 10
213898.68
 20
467805.12
 10
213898.19999999998
 20
467805.48
 10
213897.96
 20
467806.43999999994
 10
213897.36
 20
467806.92
 10
213897.36
 20
467813.04
 10
213894.84
 20
467811.95999999996
 10
213893.52
 20
467811.72
 10
213890.4
 20
467810.16
 10
213888.36
 20
467809.68
 10
213887.52
 20
467809.07999999996
 10
213883.08
 20
467807.87999999995
 10
213881.63999999998
 20
467807.04
 10
213880.56
 20
467806.92
 10
213877.8
 20
467805.6
 10
213875.28
 20
467804.99999999994
 10
213872.63999999998
 20
467803.8
 10
213871.56
 20
467803.56
 10
213870.12
 20
467802.72
 10
213867.4701496226
 20
467801.9471269732
 10
213867.3269999999
 20
467802.3459000001
 10
213865.92913401217
 20
467806.1074209864
 10
213865.79225604987
 20
467806.0634147431
 10
213865.68
 20
467806.31999999995
 10
213865.19999999998
 20
467808.36
 10
213864.36
 20
467809.92
 10
213864.3412903831
 20
467809.9886019285
 10
213864.47127014864
 20
467810.03039040265
 10
213863.9400137965
 20
467811.45994941273
 10
213863.63999999998
 20
467812.56
 10
213863.08158191462
 20
467813.76990585163
 10
213862.91999999998
 20
467814.20470701874
 10
213862.91999999998
 20
467814.92230152787
  0
LWPOLYLINE
  5
41
330
17
100
AcDbEntity
  8
DESCRIPTION_ERROR
100
AcDbPolyline
 90
51
 70
1
 10
213499.44
 20
467477.87999999995
 10
213499.91999999998
 20
467478.6
 10
213502.08
 20
467479.19999999995
 10
213502.19999999998
 20
467480.16
 10
213501.59999999998
 20
467480.87999999995
 10
213501.67170359893
 20
467481.16681439575
 10
213505.1593
 20
467483.4069
 10
213506.61070031647
 20
467479.92081766477
 10
213505.2863
 20
467483.1019
 10
213506.6924
 20
467483.7411
 10
213507.789
 20
467481.5496
 10
213508.2484
 20
467480.3106
 10
213508.39515814287
 20
467480.33936742856
 10
213508.44
 20
467480.16
 10
213508.44
 20
467477.99999999994
 10
213507.84
 20
467477.87999999995
 10
213507.84
 20
467477.6588175054
 10
213507.59730998485
 20
467477.5511044315
 10
213509.3977841398
 20
467473.22659032233
 10
213509.4
 20
467473.19999999995
 10
213509.15999999997
 20
467472.72
 10
213507.9182177843
 20
467471.7886633382
 10
213507.49703043528
 20
467471.61522560386
 10
213506.63999999998
 20
467471.51999999996
 10
213506.4
 20
467472.24
 10
213504.96
 20
467474.04
 10
213504.24
 20
467475.95999999996
 10
213503.75999999998
 20
467476.56
 10
213503.75999999998
 20
467476.92
 10
213503.52
 20
467476.92
 10
213503.03999999998
 20
467478.12
 10
213502.68
 20
467477.75999999995
 10
213502.68
 20
467476.92
 10
213498.24
 20
467476.92
 10
213498.24
 20
467476.56
 10
213499.08
 20
467475.83999999997
 10
213499.08
 20
467475.48
 10
213498.72
 20
467474.87999999995
 10
213497.87999999998
 20
467474.87999999995
 10
213497.75999999998
 20
467473.31999999995
 10
213497.28
 20
467473.31999999995
 10
213496.8
 20
467474.16
 10
213496.8
 20
467475.48
 10
213496.44
 20
467476.07999999996
 10
213496.44
 20
467476.68
 10
213496.68
 20
467476.92
 10
213495.96
 20
467476.92
 10
213496.19999999998
 20
467477.63999999996
 10
213496.27822071774
 20
467477.7025765742
 10
213496.9122246724
 20
467478.10979775706
 10
213499.44
 20
467477.87999999995
  0
LWPOLYLINE
  5
42
330
17
100
AcDbEntity
  8
DESCRIPTION_ERROR
100
AcDbPolyline
 90
31
 70
1
 10
213489.24
 20
467775.95999999996
 10
213488.87999999998
 20
467776.19999999995
 10
213489.12
 20
467776.68
 10
213488.15999999997
 20
467776.68
 10
213487.91999999998
 20
467777.16
 10
213488.15999999997
 20
467777.75999999995
 10
213487.8
 20
467779.07999999996
 10
213487.31999999998
 20
467779.43999999994
 10
213486.59999999998
 20
467780.63999999996
 10
213485.28
 20
467781.48
 10
213484.91999999998
 20
467781.48
 10
213484.68
 20
467781.83999999997
 10
213484.56
 20
467782.43999999994
 10
213484.91999999998
 20
467782.8
 10
213484.91999999998
 20
467783.3736390342
 10
213484.9744
 20
467783.3674
 10
213488.9395562794
 20
467786.5953327904
 10
213489.36
 20
467786.27999999997
 10
213490.56
 20
467784.36
 10
213491.52
 20
467783.51999999996
 10
213492.12
 20
467783.39999999997
 10
213492.96
 20
467781.36
 10
213493.31999999998
 20
467781.24
 10
213493.44
 20
467780.75999999995
 10
213493.68
 20
467780.75999999995
 10
213493.8
 20
467780.27999999997
 10
213494.61859279184
 20
467779.4614072081
 10
213490.5814
 20
467776.0772
 10
213490.3428984724
 20
467776.3872987759
 10
213489.7727082014
 20
467775.9304050999
 10
213489.24
 20
467775.95999999996
  0
LWPOLYLINE
  5
43
330
17
100
AcDbEntity
  8
DESCRIPTION_ERROR
100
AcDbPolyline
 90
36
 70
1
 10
213547.19999999998
 20
467790.95999999996
 10
213546.59999999998
 20
467790.72
 10
213546.0
 20
467789.87999999995
 10
213544.91999999998
 20
467789.87999999995
 10
213544.19999999998
 20
467790.36
 10
213544.19999999998
 20
467790.6
 10
213543.47999999998
 20
467790.83999999997
 10
213540.72
 20
467790.72
 10
213539.75999999998
 20
467790.36
 10
213539.63999999998
 20
467790.12
 10
213537.96
 20
467790.72
 10
213537.72
 20
467792.04
 10
213537.84
 20
467792.87999999995
 10
213539.4
 20
467793.6
 10
213539.87999999998
 20
467794.43999999994
 10
213540.36
 20
467794.68
 10
213540.24
 20
467795.51999999996
 10
213539.52
 20
467796.72
 10
213539.75999999998
 20
467797.07999999996
 10
213539.75999999998
 20
467797.92
 10
213540.59999999998
 20
467798.51999999996
 10
213541.68
 20
467798.63999999996
 10
213541.68
 20
467798.8773310413
 10
213542.15999999997
 20
467798.9710269653
 10
213542.15999999997
 20
467798.63999999996
 10
213542.52
 20
467798.63999999996
 10
213542.70768655455
 20
467799.07793529396
 10
213544.41094715346
 20
467799.410411493
 10
213545.52
 20
467799.36
 10
213545.87999999998
 20
467797.19999999995
 10
213546.2266512192
 20
467796.7377983743
 10
213546.24850964537
 20
467796.6093746101
 10
213546.36
 20
467795.16
 10
213546.53173997247
 20
467794.9453250344
 10
213547.19999999998
 20
467791.0191289008
 10
213547.19999999998
 20
467790.95999999996
  0
LWPOLYLINE
  5
44
330
17
100
AcDbEntity
  8
DESCRIPTION_ERROR
100
AcDbPolyline
 90
79
 70
1
 10
213538.31999999998
 20
467826.48
 10
213537.72
 20
467826.24
 10
213537.12
 20
467826.24
 10
213536.4
 20
467827.19999999995
 10
213535.08
 20
467827.92
 10
213534.72
 20
467828.75999999995
 10
213533.75999999998
 20
467829.12
 10
213532.91999999998
 20
467829.95999999996
 10
213533.15999999997
 20
467830.31999999995
 10
213533.75999999998
 20
467830.31999999995
 10
213533.63999999998
 20
467831.04
 10
213534.24
 20
467831.51999999996
 10
213534.24
 20
467831.99999999994
 10
213534.0
 20
467832.24
 10
213534.24
 20
467832.95999999996
 10
213534.0
 20
467833.8
 10
213534.72
 20
467834.27999999997
 10
213534.72
 20
467834.75999999995
 10
213534.59999999998
 20
467835.24
 10
213533.63999999998
 20
467835.95999999996
 10
213533.28
 20
467836.68
 10
213532.31999999998
 20
467836.92
 10
213531.59999999998
 20
467837.51999999996
 10
213531.40475020875
 20
467838.30099916493
 10
213537.58185032094
 20
467842.2552598716
 10
213537.72
 20
467842.19999999995
 10
213537.72
 20
467841.36
 10
213538.08
 20
467840.99999999994
 10
213539.03999999998
 20
467840.51999999996
 10
213539.39204442067
 20
467839.46386673796
 10
213537.25197375767
 20
467838.1779039735
 10
213538.7092999999
 20
467839.0536
 10
213542.26344027574
 20
467836.3420796323
 10
213542.28
 20
467836.31999999995
 10
213544.31999999998
 20
467834.63999999996
 10
213545.63999999998
 20
467831.87999999995
 10
213546.21864434125
 20
467831.30135565874
 10
213542.5151
 20
467827.1961
 10
213546.21868545405
 20
467831.3013145459
 10
213546.24
 20
467831.27999999997
 10
213546.24
 20
467830.43999999994
 10
213544.68
 20
467829.24
 10
213544.08
 20
467827.92
 10
213543.59999999998
 20
467827.56
 10
213543.4189154728
 20
467826.3829505732
 10
213543.2557
 20
467826.2471
 10
213541.7764
 20
467826.5398999999
 10
213541.2662999999
 20
467826.0336
 10
213540.96
 20
467826.3734246293
 10
213540.96
 20
467826.83999999997
 10
213540.47999999998
 20
467827.43999999994
 10
213540.72
 20
467827.92
 10
213540.72
 20
467828.75999999995
 10
213540.24
 20
467829.72
 10
213540.24
 20
467831.04
 10
213539.52
 20
467831.87999999995
 10
213538.56
 20
467831.99999999994
 10
213538.08
 20
467832.6
 10
213537.12
 20
467832.72
 10
213536.75999999998
 20
467832.48
 10
213536.75999999998
 20
467831.75999999995
 10
213537.36
 20
467831.16
 10
213537.36
 20
467830.68
 10
213537.12
 20
467830.43999999994
 10
213536.52
 20
467830.43999999994
 10
213536.4
 20
467829.95999999996
 10
213536.63999999998
 20
467829.72
 10
213537.24
 20
467829.72
 10
213537.36
 20
467828.51999999996
 10
213537.72
 20
467828.27999999997
 10
213537.84
 20
467827.68
 10
213538.19999999998
 20
467827.56
 10
213538.91999999998
 20
467828.16
 10
213539.75999999998
 20
467828.16
 10
213539.75999999998
 20
467827.92
 10
213539.65796630897
 20
467827.81796630897
 10
213539.62722892978
 20
467827.8520679038
 10
213539.02730636921
 20
467827.1873063692
 10
213538.31999999998
 20
467826.48
  0
LWPOLYLINE
  5
45
330
17
100
AcDbEntity
  8
DESCRIPTION_ERROR
100
AcDbPolyline
 90
10
 70
1
 10
213541.31999999998
 20
467831.99999999994
 10
213540.96
 20
467831.39999999997
 10
213540.96
 20
467830.68
 10
213541.19999999998
 20
467830.31999999995
 10
213541.68
 20
467830.31999999995
 10
213542.28
 20
467831.27999999997
 10
213542.87999999998
 20
467831.75999999995
 10
213542.87999999998
 20
467832.12
 10
213542.28
 20
467832.48
 10
213541.31999999998
 20
467831.99999999994
  0
LWPOLYLINE
  5
46
330
17
100
AcDbEntity
  8
DESCRIPTION_ERROR
100
AcDbPolyline
 90
58
 70
1
 10
213426.12
 20
467844.95999999996
 10
213426.42918713044
 20
467845.47531188413
 10
213426.51318053543
 20
467845.56
 10
213440.4
 20
467845.56
 10
213440.15999999997
 20
467844.72
 10
213440.63999999998
 20
467843.75999999995
 10
213440.63999999998
 20
467842.92
 10
213440.28
 20
467842.19999999995
 10
213440.28
 20
467841.36
 10
213440.52
 20
467840.87999999995
 10
213441.47999999998
 20
467840.99999999994
 10
213441.96
 20
467840.63999999996
 10
213443.15999999997
 20
467840.63999999996
 10
213443.28
 20
467839.8
 10
213445.91999999998
 20
467840.27999999997
 10
213446.75999999998
 20
467839.31999999995
 10
213446.75999999998
 20
467837.87999999995
 10
213447.47999999998
 20
467837.51999999996
 10
213447.59999999998
 20
467837.87999999995
 10
213447.96
 20
467837.87999999995
 10
213448.08
 20
467837.51999999996
 10
213448.44
 20
467837.39999999997
 10
213448.44
 20
467836.8
 10
213448.08
 20
467836.68
 10
213447.96
 20
467837.27999999997
 10
213447.59999999998
 20
467837.27999999997
 10
213447.84
 20
467836.07999999996
 10
213447.47999999998
 20
467835.72
 10
213447.36
 20
467834.99999999994
 10
213445.91999999998
 20
467833.68
 10
213444.36
 20
467834.04
 10
213443.15999999997
 20
467834.87999999995
 10
213442.44
 20
467834.87999999995
 10
213442.19999999998
 20
467834.27999999997
 10
213441.59999999998
 20
467834.75999999995
 10
213441.0
 20
467834.04
 10
213439.91999999998
 20
467833.43999999994
 10
213439.08
 20
467833.43999999994
 10
213437.87999999998
 20
467832.95999999996
 10
213437.28
 20
467832.12
 10
213436.56
 20
467832.95999999996
 10
213436.4541278739
 20
467827.1370330646
 10
213434.3617549179
 20
467829.23258698784
 10
213433.91999999998
 20
467829.83999999997
 10
213433.71415803305
 20
467829.88116839336
 10
213433.1117250924
 20
467830.4845171934
 10
213432.57740881358
 20
467830.10851823725
 10
213431.81599892688
 20
467830.26080021454
 10
213430.92302371858
 20
467831.2751620502
 10
213430.91999999998
 20
467831.27999999997
 10
213430.9162201196
 20
467831.2828904967
 10
213426.3640898559
 20
467836.4538148039
 10
213427.6798264056
 20
467837.7713783637
 10
213424.5052856209
 20
467841.0905204243
 10
213425.4892494533
 20
467841.9467905665
 10
213424.4099392861
 20
467843.4393628055
 10
213425.71949032208
 20
467844.759745161
 10
213426.12
 20
467844.95999999996
  0
LWPOLYLINE
  5
47
330
17
100
AcDbEntity
  8
DESCRIPTION_ERROR
100
AcDbPolyline
 90
31
 70
1
 10
213563.98992906898
 20
467869.21111700434
 10
213566.76540329182
 20
467872.168649177
 10
213567.14359153752
 20
467872.0741021156
 10
213573.11790989854
 20
467866.6038318526
 10
213573.59999999998
 20
467865.72
 10
213573.59999999998
 20
467864.87999999995
 10
213572.15999999997
 20
467864.51999999996
 10
213570.59999999998
 20
467863.68
 10
213568.31999999998
 20
467861.27999999997
 10
213567.84
 20
467861.51999999996
 10
213567.96
 20
467862.12
 10
213567.59999999998
 20
467862.36
 10
213564.9349121799
 20
467862.36
 10
213566.9740301518
 20
467864.6439316702
 10
213564.930467635
 20
467866.6203675043
 10
213564.32422848154
 20
467865.9928915892
 10
213565.1495142607
 20
467865.1729696952
 10
213563.03999999998
 20
467862.8664506058
 10
213563.03999999998
 20
467863.31999999995
 10
213563.4
 20
467863.8
 10
213563.4
 20
467864.51999999996
 10
213563.15999999997
 20
467864.75999999995
 10
213560.75999999998
 20
467864.75999999995
 10
213561.12
 20
467865.6
 10
213561.47999999998
 20
467865.6
 10
213562.31999999998
 20
467867.04
 10
213562.82526809932
 20
467867.4821095869
 10
213562.91676905172
 20
467867.3912033383
 10
213563.9534287127
 20
467868.5489078546
 10
213563.73957872926
 20
467868.7417101173
 10
213563.98992906898
 20
467869.21111700434
  0
LWPOLYLINE
  5
48
330
17
100
AcDbEntity
  8
DESCRIPTION_ERROR
100
AcDbPolyline
 90
50
 70
1
 10
213572.01268384585
 20
467879.15109836514
 10
213574.8897359708
 20
467877.6335060728
 10
213575.23754352253
 20
467878.3044912954
 10
213575.4121213143
 20
467878.26957573707
 10
213576.3094021565
 20
467877.7604782748
 10
213576.36
 20
467877.72
 10
213576.4177700533
 20
467877.6989927079
 10
213578.6640786983
 20
467876.4244864697
 10
213578.7545812453
 20
467876.59525125276
 10
213578.87999999998
 20
467876.51999999996
 10
213578.87999999998
 20
467875.92
 10
213579.72
 20
467874.72
 10
213581.4
 20
467874.36
 10
213581.75999999998
 20
467873.99999999994
 10
213581.75999999998
 20
467873.41018442746
 10
213581.74607181418
 20
467873.38607181417
 10
213580.68
 20
467872.31999999995
 10
213579.59999999998
 20
467870.63999999996
 10
213579.37294995657
 20
467869.2776997394
 10
213579.3170390659
 20
467869.1809062515
 10
213578.28
 20
467868.72
 10
213577.68
 20
467868.72
 10
213577.44
 20
467868.95999999996
 10
213577.44
 20
467869.43999999994
 10
213578.4
 20
467869.8
 10
213578.75999999998
 20
467871.12
 10
213577.8
 20
467871.48
 10
213577.8
 20
467872.8
 10
213576.96
 20
467872.8
 10
213576.0
 20
467873.39999999997
 10
213574.8
 20
467873.27999999997
 10
213574.68
 20
467874.12
 10
213572.75999999998
 20
467873.87999999995
 10
213572.28
 20
467873.27999999997
 10
213571.44
 20
467873.16
 10
213570.84
 20
467872.19999999995
 10
213570.47999999998
 20
467872.19999999995
 10
213570.36
 20
467872.56
 10
213569.75999999998
 20
467872.56
 10
213569.87999999998
 20
467873.16
 10
213569.15999999997
 20
467873.51999999996
 10
213569.03999999998
 20
467873.99999999994
 10
213569.10783660345
 20
467874.61052943114
 10
213569.7184922013
 20
467875.73157423484
 10
213569.7711867025
 20
467875.79305115296
 10
213570.8188961724
 20
467875.3021697044
 10
213572.1138430701
 20
467877.7104179125
 10
213571.199630653
 20
467878.1339705227
 10
213571.51572133668
 20
467878.71625616954
 10
213572.01268384585
 20
467879.15109836514
  0
LWPOLYLINE
  5
49
330
17
100
AcDbEntity
  8
DESCRIPTION_ERROR
100
AcDbPolyline
 90
14
 70
1
 10
213413.52
 20
468123.83999999997
 10
213413.52
 20
468124.92
 10
213414.24
 20
468127.19999999995
 10
213414.47999999998
 20
468129.24
 10
213415.08
 20
468129.83999999997
 10
213417.47999999998
 20
468129.72
 10
213419.4
 20
468129.12
 10
213422.63999999998
 20
468128.75999999995
 10
213423.24
 20
468128.27999999997
 10
213424.19999999998
 20
468128.16
 10
213424.44
 20
468127.92
 10
213422.9434059459
 20
468121.12776544684
 10
213413.8471829781
 20
468123.07657305105
 10
213413.52
 20
468123.83999999997
  0
LWPOLYLINE
  5
4A
330
17
100
AcDbEntity
  8
DESCRIPTION_ERROR
100
AcDbPolyline
 90
121
 70
1
 10
213464.28
 20
468117.12
 10
213463.91999999998
 20
468117.12
 10
213463.31999999998
 20
468117.6
 10
213463.19999999998
 20
468119.99999999994
 10
213461.63999999998
 20
468120.12
 10
213460.44
 20
468120.95999999996
 10
213457.31999999998
 20
468120.95999999996
 10
213456.96
 20
468121.19999999995
 10
213456.96
 20
468122.04
 10
213453.72
 20
468122.04
 10
213453.84
 20
468121.8
 10
213453.47999999998
 20
468121.43999999994
 10
213453.47999999998
 20
468121.07999999996
 10
213453.12
 20
468120.95999999996
 10
213452.87999999998
 20
468121.43999999994
 10
213453.12
 20
468122.04
 10
213447.36
 20
468122.04
 10
213447.72
 20
468122.87999999995
 10
213446.75999999998
 20
468123.12
 10
213446.52
 20
468123.72
 10
213447.84
 20
468123.48
 10
213448.19999999998
 20
468122.87999999995
 10
213449.4
 20
468123.24
 10
213451.91999999998
 20
468122.99999999994
 10
213452.87999999998
 20
468123.83999999997
 10
213453.0
 20
468124.31999999995
 10
213454.08
 20
468123.95999999996
 10
213455.03999999998
 20
468123.95999999996
 10
213455.87999999998
 20
468123.48
 10
213458.03999999998
 20
468123.36
 10
213458.4
 20
468123.6
 10
213458.87999999998
 20
468125.63999999996
 10
213458.87999999998
 20
468126.83999999997
 10
213458.52
 20
468127.19999999995
 10
213457.91999999998
 20
468127.19999999995
 10
213457.68
 20
468126.83999999997
 10
213457.08
 20
468126.95999999996
 10
213456.72
 20
468127.43999999994
 10
213456.59999999998
 20
468128.87999999995
 10
213456.72
 20
468129.83999999997
 10
213458.03999999998
 20
468129.83999999997
 10
213458.28
 20
468130.56
 10
213457.91999999998
 20
468130.92
 10
213457.44
 20
468130.92
 10
213457.31999999998
 20
468131.51999999996
 10
213455.52
 20
468133.19999999995
 10
213454.68
 20
468133.31999999995
 10
213453.96
 20
468133.07999999996
 10
213451.68
 20
468134.27999999997
 10
213449.28
 20
468134.63999999996
 10
213449.03999999998
 20
468134.39999999997
 10
213449.15999999997
 20
468133.43999999994
 10
213448.91999999998
 20
468133.19999999995
 10
213447.84
 20
468133.31999999995
 10
213447.36
 20
468132.72
 10
213446.63999999998
 20
468132.72
 10
213447.0
 20
468133.8
 10
213445.91999999998
 20
468135.24
 10
213444.96
 20
468134.99999999994
 10
213444.59999999998
 20
468135.36
 10
213442.68
 20
468135.24
 10
213437.75999999998
 20
468136.19999999995
 10
213436.56
 20
468136.07999999996
 10
213436.56
 20
468136.43999999994
 10
213434.28
 20
468137.04
 10
213433.08
 20
468137.04
 10
213432.47999999998
 20
468136.56
 10
213429.96
 20
468136.56
 10
213428.87999999998
 20
468137.04
 10
213428.87999999998
 20
468138.24
 10
213428.63999999998
 20
468138.6
 10
213425.52
 20
468138.6
 10
213424.91999999998
 20
468139.56
 10
213421.91999999998
 20
468139.68
 10
213419.03999999998
 20
468140.63999999996
 10
213417.59999999998
 20
468140.75999999995
 10
213417.72
 20
468143.16
 10
213418.08
 20
468144.12
 10
213419.28
 20
468145.31999999995
 10
213420.84
 20
468147.48
 10
213422.58884463675
 20
468147.78861964174
 10
213423.60892897256
 20
468147.5596427028
 10
213424.44
 20
468147.24
 10
213425.50929205766
 20
468147.1330707942
 10
213425.67679129727
 20
468147.09547246847
 10
213426.36
 20
468146.63999999996
 10
213426.96
 20
468146.63999999996
 10
213427.91999999998
 20
468146.16
 10
213429.12
 20
468146.04
 10
213429.96
 20
468145.68
 10
213431.87999999998
 20
468145.56
 10
213434.4
 20
468144.95999999996
 10
213436.68
 20
468144.12
 10
213439.44
 20
468143.75999999995
 10
213441.12
 20
468143.16
 10
213446.4
 20
468142.19999999995
 10
213447.12
 20
468141.83999999997
 10
213448.91999999998
 20
468141.6
 10
213451.31999999998
 20
468140.87999999995
 10
213453.24
 20
468140.75999999995
 10
213459.0
 20
468138.95999999996
 10
213463.19999999998
 20
468138.36
 10
213466.44
 20
468137.39999999997
 10
213471.24
 20
468136.43999999994
 10
213471.36
 20
468134.87999999995
 10
213470.63999999998
 20
468132.12
 10
213470.15999999997
 20
468128.63999999996
 10
213470.03999999998
 20
468126.6
 10
213470.52
 20
468126.24
 10
213470.52
 20
468125.27999999997
 10
213470.4
 20
468125.04
 10
213470.03999999998
 20
468125.04
 10
213470.28
 20
468123.12
 10
213469.91999999998
 20
468122.04
 10
213469.19999999998
 20
468122.04
 10
213469.08
 20
468118.31999999995
 10
213468.72
 20
468117.83999999997
 10
213468.54093149005
 20
468115.7807121355
 10
213465.4110381594
 20
468116.5003375687
 10
213464.63619693115
 20
468116.1226485927
 10
213464.28
 20
468117.12
  0
LWPOLYLINE
  5
4B
330
17
100
AcDbEntity
  8
DESCRIPTION_ERROR
100
AcDbPolyline
 90
35
 70
1
 10
213411.36
 20
468173.16
 10
213410.28
 20
468173.63999999996
 10
213410.4
 20
468174.6
 10
213410.15999999997
 20
468175.19999999995
 10
213410.52
 20
468176.16
 10
213410.28
 20
468176.39999999997
 10
213410.28
 20
468177.48
 10
213409.56
 20
468177.83999999997
 10
213408.47999999998
 20
468177.95999999996
 10
213408.0
 20
468178.8
 10
213407.03999999998
 20
468178.8
 10
213406.68
 20
468179.16
 10
213405.84
 20
468179.27999999997
 10
213407.15999999997
 20
468179.87999999995
 10
213407.4
 20
468180.24
 10
213408.36
 20
468180.36
 10
213409.8
 20
468179.75999999995
 10
213412.44
 20
468180.24
 10
213413.24469473577
 20
468179.59624421137
 10
213413.7352734732
 20
468178.9142567668
 10
213414.00319441687
 20
468179.12866899295
 10
213415.08
 20
468178.68
 10
213416.4
 20
468176.87999999995
 10
213416.52896957178
 20
468176.76945465273
 10
213417.67044402342
 20
468175.2130231485
 10
213417.84
 20
468174.83999999997
 10
213418.05380940603
 20
468174.62619059393
 10
213423.8933576387
 20
468165.2657207572
 10
213419.7754192244
 20
468162.3410744066
 10
213419.5288526475
 20
468162.2746910974
 10
213412.8951548881
 20
468172.083158946
 10
213411.0025802291
 20
468173.7615810826
 10
213411.7938577523
 20
468173.0598398304
 10
213411.5267009874
 20
468172.82659802516
 10
213411.36
 20
468173.16
  0
LWPOLYLINE
  5
4C
330
17
100
AcDbEntity
  8
DESCRIPTION_ERROR
100
AcDbPolyline
 90
66
 70
1
 10
213456.36
 20
468394.07999999996
 10
213458.75999999998
 20
468395.04
 10
213459.47999999998
 20
468394.92
 10
213459.96
 20
468394.43999999994
 10
213459.96
 20
468392.75999999995
 10
213459.59999999998
 20
468390.48
 10
213459.96
 20
468389.51999999996
 10
213459.59999999998
 20
468389.04
 10
213458.4
 20
468388.8
 10
213458.63999999998
 20
468387.6
 10
213458.87999999998
 20
468387.48
 10
213459.24
 20
468386.51999999996
 10
213459.29440668726
 20
468385.70389969076
 10
213459.20880840585
 20
468385.6841144365
 10
213459.3266630852
 20
468385.2200537218
 10
213459.35569926995
 20
468384.7845109507
 10
213454.8303084311
 20
468383.61802056205
 10
213451.56
 20
468383.39999999997
 10
213450.0
 20
468382.92
 10
213449.15999999997
 20
468382.92
 10
213448.44
 20
468383.75999999995
 10
213448.31999999998
 20
468384.72
 10
213447.96
 20
468385.19999999995
 10
213447.96
 20
468386.04
 10
213447.47999999998
 20
468386.87999999995
 10
213447.12
 20
468386.75999999995
 10
213447.59999999998
 20
468384.6
 10
213447.59999999998
 20
468384.391864728
 10
213447.0404342932
 20
468386.5742921908
 10
213445.6741600877
 20
468386.2124152965
 10
213444.83250058576
 20
468389.6894998828
 10
213445.08
 20
468389.63999999996
 10
213445.19999999998
 20
468390.12
 10
213445.56
 20
468390.24
 10
213446.03999999998
 20
468390.12
 10
213446.4
 20
468389.39999999997
 10
213446.75999999998
 20
468390.24
 10
213447.59999999998
 20
468390.48
 10
213448.56
 20
468391.19999999995
 10
213449.75999999998
 20
468391.19999999995
 10
213450.24
 20
468392.04
 10
213450.72
 20
468392.16
 10
213452.28
 20
468392.16
 10
213452.15999999997
 20
468391.43999999994
 10
213451.19999999998
 20
468391.56
 10
213450.84
 20
468391.19999999995
 10
213451.08
 20
468388.92
 10
213451.56
 20
468388.43999999994
 10
213452.28
 20
468388.31999999995
 10
213454.19999999998
 20
468388.56
 10
213456.0
 20
468389.51999999996
 10
213456.47999999998
 20
468389.51999999996
 10
213456.59999999998
 20
468389.87999999995
 10
213456.36
 20
468389.87999999995
 10
213456.36
 20
468390.24
 10
213456.72
 20
468390.48
 10
213456.84
 20
468391.31999999995
 10
213456.72
 20
468392.16
 10
213455.52
 20
468392.27999999997
 10
213455.03999999998
 20
468391.92
 10
213453.0
 20
468391.68
 10
213452.52
 20
468392.51999999996
 10
213452.63999999998
 20
468393.12
 10
213453.2752609602
 20
468393.64938413346
 10
213454.8571320264
 20
468394.07999999996
 10
213456.36
 20
468394.07999999996
  0
LWPOLYLINE
  5
4D
330
17
100
AcDbEntity
  8
DESCRIPTION_ERROR
100
AcDbPolyline
 90
6
 70
1
 10
213457.44
 20
468390.72
 10
213457.44
 20
468389.75999999995
 10
213458.03999999998
 20
468389.63999999996
 10
213458.4
 20
468390.6
 10
213457.8
 20
468390.83999999997
 10
213457.44
 20
468390.72
  0
LWPOLYLINE
  5
4E
330
17
100
AcDbEntity
  8
DESCRIPTION_ERROR
100
AcDbPolyline
 90
6
 70
1
 10
213445.8
 20
468387.48
 10
213446.03999999998
 20
468387.36
 10
213446.63999999998
 20
468387.6
 10
213446.4
 20
468388.8
 10
213445.8
 20
468388.8
 10
213445.8
 20
468387.48
  0
LWPOLYLINE
  5
4F
330
17
100
AcDbEntity
  8
DESCRIPTION_ERROR
100
AcDbPolyline
 90
4
 70
1
 10
213446.87999999998
 20
468387.24
 10
213446.87999999998
 20
468387.48
 10
213446.75999999998
 20
468387.24
 10
213446.87999999998
 20
468387.24
  0
LWPOLYLINE
  5
50
330
17
100
AcDbEntity
  8
DESCRIPTION_ERROR
100
AcDbPolyline
 90
14
 70
1
 10
213813.53082369195
 20
468074.031882231
 10
213813.59941806193
 20
468075.95999999996
 10
213847.08
 20
468075.95999999996
 10
213847.31999999998
 20
468075.6
 10
213847.31999999998
 20
468074.04
 10
213847.19999999998
 20
468073.8
 10
213846.24
 20
468073.92
 10
213844.33118202628
 20
468073.05235546647
 10
213830.8486045394
 20
468073.396897324
 10
213815.5292991797
 20
468073.7883760254
 10
213815.52
 20
468073.8
 10
213815.07443096797
 20
468073.8
 10
213813.7964558102
 20
468073.8326581423
 10
213813.53082369195
 20
468074.031882231
  0
LWPOLYLINE
  5
51
330
17
100
AcDbEntity
  8
DESCRIPTION_ERROR
100
AcDbPolyline
 90
111
 70
1
 10
213815.01609175227
 20
468118.5121835045
 10
213817.013659123
 20
468119.7835134089
 10
213818.0484791072
 20
468120.4973561899
 10
213817.4127776097
 20
468121.534923251
 10
213823.4250336364
 20
468125.1297157674
 10
213824.3591021121
 20
468123.6650042091
 10
213825.4255059328
 20
468124.2997593733
 10
213826.1494831339
 20
468123.0891192966
 10
213826.400737942
 20
468123.2527003905
 10
213827.44169201
 20
468121.6242077788
 10
213827.8437331498
 20
468121.945844649
 10
213827.9511324316
 20
468121.79169729917
 10
213828.0
 20
468121.68
 10
213828.47976455715
 20
468120.9717761299
 10
213828.0262664308
 20
468120.6508554838
 10
213830.7794351256
 20
468116.041454868
 10
213830.9937331974
 20
468115.682673488
 10
213830.7802620592
 20
468115.53163104
 10
213830.3395194794
 20
468115.2197816785
 10
213830.7819179881
 20
468114.5107122031
 10
213831.510567745
 20
468113.3428436623
 10
213831.0378261628
 20
468113.0165950899
 10
213832.1530857902
 20
468111.1852697402
 10
213830.7886237044
 20
468110.3764816548
 10
213830.1179881194
 20
468109.978960847
 10
213830.7912488031
 20
468108.7580470353
 10
213831.3130604441
 20
468107.8117760663
 10
213832.0113774885
 20
468107.2932452276
 10
213832.3260014872
 20
468107.6595821902
 10
213836.4619766206
 20
468104.5958692529
 10
213836.1492229594
 20
468104.2472057124
 10
213837.0075372737
 20
468103.72300413
 10
213838.1619467196
 20
468103.7009641814
 10
213838.3484688577
 20
468107.8841272585
 10
213848.3679401574
 20
468107.7213233461
 10
213847.0958065022
 20
468107.7419939314
 10
213847.10196982414
 20
468108.2225099312
 10
213849.59999999998
 20
468109.19999999995
 10
213851.03999999998
 20
468111.83999999997
 10
213851.2932796475
 20
468111.8789660996
 10
213853.15201819953
 20
468111.84298618
 10
213853.1565203282
 20
468112.2358713513
 10
213856.3257456466
 20
468112.0824735547
 10
213856.2537119866
 20
468108.0238980582
 10
213858.5104418856
 20
468107.9872891213
 10
213858.4719854378
 20
468107.419867186
 10
213864.0699863103
 20
468107.1441827663
 10
213868.5824935381
 20
468107.0309653194
 10
213868.3037167099
 20
468097.5603974757
 10
213868.14231068187
 20
468089.88924272754
 10
213868.08
 20
468089.63999999996
 10
213868.10431877043
 20
468088.08359869145
 10
213867.94303392872
 20
468080.4182035723
 10
213867.84
 20
468079.8
 10
213866.87999999998
 20
468079.92
 10
213866.63999999998
 20
468079.68
 10
213865.56
 20
468079.56
 10
213863.52
 20
468079.56
 10
213863.45836880902
 20
468079.5476737618
 10
213854.88834101192
 20
468079.7968721205
 10
213854.87999999998
 20
468079.8
 10
213851.28
 20
468080.04
 10
213851.28
 20
468097.68
 10
213849.47999999998
 20
468097.56
 10
213846.96
 20
468098.39999999997
 10
213840.96
 20
468098.27999999997
 10
213840.12
 20
468097.92
 10
213838.44
 20
468094.92
 10
213838.19999999998
 20
468092.51999999996
 10
213837.0
 20
468090.95999999996
 10
213836.75999999998
 20
468088.43999999994
 10
213834.96
 20
468086.63999999996
 10
213834.24
 20
468084.72
 10
213833.15999999997
 20
468084.24
 10
213829.91999999998
 20
468084.6
 10
213828.84
 20
468085.8
 10
213825.36
 20
468088.19999999995
 10
213824.87999999998
 20
468088.8
 10
213824.28
 20
468089.04
 10
213823.91999999998
 20
468089.63999999996
 10
213822.72
 20
468090.36
 10
213821.4
 20
468091.56
 10
213820.91999999998
 20
468091.68
 10
213819.0
 20
468093.48
 10
213818.52
 20
468093.6
 10
213817.44
 20
468094.56
 10
213817.08
 20
468094.56
 10
213815.77990575804
 20
468095.3029109954
 10
213815.3443277151
 20
468095.62438553415
 10
213815.22897241887
 20
468095.84067671455
 10
213815.8435176105
 20
468096.6268943024
 10
213814.44
 20
468097.70964558
 10
213814.44
 20
468098.51999999996
 10
213814.8
 20
468099.36
 10
213815.15999999997
 20
468099.6
 10
213815.15999999997
 20
468099.95999999996
 10
213815.63999999998
 20
468100.19999999995
 10
213816.0
 20
468100.92
 10
213816.59999999998
 20
468101.39999999997
 10
213816.72
 20
468102.24
 10
213816.12
 20
468102.36
 10
213815.87999999998
 20
468103.31999999995
 10
213814.91999999998
 20
468103.92
 10
213815.52
 20
468104.51999999996
 10
213815.52
 20
468105.12
 10
213814.91999999998
 20
468106.68
 10
213815.03999999998
 20
468110.27999999997
 10
213814.91999999998
 20
468113.04
 10
213814.62860059374
 20
468114.20559762506
 10
213814.73101650755
 20
468117.9420330151
 10
213815.01609175227
 20
468118.5121835045
  0
LWPOLYLINE
  5
52
330
17
100
AcDbEntity
  8
DESCRIPTION_ERROR
100
AcDbPolyline
 90
12
 70
1
 10
213820.56
 20
468111.36
 10
213821.63999999998
 20
468109.43999999994
 10
213821.28
 20
468108.48
 10
213821.52
 20
468106.8
 10
213822.36
 20
468106.19999999995
 10
213822.84
 20
468106.56
 10
213823.68
 20
468107.99999999994
 10
213823.31999999998
 20
468108.95999999996
 10
213822.12
 20
468110.39999999997
 10
213821.75999999998
 20
468111.36
 10
213820.68
 20
468112.43999999994
 10
213820.56
 20
468111.36
  0
LWPOLYLINE
  5
53
330
17
100
AcDbEntity
  8
DESCRIPTION_ERROR
100
AcDbPolyline
 90
7
 70
1
 10
213816.59999999998
 20
468104.27999999997
 10
213816.84
 20
468103.68
 10
213817.19999999998
 20
468103.8
 10
213817.56
 20
468104.39999999997
 10
213817.44
 20
468104.75999999995
 10
213816.96
 20
468104.87999999995
 10
213816.59999999998
 20
468104.27999999997
  0
LWPOLYLINE
  5
54
330
17
100
AcDbEntity
  8
DESCRIPTION_ERROR
100
AcDbPolyline
 90
21
 70
1
 10
213684.0
 20
468428.63999999996
 10
213685.08
 20
468430.8
 10
213685.31999999998
 20
468433.92
 10
213685.68
 20
468435.83999999997
 10
213686.03999999998
 20
468436.56
 10
213685.91999999998
 20
468438.36
 10
213686.4
 20
468439.19999999995
 10
213686.87999999998
 20
468439.19999999995
 10
213687.47999999998
 20
468439.56
 10
213687.84
 20
468440.51999999996
 10
213688.56
 20
468441.24
 10
213688.8
 20
468443.51999999996
 10
213688.44
 20
468444.24
 10
213688.56
 20
468444.6
 10
213696.65632236263
 20
468444.6
 10
213694.51534877252
 20
468425.76343470975
 10
213693.0
 20
468425.87999999995
 10
213692.83100486017
 20
468425.837751215
 10
213683.0760209278
 20
468426.9220822648
 10
213683.20705204198
 20
468428.14440752624
 10
213684.0
 20
468428.63999999996
  0
LWPOLYLINE
  5
55
330
17
100
AcDbEntity
  8
DESCRIPTION_ERROR
100
AcDbPolyline
 90
42
 70
1
 10
214444.91999999998
 20
469233.48
 10
214446.36
 20
469234.07999999996
 10
214448.03999999998
 20
469235.51999999996
 10
214448.75999999998
 20
469235.51999999996
 10
214449.47999999998
 20
469234.68
 10
214450.31999999998
 20
469234.43999999994
 10
214450.31999999998
 20
469232.63999999996
 10
214450.56
 20
469232.27999999997
 10
214451.52
 20
469231.56
 10
214452.96
 20
469229.87999999995
 10
214454.52
 20
469229.16
 10
214455.36
 20
469228.07999999996
 10
214453.56
 20
469227.83999999997
 10
214454.16
 20
469227.36
 10
214454.28
 20
469226.16
 10
214455.12
 20
469225.92
 10
214455.47999999998
 20
469225.56
 10
214455.84
 20
469224.72
 10
214455.84
 20
469223.27999999997
 10
214453.8
 20
469221.36
 10
214452.24
 20
469220.63999999996
 10
214451.4
 20
469220.63999999996
 10
214451.4
 20
469220.99999999994
 10
214450.68
 20
469221.48
 10
214451.03999999998
 20
469223.99999999994
 10
214450.8
 20
469224.24
 10
214450.31999999998
 20
469224.24
 10
214450.31999999998
 20
469227.95999999996
 10
214443.24
 20
469227.95999999996
 10
214443.24
 20
469227.48
 10
214442.87999999998
 20
469227.24
 10
214442.27241015513
 20
469227.7716411142
 10
214441.581324082
 20
469228.8928222031
 10
214441.31999999998
 20
469229.51999999996
 10
214440.47999999998
 20
469230.72
 10
214440.47999999998
 20
469231.19999999995
 10
214440.8861451266
 20
469231.7076814082
 10
214441.20668902228
 20
469231.90572386666
 10
214441.8
 20
469232.16
 10
214442.23664437415
 20
469232.5420638274
 10
214443.100208549
 20
469233.0756018997
 10
214444.91999999998
 20
469233.48
  0
LWPOLYLINE
  5
56
330
17
100
AcDbEntity
  8
DESCRIPTION_ERROR
100
AcDbPolyline
 90
52
 70
1
 10
214496.4
 20
469564.92
 10
214496.4
 20
469565.63999999996
 10
214496.75999999998
 20
469566.6
 10
214497.96
 20
469567.56
 10
214498.08
 20
469568.04
 10
214497.96
 20
469568.75999999995
 10
214497.0
 20
469569.6
 10
214496.87999999998
 20
469569.95999999996
 10
214497.0
 20
469570.8
 10
214497.59999999998
 20
469571.51999999996
 10
214497.72
 20
469572.12
 10
214497.36
 20
469572.95999999996
 10
214496.52
 20
469573.68
 10
214497.0
 20
469574.39999999997
 10
214497.24
 20
469575.36
 10
214498.08
 20
469575.95999999996
 10
214498.08
 20
469576.43999999994
 10
214497.24
 20
469577.99999999994
 10
214497.24
 20
469579.07999999996
 10
214497.59999999998
 20
469579.19999999995
 10
214497.72
 20
469579.8
 10
214497.0
 20
469580.99999999994
 10
214496.4
 20
469581.36
 10
214495.19999999998
 20
469581.24
 10
214494.59999999998
 20
469580.75999999995
 10
214494.36
 20
469580.99999999994
 10
214494.36
 20
469581.48
 10
214495.08
 20
469581.95999999996
 10
214495.8
 20
469581.72
 10
214495.91999999998
 20
469581.95999999996
 10
214496.28
 20
469581.95999999996
 10
214496.4
 20
469581.72
 10
214496.4
 20
469582.56
 10
214497.0
 20
469582.07999999996
 10
214497.36
 20
469581.36
 10
214497.6956361052
 20
469581.24812129827
 10
214497.79726716012
 20
469581.08546567976
 10
214498.44
 20
469579.8
 10
214498.72979062458
 20
469579.5930066967
 10
214501.7206999999
 20
469574.8061999998
 10
214507.67123083072
 20
469566.79615415353
 10
214507.6272212009
 20
469566.5761060045
 10
214504.80794130822
 20
469564.53767633345
 10
214505.0880761552
 20
469564.1640380776
 10
214503.22361622806
 20
469563.231808114
 10
214503.1394070001
 20
469563.33127258136
 10
214500.82769380682
 20
469561.6598298926
 10
214500.0
 20
469561.19999999995
 10
214499.05372486397
 20
469561.19999999995
 10
214498.9389
 20
469561.2726999999
 10
214497.2790129453
 20
469563.52392061625
 10
214496.4
 20
469564.92
  0
LWPOLYLINE
  5
57
330
17
100
AcDbEntity
  8
DESCRIPTION_ERROR
100
AcDbPolyline
 90
20
 70
1
 10
214504.44
 20
468741.72
 10
214504.74745034086
 20
468741.8737251704
 10
214506.8682
 20
468742.1394
 10
214509.4523
 20
468742.1433999999
 10
214509.2202726713
 20
468735.549038865
 10
214508.78449998196
 20
468734.80199996906
 10
214507.8510306376
 20
468734.71724234056
 10
214507.19999999998
 20
468734.87999999995
 10
214505.28894038216
 20
468734.4846083549
 10
214498.9187
 20
468733.9062
 10
214498.46666135298
 20
468733.8338891103
 10
214496.4
 20
468733.92
 10
214496.4
 20
468737.16
 10
214495.19999999998
 20
468737.27999999997
 10
214495.08
 20
468738.12
 10
214495.68
 20
468738.6
 10
214496.16
 20
468739.43999999994
 10
214496.3730194727
 20
468740.82462657255
 10
214503.28365982478
 20
468741.6903502519
 10
214504.44
 20
468741.72
  0
LWPOLYLINE
  5
58
330
17
100
AcDbEntity
  8
DESCRIPTION_ERROR
100
AcDbPolyline
 90
20
 70
1
 10
214684.31999999998
 20
468825.83999999997
 10
214685.16
 20
468824.51999999996
 10
214686.36
 20
468824.39999999997
 10
214686.72
 20
468824.04
 10
214686.96
 20
468822.48
 10
214687.44
 20
468821.75999999995
 10
214689.12
 20
468821.99999999994
 10
214689.72
 20
468822.72
 10
214689.84
 20
468823.43999999994
 10
214690.31999999998
 20
468824.16
 10
214690.31999999998
 20
468824.99999999994
 10
214689.72
 20
468825.95999999996
 10
214689.72
 20
468827.27999999997
 10
214686.67553244095
 20
468827.17501836
 10
214689.3413
 20
468827.9747000001
 10
214695.1237
 20
468829.4974
 10
214696.8936
 20
468823.7270000001
 10
214685.8657
 20
468820.2788
 10
214684.0116054154
 20
468825.8708394584
 10
214684.31999999998
 20
468825.83999999997
  0
LWPOLYLINE
  5
59
330
17
100
AcDbEntity
  8
DESCRIPTION_ERROR
100
AcDbPolyline
 90
5
 70
1
 10
214695.36
 20
468824.27999999997
 10
214695.96
 20
468824.27999999997
 10
214695.84
 20
468824.75999999995
 10
214695.36
 20
468824.75999999995
 10
214695.36
 20
468824.27999999997
  0
LWPOLYLINE
  5
5A
330
17
100
AcDbEntity
  8
DESCRIPTION_ERROR
100
AcDbPolyline
 90
5
 70
1
 10
214692.36
 20
468823.43999999994
 10
214692.59999999998
 20
468823.31999999995
 10
214692.72
 20
468823.68
 10
214692.47999999998
 20
468823.8
 10
214692.36
 20
468823.43999999994
  0
LWPOLYLINE
  5
5B
330
17
100
AcDbEntity
  8
DESCRIPTION_ERROR
100
AcDbPolyline
 90
58
 70
1
 10
214728.36
 20
468895.19999999995
 10
214729.8
 20
468896.16
 10
214731.24
 20
468895.43999999994
 10
214731.47999999998
 20
468894.95999999996
 10
214732.44
 20
468894.6
 10
214733.16
 20
468893.99999999994
 10
214734.36
 20
468894.12
 10
214735.44
 20
468894.95999999996
 10
214736.75999999998
 20
468894.95999999996
 10
214737.59999999998
 20
468895.56
 10
214738.56
 20
468895.68
 10
214739.4
 20
468896.27999999997
 10
214740.72
 20
468896.27999999997
 10
214740.84
 20
468896.51999999996
 10
214741.44
 20
468896.51999999996
 10
214743.0
 20
468895.92
 10
214743.24
 20
468896.63999999996
 10
214743.25776746543
 20
468896.655229256
 10
214750.54443529947
 20
468883.2160310928
 10
214750.31999999998
 20
468883.19999999995
 10
214748.16
 20
468885.48
 10
214747.19999999998
 20
468887.75999999995
 10
214746.12
 20
468888.95999999996
 10
214745.88
 20
468886.31999999995
 10
214746.47999999998
 20
468885.6
 10
214746.47999999998
 20
468883.92
 10
214745.52
 20
468883.07999999996
 10
214744.8
 20
468882.83999999997
 10
214743.72
 20
468881.75999999995
 10
214741.44
 20
468880.68
 10
214740.72
 20
468879.95999999996
 10
214739.88
 20
468879.83999999997
 10
214739.4
 20
468879.36
 10
214738.91999999998
 20
468878.51999999996
 10
214739.03999999998
 20
468877.31999999995
 10
214740.12
 20
468876.48
 10
214740.12
 20
468876.12
 10
214738.8
 20
468874.56
 10
214738.56
 20
468873.83999999997
 10
214737.96
 20
468873.83999999997
 10
214737.59999999998
 20
468874.19999999995
 10
214737.12
 20
468874.07999999996
 10
214736.16
 20
468875.27999999997
 10
214734.24
 20
468879.6
 10
214733.52
 20
468880.43999999994
 10
214732.44
 20
468882.95999999996
 10
214731.96
 20
468883.43999999994
 10
214731.0
 20
468885.6
 10
214729.8
 20
468887.27999999997
 10
214728.72
 20
468889.8
 10
214728.0
 20
468890.87999999995
 10
214727.88
 20
468891.6
 10
214727.52
 20
468891.83999999997
 10
214727.4
 20
468892.43999999994
 10
214726.44
 20
468893.87999999995
 10
214726.44
 20
468894.56318097597
 10
214726.5976260166
 20
468894.6492581302
 10
214728.36
 20
468895.19999999995
  0
LWPOLYLINE
  5
5C
330
17
100
AcDbEntity
  8
DESCRIPTION_ERROR
100
AcDbPolyline
 90
18
 70
1
 10
215458.08
 20
468781.19999999995
 10
215458.13652173933
 20
468781.3318840584
 10
215458.5799999999
 20
468781.95
 10
215468.21
 20
468773.44
 10
215466.52768181785
 20
468771.262204545
 10
215464.31999999998
 20
468768.6
 10
215463.72
 20
468768.72
 10
215463.47999999998
 20
468769.19999999995
 10
215462.4
 20
468769.8
 10
215461.8
 20
468770.51999999996
 10
215459.28
 20
468772.31999999995
 10
215457.36
 20
468773.99999999994
 10
215457.36
 20
468774.24
 10
215456.88
 20
468774.36
 10
215454.96
 20
468776.04
 10
215454.96
 20
468776.9044771244
 10
215457.51379790713
 20
468780.46393727924
 10
215458.08
 20
468781.19999999995
  0
LWPOLYLINE
  5
5D
330
17
100
AcDbEntity
  8
DESCRIPTION_ERROR
100
AcDbPolyline
 90
31
 70
1
 10
214619.75999999998
 20
469396.92
 10
214619.4
 20
469396.19999999995
 10
214619.52
 20
469395.36
 10
214620.12
 20
469394.87999999995
 10
214620.0
 20
469393.19999999995
 10
214619.52
 20
469393.31999999995
 10
214619.63999999998
 20
469391.87999999995
 10
214618.91999999998
 20
469391.16
 10
214618.91999999998
 20
469390.31999999995
 10
214618.68
 20
469389.95999999996
 10
214618.08
 20
469389.95999999996
 10
214617.47999999998
 20
469389.48
 10
214614.96
 20
469389.72
 10
214613.14170509108
 20
469390.73016383825
 10
214613.1677
 20
469390.806
 10
214617.83016993123
 20
469405.3829368271
 10
214617.96
 20
469405.07999999996
 10
214618.31999999998
 20
469404.83999999997
 10
214617.96
 20
469404.36
 10
214617.96
 20
469403.75999999995
 10
214618.31999999998
 20
469403.39999999997
 10
214618.31999999998
 20
469402.92
 10
214618.91999999998
 20
469402.43999999994
 10
214619.75999999998
 20
469402.43999999994
 10
214620.47999999998
 20
469401.95999999996
 10
214620.59999999998
 20
469400.51999999996
 10
214620.24
 20
469400.16
 10
214619.87316153053
 20
469397.6838403311
 10
214617.4659
 20
469390.4328
 10
214619.87316153044
 20
469397.6838403307
 10
214619.75999999998
 20
469396.92
  0
LWPOLYLINE
  5
5E
330
17
100
AcDbEntity
  8
DESCRIPTION_ERROR
100
AcDbPolyline
 90
52
 70
1
 10
214632.96
 20
469516.07999999996
 10
214634.03999999998
 20
469515.83999999997
 10
214634.4
 20
469515.48
 10
214635.0
 20
469515.48
 10
214637.75999999998
 20
469514.04
 10
214639.44
 20
469513.56
 10
214641.36
 20
469512.48
 10
214642.91999999998
 20
469511.99999999994
 10
214644.24
 20
469511.27999999997
 10
214645.63077393072
 20
469510.9590521698
 10
214645.94751150807
 20
469510.8216589946
 10
214646.52
 20
469510.43999999994
 10
214645.19999999998
 20
469507.68
 10
214644.96
 20
469506.48
 10
214644.47999999998
 20
469505.75999999995
 10
214643.63999999998
 20
469505.87999999995
 10
214641.36
 20
469507.19999999995
 10
214640.52
 20
469507.31999999995
 10
214639.08
 20
469508.16
 10
214637.16
 20
469508.75999999995
 10
214636.8
 20
469509.12
 10
214634.63999999998
 20
469509.95999999996
 10
214634.63999999998
 20
469505.99999999994
 10
214635.12
 20
469506.12
 10
214635.72
 20
469507.19999999995
 10
214635.96
 20
469507.19999999995
 10
214637.16
 20
469504.92
 10
214637.75999999998
 20
469504.43999999994
 10
214644.12
 20
469504.43999999994
 10
214642.56
 20
469500.95999999996
 10
214641.99358242343
 20
469500.8790832033
 10
214640.3530917494
 20
469501.55942539504
 10
214639.44
 20
469502.04
 10
214638.72236266243
 20
469502.23571927386
 10
214633.68486418997
 20
469504.3248641899
 10
214633.91999999998
 20
469504.56
 10
214632.84
 20
469505.04
 10
214632.24
 20
469505.04
 10
214631.52
 20
469505.51999999996
 10
214631.63999999998
 20
469507.07999999996
 10
214631.4
 20
469507.92
 10
214632.12
 20
469508.87999999995
 10
214632.12
 20
469509.48
 10
214633.31999999998
 20
469510.19999999995
 10
214633.19999999998
 20
469510.56
 10
214632.59999999998
 20
469510.68
 10
214631.4
 20
469512.12
 10
214631.52
 20
469512.95999999996
 10
214631.87999999998
 20
469513.19999999995
 10
214631.97299129269
 20
469514.2229042195
 10
214632.63109074716
 20
469515.75109074713
 10
214632.96
 20
469516.07999999996
  0
LWPOLYLINE
  5
5F
330
17
100
AcDbEntity
  8
DESCRIPTION_ERROR
100
AcDbPolyline
 90
67
 70
1
 10
214639.44
 20
469531.92
 10
214643.16
 20
469530.12
 10
214643.28
 20
469529.87999999995
 10
214646.87999999998
 20
469528.8
 10
214647.72
 20
469527.95999999996
 10
214648.8
 20
469527.83999999997
 10
214649.4
 20
469527.24
 10
214649.28
 20
469526.75999999995
 10
214649.87999999998
 20
469526.39999999997
 10
214649.87999999998
 20
469525.8
 10
214647.12
 20
469526.63999999996
 10
214646.28
 20
469527.24
 10
214643.87999999998
 20
469527.83999999997
 10
214642.8
 20
469528.56
 10
214642.68
 20
469528.92
 10
214641.72
 20
469528.8
 10
214640.75999999998
 20
469529.27999999997
 10
214639.44
 20
469529.27999999997
 10
214638.72
 20
469528.68
 10
214638.59999999998
 20
469526.75999999995
 10
214639.68
 20
469525.8
 10
214641.0
 20
469525.19999999995
 10
214642.08
 20
469525.07999999996
 10
214643.03999999998
 20
469524.36
 10
214646.16
 20
469523.16
 10
214647.84
 20
469522.19999999995
 10
214648.44
 20
469522.31999999995
 10
214649.75999999998
 20
469521.83999999997
 10
214650.0
 20
469521.36
 10
214651.19999999998
 20
469520.87999999995
 10
214652.75999999998
 20
469520.75999999995
 10
214653.36
 20
469521.95999999996
 10
214654.31999999998
 20
469522.19999999995
 10
214654.56
 20
469522.56
 10
214654.56
 20
469523.39999999997
 10
214653.72
 20
469524.36
 10
214653.72
 20
469524.95999999996
 10
214654.68
 20
469525.31999999995
 10
214656.12
 20
469524.83999999997
 10
214656.12
 20
469524.12
 10
214655.75999999998
 20
469523.63999999996
 10
214655.2804355283
 20
469521.8176550074
 10
214655.0515708264
 20
469521.2515708264
 10
214654.8
 20
469520.99999999994
 10
214654.6948901506
 20
469520.3693409036
 10
214654.65093669554
 20
469520.26062446367
 10
214654.31999999998
 20
469520.04
 10
214654.19999999998
 20
469519.19999999995
 10
214653.36
 20
469517.63999999996
 10
214652.75999999998
 20
469515.6
 10
214652.28
 20
469514.99999999994
 10
214651.9567546262
 20
469515.0538742289
 10
214651.01207547428
 20
469515.43962263997
 10
214650.12
 20
469515.95999999996
 10
214648.31999999998
 20
469516.56
 10
214647.96
 20
469516.92
 10
214645.91999999998
 20
469517.51999999996
 10
214644.36
 20
469518.36
 10
214643.63999999998
 20
469518.48
 10
214640.87999999998
 20
469519.8
 10
214635.47999999998
 20
469521.83999999997
 10
214635.40256567695
 20
469522.3820402613
 10
214638.03215333712
 20
469528.7501631184
 10
214638.12
 20
469528.92
 10
214638.14346634375
 20
469529.0197319609
 10
214639.32528347027
 20
469531.8817611567
 10
214639.44
 20
469531.92
  0
LWPOLYLINE
  5
60
330
17
100
AcDbEntity
  8
DESCRIPTION_ERROR
100
AcDbPolyline
 90
53
 70
1
 10
213439.08
 20
468532.19999999995
 10
213441.53532729784
 20
468531.64197106863
 10
213441.7994923863
 20
468531.5470050758
 10
213442.44
 20
468531.12
 10
213444.43488242483
 20
468530.59959588916
 10
213446.08829104327
 20
468530.0052039807
 10
213446.28
 20
468529.92
 10
213446.75999999998
 20
468529.31999999995
 10
213447.99430986895
 20
468529.31999999995
 10
213449.94786735755
 20
468528.61770611396
 10
213450.12
 20
468528.48
 10
213451.85491897096
 20
468527.93213085126
 10
213455.55876697582
 20
468526.60061651206
 10
213456.12
 20
468526.31999999995
 10
213456.61441166417
 20
468526.2211176671
 10
213457.49570150557
 20
468525.9042984944
 10
213457.68
 20
468525.72
 10
213458.6678594517
 20
468525.48291373154
 10
213462.3912574848
 20
468524.1443712576
 10
213462.84
 20
468523.92
 10
213463.16697825352
 20
468523.8655036244
 10
213464.9787033876
 20
468523.21419774153
 10
213465.0
 20
468523.19999999995
 10
213465.19844887135
 20
468523.1352003685
 10
213471.3596046758
 20
468520.92029649316
 10
213471.36
 20
468520.92
 10
213471.36059491013
 20
468520.91994050896
 10
213473.95046458225
 20
468519.9888956603
 10
213474.0
 20
468519.95999999996
 10
213474.0913341523
 20
468519.9382537732
 10
213479.11361524567
 20
468518.1327695086
 10
213479.15999999997
 20
468518.04
 10
213480.70820690534
 20
468517.55952199484
 10
213482.63999999998
 20
468516.8650522967
 10
213482.63999999998
 20
468514.19812488055
 10
213472.08
 20
468517.8987076842
 10
213472.08
 20
468517.92
 10
213471.72
 20
468518.04
 10
213471.70879168913
 20
468518.0287916891
 10
213466.85516657878
 20
468519.7296668424
 10
213466.8
 20
468519.83999999997
 10
213466.5403193761
 20
468519.83999999997
 10
213461.69017173504
 20
468521.53965652984
 10
213461.63999999998
 20
468521.63999999996
 10
213461.27287881318
 20
468521.6858901483
 10
213440.35035794004
 20
468529.0178523597
 10
213440.28
 20
468529.43999999994
 10
213439.1457155046
 20
468529.43999999994
 10
213438.9961260178
 20
468529.4924212388
 10
213438.12
 20
468530.04
 10
213438.2195061677
 20
468530.4131481289
 10
213438.8248174495
 20
468532.0086130871
 10
213439.08
 20
468532.19999999995
  0
LWPOLYLINE
  5
61
330
17
100
AcDbEntity
  8
DESCRIPTION_ERROR
100
AcDbPolyline
 90
41
 70
1
 10
213808.19999999998
 20
468683.27999999997
 10
213811.66333302172
 20
468686.3475235335
 10
213812.3553211426
 20
468686.8808091534
 10
213814.2264272552
 20
468686.421453899
 10
213815.4203028896
 20
468684.8977061073
 10
213815.6632681613
 20
468685.1067140645
 10
213815.66578788374
 20
468685.10488153907
 10
213816.5668778352
 20
468684.0003713669
 10
213811.9565539079
 20
468680.2506901975
 10
213811.2972355013
 20
468681.0697767079
 10
213811.8261318872
 20
468680.4127164912
 10
213810.8858607303
 20
468680.1276439165
 10
213812.46923392804
 20
468676.01532143896
 10
213812.52
 20
468674.99999999994
 10
213812.24750164058
 20
468674.99999999994
 10
213812.0573577065
 20
468675.4993668193
 10
213811.33553777414
 20
468677.39505139884
 10
213812.24750164055
 20
468674.99999999994
 10
213809.03999999998
 20
468674.99999999994
 10
213808.44
 20
468675.6
 10
213807.47999999998
 20
468675.72
 10
213806.87999999998
 20
468676.68
 10
213806.15999999997
 20
468676.68
 10
213805.19999999998
 20
468676.31999999995
 10
213805.19999999998
 20
468675.6
 10
213804.72
 20
468675.72
 10
213804.08061917193
 20
468676.35938082804
 10
213804.0
 20
468676.5894255066
 10
213804.0
 20
468678.72
 10
213804.13739590955
 20
468678.9947918191
 10
213804.37747794818
 20
468679.24582598265
 10
213804.59999999998
 20
468679.31999999995
 10
213804.7699719635
 20
468679.59195514163
 10
213806.3398973313
 20
468680.3049420728
 10
213805.125950595
 20
468679.7536240447
 10
213804.97950925666
 20
468679.9272148107
 10
213805.19999999998
 20
468680.27999999997
 10
213805.91999999998
 20
468680.87999999995
 10
213806.1487017572
 20
468681.56610527163
 10
213807.35316407794
 20
468682.7718984468
 10
213808.19999999998
 20
468683.27999999997
  0
LWPOLYLINE
  5
62
330
17
100
AcDbEntity
  8
DESCRIPTION_ERROR
100
AcDbPolyline
 90
25
 70
1
 10
214141.44
 20
468889.8
 10
214142.28
 20
468889.8
 10
214142.87999999998
 20
468890.87999999995
 10
214143.48201452152
 20
468890.7462189952
 10
214149.469584128
 20
468883.5877756586
 10
214149.47999999998
 20
468883.56
 10
214149.0
 20
468883.31999999995
 10
214148.75999999998
 20
468882.6
 10
214147.56
 20
468881.51999999996
 10
214146.59999999998
 20
468881.51999999996
 10
214146.12
 20
468881.16
 10
214145.63999999998
 20
468881.16
 10
214145.28
 20
468881.63999999996
 10
214144.08
 20
468881.39999999997
 10
214142.16
 20
468882.48
 10
214140.84
 20
468883.68
 10
214139.87999999998
 20
468883.68
 10
214139.52
 20
468883.92
 10
214139.51707817378
 20
468883.95214008837
 10
214139.5498998684
 20
468884.0891172321
 10
214140.4686035664
 20
468887.5909278461
 10
214140.59999999998
 20
468887.87999999995
 10
214140.72543280304
 20
468888.56988041673
 10
214140.9087933449
 20
468889.26879334485
 10
214141.44
 20
468889.8
  0
LWPOLYLINE
  5
63
330
17
100
AcDbEntity
  8
DESCRIPTION_ERROR
100
AcDbPolyline
 90
302
 70
1
 10
213995.87999999998
 20
469031.39999999997
 10
213997.56
 20
469031.63999999996
 10
214003.31999999998
 20
469031.75999999995
 10
214003.44
 20
469034.99999999994
 10
214003.56
 20
469035.95999999996
 10
214003.76857820284
 20
469036.1685782028
 10
214022.6727281876
 20
469037.15023924405
 10
214023.59999999998
 20
469037.16
 10
214023.8146652515
 20
469037.2095381349
 10
214029.7933253127
 20
469037.51999999996
 10
214031.4
 20
469037.51999999996
 10
214032.66953077845
 20
469037.66935656214
 10
214033.55204044908
 20
469037.71518382034
 10
214034.03999999998
 20
469037.51999999996
 10
214034.57323576513
 20
469036.8801170818
 10
214034.63999999998
 20
469036.8
 10
214034.60192921298
 20
469036.2670089817
 10
214034.52
 20
469035.12
 10
214034.76941910552
 20
469032.6881637212
 10
214035.0
 20
469030.43999999994
 10
214035.12103395458
 20
469025.17502297595
 10
214035.24
 20
469019.99999999994
 10
214035.400868042
 20
469019.19565978996
 10
214035.47999999998
 20
469018.8
 10
214035.72
 20
469024.8
 10
214036.19999999998
 20
469023.72
 10
214037.03999999998
 20
469022.87999999995
 10
214036.8
 20
469020.72
 10
214037.75999999998
 20
469020.48
 10
214038.72
 20
469018.92
 10
214040.36300834344
 20
469018.8287217587
 10
214040.3771936377
 20
469018.2834632224
 10
214050.29115274717
 20
469018.57769450557
 10
214050.36
 20
469018.43999999994
 10
214050.84
 20
469018.19999999995
 10
214051.08
 20
469017.12
 10
214050.47999999998
 20
469014.6
 10
214050.72
 20
469012.92
 10
214051.8
 20
469014.24
 10
214052.28
 20
469015.8
 10
214053.36
 20
469016.39999999997
 10
214053.12
 20
469016.99999999994
 10
214053.47999999998
 20
469017.36
 10
214053.72
 20
469017.36
 10
214053.72
 20
469016.27999999997
 10
214054.19999999998
 20
469015.8
 10
214054.68
 20
469015.68
 10
214055.28
 20
469016.63999999996
 10
214056.12
 20
469016.87999999995
 10
214056.47999999998
 20
469017.83999999997
 10
214056.96
 20
469017.48
 10
214057.08
 20
469016.27999999997
 10
214057.8
 20
469014.6
 10
214057.8
 20
469013.63999999996
 10
214058.16
 20
469012.56
 10
214058.52
 20
469004.63999999996
 10
214058.28
 20
469003.56
 10
214057.56
 20
469002.24
 10
214057.56
 20
469000.56
 10
214057.08
 20
468999.95999999996
 10
214056.47999999998
 20
468999.95999999996
 10
214056.36
 20
469000.31999999995
 10
214056.0
 20
469000.43999999994
 10
214055.52
 20
469001.16
 10
214055.63999999998
 20
469001.75999999995
 10
214055.4
 20
469001.75999999995
 10
214055.4
 20
469001.04
 10
214054.8
 20
469000.43999999994
 10
214054.31999999998
 20
469000.19999999995
 10
214053.0
 20
469000.19999999995
 10
214052.28
 20
468999.6
 10
214051.91999999998
 20
468998.63999999996
 10
214051.31999999998
 20
468998.75999999995
 10
214051.19999999998
 20
468998.99999999994
 10
214051.08
 20
468996.83999999997
 10
214051.22820200407
 20
468994.9627746149
 10
214051.1103663008
 20
468994.9600742195
 10
214051.44
 20
468988.4897272605
 10
214051.44
 20
468987.12
 10
214051.19999999998
 20
468986.39999999997
 10
214046.4
 20
468986.63999999996
 10
214044.24
 20
468986.27999999997
 10
214040.63999999998
 20
468986.39999999997
 10
214040.16
 20
468986.16
 10
214038.59999999998
 20
468986.16
 10
214038.36
 20
468986.87999999995
 10
214037.52
 20
468986.87999999995
 10
214037.03999999998
 20
468986.27999999997
 10
214035.59999999998
 20
468986.39999999997
 10
214035.59999999998
 20
468997.56
 10
214019.28
 20
468997.56
 10
214019.28
 20
468997.8
 10
214018.08
 20
468998.63999999996
 10
214015.31999999998
 20
468998.04
 10
214014.12
 20
468998.27999999997
 10
214013.28
 20
468998.99999999994
 10
214012.08
 20
468999.12
 10
214011.84
 20
468999.72
 10
214011.59999999998
 20
468999.48
 10
214010.87999999998
 20
468999.48
 10
214010.75999999998
 20
469000.19999999995
 10
214010.4
 20
469000.68
 10
214010.52
 20
469001.27999999997
 10
214010.87999999998
 20
469001.51999999996
 10
214010.75999999998
 20
469002.72
 10
214011.47999999998
 20
469003.56
 10
214011.36
 20
469004.04
 10
214011.84
 20
469004.27999999997
 10
214013.63999999998
 20
469004.39999999997
 10
214014.47999999998
 20
469004.87999999995
 10
214014.47999999998
 20
469005.12
 10
214013.75999999998
 20
469005.72
 10
214012.56
 20
469005.72
 10
214011.59999999998
 20
469005.12
 10
214008.47999999998
 20
469004.63999999996
 10
214007.4
 20
469003.43999999994
 10
214006.68
 20
469003.19999999995
 10
214006.56
 20
469002.24
 10
214005.96
 20
469001.99999999994
 10
214005.0
 20
469002.12
 10
214005.12
 20
469002.72
 10
214005.84
 20
469002.83999999997
 10
214005.96
 20
469003.07999999996
 10
214005.12
 20
469003.31999999995
 10
214004.75999999998
 20
469003.92
 10
214004.28
 20
469004.16
 10
214003.91999999998
 20
469003.8
 10
214003.44
 20
469003.8
 10
214003.19999999998
 20
469004.04
 10
214002.72
 20
469003.92
 10
214002.36
 20
469003.19999999995
 10
214001.63999999998
 20
469003.19999999995
 10
214001.4
 20
469002.6
 10
214001.63999999998
 20
469002.36
 10
214002.36
 20
469002.36
 10
214002.47999999998
 20
469001.75999999995
 10
214002.24
 20
469001.51999999996
 10
214001.4
 20
469001.39999999997
 10
214000.8
 20
469000.19999999995
 10
214000.31999999998
 20
468999.95999999996
 10
213999.96
 20
468997.92
 10
214000.66136160886
 20
468983.65898062004
 10
214000.5957698978
 20
468983.6557180217
 10
214000.60356927104
 20
468983.2163077259
 10
213999.96
 20
468982.68
 10
213992.03999999998
 20
468982.31999999995
 10
213991.5731410086
 20
468982.1866117167
 10
213991.4942899067
 20
468982.183095131
 10
213991.4959085636
 20
468982.16454530385
 10
213989.52
 20
468981.6
 10
213984.24
 20
468981.12
 10
213981.47999999998
 20
468981.24
 10
213980.4
 20
468980.99999999994
 10
213977.03999999998
 20
468980.99999999994
 10
213975.59999999998
 20
468980.63999999996
 10
213974.35171687347
 20
468980.7360217789
 10
213974.3051018779
 20
468981.4164951611
 10
213970.34761605793
 20
468981.24
 10
213967.91999999998
 20
468981.24
 10
213967.22331529783
 20
468981.10066305957
 10
213965.89959793963
 20
468981.04162817757
 10
213965.41910975063
 20
468981.3939861828
 10
213965.4602266823
 20
468981.9751165019
 10
213964.67296198095
 20
468981.9411612139
 10
213964.31999999998
 20
468982.19999999995
 10
213960.12
 20
468982.07999999996
 10
213957.47999999998
 20
468982.19999999995
 10
213957.0
 20
468982.43999999994
 10
213955.68
 20
468982.43999999994
 10
213955.31999999998
 20
468982.07999999996
 10
213954.12
 20
468981.83999999997
 10
213949.31999999998
 20
468981.6
 10
213948.48712746592
 20
468981.24305462826
 10
213942.3758603808
 20
468980.9794713206
 10
213941.75999999998
 20
468980.99999999994
 10
213941.16
 20
468981.36
 10
213939.59999999998
 20
468981.6
 10
213938.9411394491
 20
468980.8313293573
 10
213938.87999999998
 20
468980.75999999995
 10
213938.597467331
 20
468980.81650653377
 10
213938.28
 20
468980.87999999995
 10
213938.11105439387
 20
468980.7955271969
 10
213937.56
 20
468980.51999999996
 10
213936.84
 20
468980.51999999996
 10
213936.75855268733
 20
468980.73719283374
 10
213936.47999999998
 20
468981.48
 10
213935.63999999998
 20
468981.83999999997
 10
213934.56
 20
468980.87999999995
 10
213933.24
 20
468981.36
 10
213932.16
 20
468981.36
 10
213930.36
 20
468980.87999999995
 10
213929.28
 20
468981.48
 10
213929.28
 20
468982.56
 10
213929.03999999998
 20
468983.04
 10
213929.28
 20
468983.63999999996
 10
213929.87999999998
 20
468983.27999999997
 10
213931.19999999998
 20
468983.27999999997
 10
213931.8
 20
468983.75999999995
 10
213933.59999999998
 20
468983.99999999994
 10
213933.96
 20
468984.24
 10
213933.72
 20
468985.43999999994
 10
213932.87999999998
 20
468985.8
 10
213932.4
 20
468986.63999999996
 10
213931.44
 20
468986.51999999996
 10
213931.19999999998
 20
468986.75999999995
 10
213931.19999999998
 20
468987.36
 10
213931.56
 20
468988.07999999996
 10
213932.16
 20
468988.07999999996
 10
213933.0
 20
468987.6
 10
213933.47999999998
 20
468987.83999999997
 10
213934.31999999998
 20
468990.48
 10
213934.19999999998
 20
468990.72
 10
213933.47999999998
 20
468990.6
 10
213932.75999999998
 20
468991.07999999996
 10
213932.75999999998
 20
468991.68
 10
213933.24
 20
468992.51999999996
 10
213933.59999999998
 20
468992.87999999995
 10
213934.31999999998
 20
468992.75999999995
 10
213934.44
 20
468993.36
 10
213934.08
 20
468994.19999999995
 10
213933.59999999998
 20
468993.72
 10
213933.36
 20
468994.43999999994
 10
213932.75999999998
 20
468995.04
 10
213933.36
 20
468995.75999999995
 10
213933.12
 20
468996.36
 10
213933.72
 20
468996.48
 10
213934.08
 20
468995.99999999994
 10
213934.56
 20
468996.72
 10
213934.68
 20
468997.56
 10
213935.03999999998
 20
468997.56
 10
213935.4
 20
468999.72
 10
213934.91999999998
 20
469010.63999999996
 10
213935.52
 20
469013.04
 10
213936.84
 20
469013.75999999995
 10
213937.8
 20
469013.87999999995
 10
213940.56
 20
469013.87999999995
 10
213942.24
 20
469014.24
 10
213946.19999999998
 20
469014.24
 10
213947.52
 20
469014.48
 10
213950.52
 20
469014.36
 10
213951.47999999998
 20
469014.48
 10
213952.8
 20
469015.07999999996
 10
213952.68
 20
469015.92
 10
213953.03999999998
 20
469016.63999999996
 10
213952.56
 20
469017.12
 10
213950.28
 20
469017.36
 10
213949.44
 20
469017.83999999997
 10
213949.8
 20
469018.56
 10
213951.0
 20
469018.56
 10
213951.24
 20
469018.8
 10
213951.96
 20
469018.8
 10
213951.96
 20
469019.04
 10
213951.47999999998
 20
469019.16
 10
213951.0
 20
469019.75999999995
 10
213951.0
 20
469020.12
 10
213951.24
 20
469020.24
 10
213951.24
 20
469021.31999999995
 10
213950.75999999998
 20
469022.75999999995
 10
213950.75999999998
 20
469023.48
 10
213949.8
 20
469024.07999999996
 10
213948.96
 20
469025.04
 10
213948.84
 20
469026.24
 10
213949.44
 20
469027.07999999996
 10
213949.31999999998
 20
469027.56
 10
213951.0
 20
469028.16
 10
213951.36
 20
469028.87999999995
 10
213952.08
 20
469028.87999999995
 10
213952.8
 20
469028.51999999996
 10
213953.16
 20
469028.04
 10
213953.52
 20
469028.04
 10
213954.84
 20
469028.16
 10
213955.31999999998
 20
469028.87999999995
 10
213955.91999999998
 20
469029.12
 10
213957.84
 20
469029.12
 10
213958.68
 20
469029.24
 10
213958.91999999998
 20
469029.48
 10
213960.24
 20
469029.48
 10
213961.8
 20
469028.87999999995
 10
213961.91999999998
 20
469027.92
 10
213962.75999999998
 20
469026.6
 10
213963.24
 20
469026.6
 10
213963.84
 20
469027.68
 10
213964.44
 20
469027.56
 10
213964.8
 20
469028.04
 10
213964.68
 20
469028.27999999997
 10
213963.84
 20
469028.16
 10
213963.59999999998
 20
469028.75999999995
 10
213965.28
 20
469028.51999999996
 10
213965.63999999998
 20
469027.92
 10
213970.08
 20
469028.63999999996
 10
213970.31999999998
 20
469028.27999999997
 10
213970.19999999998
 20
469027.07999999996
 10
213970.8
 20
469026.95999999996
 10
213971.63999999998
 20
469027.43999999994
 10
213971.87999999998
 20
469027.92
 10
213971.87999999998
 20
469028.39999999997
 10
213971.52
 20
469028.75999999995
 10
213971.52
 20
469029.48
 10
213973.1540372786
 20
469030.1680156962
 10
213995.2763047694
 20
469031.1718116102
 10
213995.49123362082
 20
469031.41143430525
 10
213995.87999999998
 20
469031.39999999997
  0
LWPOLYLINE
  5
64
330
17
100
AcDbEntity
  8
DESCRIPTION_ERROR
100
AcDbPolyline
 90
7
 70
1
 10
214041.12
 20
468997.56
 10
214040.87999999998
 20
468998.39999999997
 10
214039.68
 20
468999.12
 10
214036.56
 20
468998.75999999995
 10
214035.59999999998
 20
468999.12
 10
214035.59999999998
 20
468997.56
 10
214041.12
 20
468997.56
  0
LWPOLYLINE
  5
65
330
17
100
AcDbEntity
  8
DESCRIPTION_ERROR
100
AcDbPolyline
 90
5
 70
1
 10
213957.96
 20
469025.87999999995
 10
213958.19999999998
 20
469025.87999999995
 10
213958.19999999998
 20
469026.24
 10
213957.96
 20
469026.24
 10
213957.96
 20
469025.87999999995
  0
LWPOLYLINE
  5
66
330
17
100
AcDbEntity
  8
DESCRIPTION_ERROR
100
AcDbPolyline
 90
15
 70
1
 10
213953.87999999998
 20
469024.43999999994
 10
213953.28
 20
469024.92
 10
213953.03999999998
 20
469024.31999999995
 10
213953.16
 20
469020.48
 10
213954.36
 20
469020.72
 10
213954.47999999998
 20
469020.48
 10
213955.19999999998
 20
469020.48
 10
213955.31999999998
 20
469020.72
 10
213955.44
 20
469022.75999999995
 10
213955.08
 20
469024.31999999995
 10
213955.56
 20
469024.8
 10
213955.19999999998
 20
469024.8
 10
213954.96
 20
469025.27999999997
 10
213954.59999999998
 20
469025.27999999997
 10
213953.87999999998
 20
469024.43999999994
  0
LWPOLYLINE
  5
67
330
17
100
AcDbEntity
  8
DESCRIPTION_ERROR
100
AcDbPolyline
 90
5
 70
1
 10
213956.52
 20
469024.31999999995
 10
213957.0
 20
469024.56
 10
213956.87999999998
 20
469024.92
 10
213955.8
 20
469024.68
 10
213956.52
 20
469024.31999999995
  0
LWPOLYLINE
  5
68
330
17
100
AcDbEntity
  8
DESCRIPTION_ERROR
100
AcDbPolyline
 90
5
 70
1
 10
213980.4
 20
469022.99999999994
 10
213980.75999999998
 20
469022.75999999995
 10
213981.0
 20
469023.83999999997
 10
213980.52
 20
469024.19999999995
 10
213980.4
 20
469022.99999999994
  0
LWPOLYLINE
  5
69
330
17
100
AcDbEntity
  8
DESCRIPTION_ERROR
100
AcDbPolyline
 90
5
 70
1
 10
213981.47999999998
 20
469023.24
 10
213982.08
 20
469022.51999999996
 10
213982.08
 20
469023.72
 10
213981.36
 20
469023.83999999997
 10
213981.47999999998
 20
469023.24
  0
LWPOLYLINE
  5
6A
330
17
100
AcDbEntity
  8
DESCRIPTION_ERROR
100
AcDbPolyline
 90
75
 70
1
 10
213973.56
 20
469018.56
 10
213973.8
 20
469014.6
 10
213973.44
 20
469013.63999999996
 10
213972.96
 20
469013.63999999996
 10
213972.96
 20
469013.16
 10
213972.36
 20
469012.92
 10
213971.63999999998
 20
469011.12
 10
213970.8
 20
469011.6
 10
213970.68
 20
469012.8
 10
213970.31999999998
 20
469013.16
 10
213970.31999999998
 20
469014.36
 10
213970.08
 20
469014.6
 10
213969.47999999998
 20
469014.6
 10
213969.36
 20
469015.43999999994
 10
213968.75999999998
 20
469015.92
 10
213968.03999999998
 20
469015.92
 10
213967.68
 20
469015.68
 10
213967.44
 20
469016.16
 10
213966.84
 20
469016.51999999996
 10
213964.44
 20
469016.39999999997
 10
213964.08
 20
469016.63999999996
 10
213962.63999999998
 20
469016.75999999995
 10
213960.96
 20
469016.39999999997
 10
213960.59999999998
 20
469016.63999999996
 10
213957.59999999998
 20
469016.63999999996
 10
213956.63999999998
 20
469017.48
 10
213956.4
 20
469016.51999999996
 10
213956.63999999998
 20
469016.27999999997
 10
213957.84
 20
469016.51999999996
 10
213958.91999999998
 20
469015.68
 10
213958.19999999998
 20
469015.31999999995
 10
213958.08
 20
469014.95999999996
 10
213956.87999999998
 20
469014.6
 10
213956.87999999998
 20
469014.12
 10
213957.24
 20
469013.75999999995
 10
213957.0
 20
469013.16
 10
213957.72
 20
469012.68
 10
213958.31999999998
 20
469011.72
 10
213959.28
 20
469011.72
 10
213959.75999999998
 20
469012.07999999996
 10
213960.36
 20
469012.07999999996
 10
213961.44
 20
469011.6
 10
213962.03999999998
 20
469008.6
 10
213962.03999999998
 20
469006.68
 10
213962.28
 20
469006.56
 10
213965.28
 20
469006.56
 10
213967.44
 20
469006.92
 10
213968.03999999998
 20
469007.39999999997
 10
213968.87999999998
 20
469007.27999999997
 10
213969.47999999998
 20
469006.92
 10
213970.68
 20
469006.92
 10
213971.52
 20
469007.39999999997
 10
213971.52
 20
469008.36
 10
213972.59999999998
 20
469008.24
 10
213972.96
 20
469008.6
 10
213973.44
 20
469008.6
 10
213973.8
 20
469008.36
 10
213973.68
 20
469007.87999999995
 10
213974.16
 20
469007.75999999995
 10
213975.12
 20
469007.87999999995
 10
213974.63999999998
 20
469008.36
 10
213975.36
 20
469008.48
 10
213976.19999999998
 20
469009.07999999996
 10
213978.36
 20
469008.95999999996
 10
213978.72
 20
469009.31999999995
 10
213978.72
 20
469010.04
 10
213978.47999999998
 20
469012.19999999995
 10
213978.24
 20
469012.56
 10
213978.24
 20
469013.87999999995
 10
213977.63999999998
 20
469016.39999999997
 10
213977.03999999998
 20
469017.24
 10
213976.8
 20
469018.07999999996
 10
213976.31999999998
 20
469018.43999999994
 10
213973.91999999998
 20
469018.8
 10
213973.56
 20
469018.56
  0
LWPOLYLINE
  5
6B
330
17
100
AcDbEntity
  8
DESCRIPTION_ERROR
100
AcDbPolyline
 90
5
 70
1
 10
213988.8
 20
469016.27999999997
 10
213989.28
 20
469015.92
 10
213989.4
 20
469016.63999999996
 10
213988.91999999998
 20
469016.63999999996
 10
213988.8
 20
469016.27999999997
  0
LWPOLYLINE
  5
6C
330
17
100
AcDbEntity
  8
DESCRIPTION_ERROR
100
AcDbPolyline
 90
31
 70
1
 10
213988.44
 20
469014.72
 10
213988.19999999998
 20
469013.99999999994
 10
213986.63999999998
 20
469013.63999999996
 10
213986.28
 20
469013.27999999997
 10
213986.52
 20
469013.04
 10
213988.08
 20
469012.8
 10
213988.19999999998
 20
469012.56
 10
213987.72
 20
469012.07999999996
 10
213985.68
 20
469011.95999999996
 10
213985.31999999998
 20
469011.72
 10
213985.08
 20
469010.87999999995
 10
213984.59999999998
 20
469010.39999999997
 10
213984.59999999998
 20
469009.8
 10
213985.08
 20
469009.43999999994
 10
213984.96
 20
469009.07999999996
 10
213983.75999999998
 20
469008.83999999997
 10
213981.59999999998
 20
469009.07999999996
 10
213980.16
 20
469008.95999999996
 10
213980.16
 20
469008.36
 10
213979.56
 20
469007.87999999995
 10
213979.56
 20
469007.39999999997
 10
213980.52
 20
469007.39999999997
 10
213981.59999999998
 20
469007.87999999995
 10
213983.16
 20
469007.75999999995
 10
213984.24
 20
469007.39999999997
 10
213986.16
 20
469007.39999999997
 10
213987.59999999998
 20
469007.75999999995
 10
213989.52
 20
469007.63999999996
 10
213989.52
 20
469014.83999999997
 10
213989.16
 20
469015.07999999996
 10
213988.44
 20
469014.72
  0
LWPOLYLINE
  5
6D
330
17
100
AcDbEntity
  8
DESCRIPTION_ERROR
100
AcDbPolyline
 90
6
 70
1
 10
214025.4
 20
469006.43999999994
 10
214026.47999999998
 20
469006.19999999995
 10
214026.84
 20
469006.43999999994
 10
214026.72
 20
469006.92
 10
214025.75999999998
 20
469006.92
 10
214025.4
 20
469006.43999999994
  0
LWPOLYLINE
  5
6E
330
17
100
AcDbEntity
  8
DESCRIPTION_ERROR
100
AcDbPolyline
 90
5
 70
1
 10
214039.91999999998
 20
469000.8
 10
214040.28
 20
469000.92
 10
214040.28
 20
469001.27999999997
 10
214039.56
 20
469001.27999999997
 10
214039.91999999998
 20
469000.8
  0
LWPOLYLINE
  5
6F
330
17
100
AcDbEntity
  8
DESCRIPTION_ERROR
100
AcDbPolyline
 90
12
 70
1
 10
214032.59999999998
 20
468999.83999999997
 10
214031.52
 20
468999.95999999996
 10
214031.28
 20
468999.72
 10
214031.4
 20
468998.87999999995
 10
214031.63999999998
 20
468998.75999999995
 10
214032.59999999998
 20
468999.48
 10
214033.44
 20
468998.75999999995
 10
214033.68
 20
468999.36
 10
214034.03999999998
 20
468999.6
 10
214034.03999999998
 20
468999.95999999996
 10
214033.08
 20
469000.19999999995
 10
214032.59999999998
 20
468999.83999999997
  0
LWPOLYLINE
  5
70
330
17
100
AcDbEntity
  8
DESCRIPTION_ERROR
100
AcDbPolyline
 90
50
 70
1
 10
213936.12
 20
468974.39999999997
 10
213936.72
 20
468972.95999999996
 10
213936.84
 20
468969.72
 10
213937.19999999998
 20
468967.8
 10
213937.19999999998
 20
468965.39999999997
 10
213937.31999999998
 20
468964.43999999994
 10
213937.68
 20
468963.83999999997
 10
213937.68
 20
468961.31999999995
 10
213938.03999999998
 20
468960.12
 10
213938.03999999998
 20
468957.95999999996
 10
213937.56
 20
468956.75999999995
 10
213937.44
 20
468954.6
 10
213937.08
 20
468954.24
 10
213929.4
 20
468953.27999999997
 10
213927.0
 20
468953.27999999997
 10
213925.19999999998
 20
468952.92
 10
213921.72
 20
468953.16
 10
213921.24
 20
468952.92
 10
213919.68
 20
468952.92
 10
213919.31999999998
 20
468952.56
 10
213918.72
 20
468952.68
 10
213918.24
 20
468953.51999999996
 10
213918.24
 20
468954.83999999997
 10
213917.75999999998
 20
468957.48
 10
213917.87999999998
 20
468960.72
 10
213917.28
 20
468962.39999999997
 10
213917.28
 20
468963.72
 10
213917.75999999998
 20
468965.16
 10
213917.63999999998
 20
468969.83999999997
 10
213918.0
 20
468971.75999999995
 10
213918.24
 20
468971.99999999994
 10
213920.16
 20
468972.12
 10
213921.96
 20
468972.72
 10
213923.16
 20
468972.72
 10
213924.36
 20
468973.8
 10
213925.19999999998
 20
468973.8
 10
213926.28
 20
468973.43999999994
 10
213927.24
 20
468973.68
 10
213927.59999999998
 20
468973.31999999995
 10
213927.96
 20
468973.31999999995
 10
213928.31999999998
 20
468974.04
 10
213928.91999999998
 20
468974.16
 10
213930.24
 20
468973.92
 10
213930.59999999998
 20
468973.43999999994
 10
213931.8
 20
468973.07999999996
 10
213932.28
 20
468974.16
 10
213933.24
 20
468974.04
 10
213933.47999999998
 20
468974.39999999997
 10
213934.31999999998
 20
468974.63999999996
 10
213936.12
 20
468974.39999999997
  0
LWPOLYLINE
  5
71
330
17
100
AcDbEntity
  8
DESCRIPTION_ERROR
100
AcDbPolyline
 90
76
 70
1
 10
213827.03999999998
 20
468968.16
 10
213828.24
 20
468968.39999999997
 10
213827.4
 20
468968.87999999995
 10
213827.87999999998
 20
468969.48
 10
213828.0
 20
468970.07999999996
 10
213827.87999999998
 20
468971.87999999995
 10
213828.36
 20
468972.24
 10
213829.68
 20
468972.12
 10
213829.8
 20
468972.36
 10
213830.63999999998
 20
468971.99999999994
 10
213830.52
 20
468971.27999999997
 10
213830.75999999998
 20
468970.92
 10
213831.24
 20
468971.16
 10
213831.36
 20
468971.99999999994
 10
213831.84
 20
468968.51999999996
 10
213832.08
 20
468968.27999999997
 10
213835.31999999998
 20
468968.39999999997
 10
213835.91999999998
 20
468969.12
 10
213836.03999999998
 20
468970.8
 10
213836.52
 20
468971.04
 10
213842.4
 20
468971.27999999997
 10
213842.63999999998
 20
468971.04
 10
213842.75999999998
 20
468968.75999999995
 10
213844.8
 20
468968.87999999995
 10
213845.63999999998
 20
468969.36
 10
213846.72
 20
468969.24
 10
213848.4
 20
468969.6
 10
213849.72
 20
468969.48
 10
213851.28
 20
468969.83999999997
 10
213851.28
 20
468964.43999999994
 10
213851.75999999998
 20
468964.8
 10
213852.72
 20
468964.68
 10
213853.31999999998
 20
468963.95999999996
 10
213853.56
 20
468962.63999999996
 10
213853.08
 20
468961.31999999995
 10
213852.12
 20
468960.83999999997
 10
213852.0
 20
468960.48
 10
213851.28
 20
468960.24
 10
213851.28
 20
468951.48
 10
213897.36
 20
468951.48
 10
213897.36
 20
468950.9676896441
 10
213885.7973831906
 20
468950.4389122713
 10
213885.82400573432
 20
468949.84800430073
 10
213885.62500856665
 20
468949.698756425
 10
213884.71719472733
 20
468949.6584681641
 10
213880.68
 20
468949.56
 10
213880.4007158765
 20
468949.4669052921
 10
213878.056762519
 20
468949.3628819777
 10
213878.05884057772
 20
468949.31999999995
 10
213866.28
 20
468949.31999999995
 10
213864.72
 20
468948.83999999997
 10
213861.0
 20
468949.07999999996
 10
213860.65147082007
 20
468949.2542645899
 10
213860.6457428571
 20
468949.3490677077
 10
213860.47875809256
 20
468949.34062095365
 10
213860.28
 20
468949.43999999994
 10
213856.56
 20
468949.43999999994
 10
213855.0
 20
468949.07999999996
 10
213853.56
 20
468949.07999999996
 10
213852.59999999998
 20
468949.31999999995
 10
213851.87999999998
 20
468949.8
 10
213850.91999999998
 20
468948.95999999996
 10
213843.72
 20
468948.83999999997
 10
213842.28
 20
468949.31999999995
 10
213840.72
 20
468948.72
 10
213838.44
 20
468948.6
 10
213836.4141926576
 20
468948.1233394488
 10
213836.27355915023
 20
468948.1162256463
 10
213828.36
 20
468947.87999999995
 10
213827.8075391989
 20
468948.4324608011
 10
213827.75999999998
 20
468949.5803504355
 10
213827.75999999998
 20
468951.48
 10
213827.68132708946
 20
468951.48
 10
213827.0061760684
 20
468967.7823121257
 10
213826.86400044587
 20
468967.77280098095
 10
213827.03999999998
 20
468968.16
  0
LWPOLYLINE
  5
72
330
17
100
AcDbEntity
  8
DESCRIPTION_ERROR
100
AcDbPolyline
 90
7
 70
1
 10
213828.84
 20
468968.39999999997
 10
213829.44
 20
468967.92
 10
213830.15999999997
 20
468967.92
 10
213830.63999999998
 20
468968.27999999997
 10
213830.52
 20
468968.63999999996
 10
213829.44
 20
468968.63999999996
 10
213828.84
 20
468968.39999999997
  0
LWPOLYLINE
  5
73
330
17
100
AcDbEntity
  8
DESCRIPTION_ERROR
100
AcDbPolyline
 90
4
 70
1
 10
213851.52
 20
468963.72
 10
213851.52
 20
468963.83999999997
 10
213851.4
 20
468963.72
 10
213851.52
 20
468963.72
  0
LWPOLYLINE
  5
74
330
17
100
AcDbEntity
  8
DESCRIPTION_ERROR
100
AcDbPolyline
 90
5
 70
1
 10
213837.84
 20
468951.48
 10
213845.28
 20
468951.6
 10
213845.28
 20
468951.83999999997
 10
213837.84
 20
468951.72
 10
213837.84
 20
468951.48
  0
LWPOLYLINE
  5
75
330
17
100
AcDbEntity
  8
DESCRIPTION_ERROR
100
AcDbPolyline
 90
121
 70
1
 10
213874.31999999998
 20
468979.8
 10
213875.52
 20
468979.07999999996
 10
213876.0
 20
468978.6
 10
213876.12
 20
468977.63999999996
 10
213876.84
 20
468977.04
 10
213877.19999999998
 20
468977.04
 10
213877.91999999998
 20
468977.63999999996
 10
213877.8
 20
468978.12
 10
213878.03999999998
 20
468978.36
 10
213878.4
 20
468978.12
 10
213878.16
 20
468977.75999999995
 10
213878.28
 20
468977.51999999996
 10
213879.72
 20
468977.16
 10
213880.8
 20
468975.95999999996
 10
213880.56
 20
468974.75999999995
 10
213881.28
 20
468973.68
 10
213881.16
 20
468971.27999999997
 10
213880.8
 20
468970.31999999995
 10
213880.31999999998
 20
468969.83999999997
 10
213879.47999999998
 20
468969.72
 10
213878.63999999998
 20
468968.51999999996
 10
213878.75999999998
 20
468967.07999999996
 10
213879.24
 20
468966.36
 10
213879.96
 20
468966.83999999997
 10
213880.44
 20
468966.24
 10
213879.96
 20
468964.56
 10
213880.31999999998
 20
468964.43999999994
 10
213880.68
 20
468963.6
 10
213879.24
 20
468960.12
 10
213879.36
 20
468957.6
 10
213880.08
 20
468956.99999999994
 10
213880.08
 20
468956.39999999997
 10
213879.59999999998
 20
468956.04
 10
213879.72
 20
468955.56
 10
213878.87999999998
 20
468955.07999999996
 10
213876.96
 20
468955.19999999995
 10
213876.12
 20
468954.83999999997
 10
213875.4
 20
468954.83999999997
 10
213874.19999999998
 20
468955.07999999996
 10
213871.19999999998
 20
468955.07999999996
 10
213869.4
 20
468954.36
 10
213867.72
 20
468954.12
 10
213866.52
 20
468954.24
 10
213866.28
 20
468954.36
 10
213866.03999999998
 20
468955.56
 10
213864.96
 20
468956.04
 10
213865.31999999998
 20
468958.43999999994
 10
213865.56
 20
468958.56
 10
213865.91999999998
 20
468957.36
 10
213866.4
 20
468956.99999999994
 10
213866.52
 20
468958.68
 10
213866.75999999998
 20
468958.92
 10
213866.75999999998
 20
468959.51999999996
 10
213865.31999999998
 20
468959.63999999996
 10
213864.96
 20
468960.24
 10
213865.08
 20
468960.95999999996
 10
213865.68
 20
468961.31999999995
 10
213865.91999999998
 20
468961.92
 10
213865.91999999998
 20
468962.87999999995
 10
213865.56
 20
468963.24
 10
213865.68
 20
468963.72
 10
213865.19999999998
 20
468964.31999999995
 10
213866.28
 20
468965.16
 10
213866.4
 20
468965.75999999995
 10
213865.91999999998
 20
468966.12
 10
213866.4
 20
468966.24
 10
213866.87999999998
 20
468965.99999999994
 10
213867.47999999998
 20
468964.43999999994
 10
213867.72
 20
468960.36
 10
213868.8
 20
468960.6
 10
213869.52
 20
468959.51999999996
 10
213869.87999999998
 20
468959.51999999996
 10
213870.12
 20
468959.87999999995
 10
213871.19999999998
 20
468959.63999999996
 10
213871.31999999998
 20
468960.48
 10
213870.96
 20
468960.83999999997
 10
213871.91999999998
 20
468961.68
 10
213873.36
 20
468961.68
 10
213874.68
 20
468962.39999999997
 10
213875.52
 20
468962.51999999996
 10
213875.75999999998
 20
468962.75999999995
 10
213875.63999999998
 20
468964.68
 10
213875.15999999997
 20
468965.39999999997
 10
213874.44
 20
468965.27999999997
 10
213873.72
 20
468966.24
 10
213873.12
 20
468966.24
 10
213872.03999999998
 20
468967.56
 10
213872.03999999998
 20
468967.92
 10
213871.44
 20
468968.39999999997
 10
213870.36
 20
468968.75999999995
 10
213869.63999999998
 20
468969.48
 10
213869.4
 20
468970.07999999996
 10
213868.31999999998
 20
468970.07999999996
 10
213867.96
 20
468970.43999999994
 10
213867.96
 20
468971.04
 10
213867.72
 20
468971.04
 10
213867.72
 20
468970.56
 10
213867.24
 20
468969.95999999996
 10
213867.24
 20
468968.99999999994
 10
213866.63999999998
 20
468968.75999999995
 10
213865.19999999998
 20
468970.31999999995
 10
213864.96
 20
468972.48
 10
213864.0
 20
468972.72
 10
213863.87999999998
 20
468973.07999999996
 10
213864.0
 20
468973.43999999994
 10
213864.47999999998
 20
468973.43999999994
 10
213865.08
 20
468973.8
 10
213866.75999999998
 20
468975.83999999997
 10
213867.84
 20
468975.83999999997
 10
213869.52
 20
468976.31999999995
 10
213870.59999999998
 20
468976.07999999996
 10
213871.08
 20
468976.19999999995
 10
213871.44
 20
468976.8
 10
213870.96
 20
468977.04
 10
213870.84
 20
468977.63999999996
 10
213871.08
 20
468977.99999999994
 10
213871.68
 20
468978.24
 10
213871.91999999998
 20
468979.19999999995
 10
213873.36
 20
468979.43999999994
 10
213873.72
 20
468979.8
 10
213874.31999999998
 20
468979.8
  0
LWPOLYLINE
  5
76
330
17
100
AcDbEntity
  8
DESCRIPTION_ERROR
100
AcDbPolyline
 90
18
 70
1
 10
213876.96
 20
468973.07999999996
 10
213876.84
 20
468971.75999999995
 10
213876.47999999998
 20
468971.16
 10
213876.24
 20
468970.92
 10
213875.52
 20
468970.92
 10
213875.03999999998
 20
468970.43999999994
 10
213875.03999999998
 20
468969.24
 10
213875.4
 20
468968.75999999995
 10
213876.24
 20
468968.99999999994
 10
213876.36
 20
468970.07999999996
 10
213876.84
 20
468969.83999999997
 10
213876.96
 20
468968.99999999994
 10
213877.31999999998
 20
468968.63999999996
 10
213877.68
 20
468968.87999999995
 10
213877.68
 20
468972.95999999996
 10
213877.56
 20
468973.68
 10
213877.31999999998
 20
468973.8
 10
213876.96
 20
468973.07999999996
  0
LWPOLYLINE
  5
77
330
17
100
AcDbEntity
  8
DESCRIPTION_ERROR
100
AcDbPolyline
 90
4
 70
1
 10
213869.28
 20
468970.8
 10
213869.28
 20
468971.04
 10
213869.15999999997
 20
468970.8
 10
213869.28
 20
468970.8
  0
LWPOLYLINE
  5
78
330
17
100
AcDbEntity
  8
DESCRIPTION_ERROR
100
AcDbPolyline
 90
8
 70
1
 10
213872.28
 20
468956.99999999994
 10
213872.63999999998
 20
468956.16
 10
213873.59999999998
 20
468956.04
 10
213874.08
 20
468956.27999999997
 10
213874.08
 20
468957.24
 10
213873.24
 20
468958.19999999995
 10
213872.63999999998
 20
468958.31999999995
 10
213872.28
 20
468956.99999999994
  0
LWPOLYLINE
  5
79
330
17
100
AcDbEntity
  8
DESCRIPTION_ERROR
100
AcDbPolyline
 90
27
 70
1
 10
213876.96
 20
469005.36
 10
213878.16
 20
469005.36
 10
213879.36
 20
469005.72
 10
213880.68
 20
469005.72
 10
213881.03999999998
 20
469005.24
 10
213881.28
 20
469003.31999999995
 10
213881.28
 20
468999.24
 10
213881.63999999998
 20
468997.56
 10
213881.4
 20
468997.56
 10
213881.4
 20
468994.68
 10
213881.03999999998
 20
468993.95999999996
 10
213880.31999999998
 20
468993.95999999996
 10
213879.72
 20
468994.92
 10
213879.59999999998
 20
468994.43999999994
 10
213878.87999999998
 20
468993.83999999997
 10
213878.63999999998
 20
468994.92
 10
213877.91999999998
 20
468995.27999999997
 10
213877.31999999998
 20
468994.92
 10
213876.47999999998
 20
468996.36
 10
213876.24
 20
468996.12
 10
213875.87999999998
 20
468996.24
 10
213875.63999999998
 20
468997.56
 10
213875.15999999997
 20
468997.56
 10
213875.15999999997
 20
469004.87999999995
 10
213875.4
 20
469005.36
 10
213876.0
 20
469005.72
 10
213876.96
 20
469005.36
  0
LWPOLYLINE
  5
7A
330
17
100
AcDbEntity
  8
DESCRIPTION_ERROR
100
AcDbPolyline
 90
6
 70
1
 10
213879.36
 20
468996.12
 10
213879.84
 20
468995.63999999996
 10
213880.19999999998
 20
468996.48
 10
213879.96
 20
468997.56
 10
213879.59999999998
 20
468997.56
 10
213879.36
 20
468996.12
  0
LWPOLYLINE
  5
7B
330
17
100
AcDbEntity
  8
DESCRIPTION_ERROR
100
AcDbPolyline
 90
253
 70
1
 10
213842.15999999997
 20
469026.95999999996
 10
213842.83684606414
 20
469027.0830629207
 10
213857.14474812528
 20
469027.7464337117
 10
213860.4
 20
469027.68
 10
213865.91999999998
 20
469028.04
 10
213867.96
 20
469027.31999999995
 10
213868.31999999998
 20
469025.99999999994
 10
213868.91999999998
 20
469025.39999999997
 10
213869.28
 20
469025.27999999997
 10
213869.63999999998
 20
469025.75999999995
 10
213870.0
 20
469025.75999999995
 10
213870.59999999998
 20
469025.27999999997
 10
213870.96
 20
469025.27999999997
 10
213870.84
 20
469025.04
 10
213868.44
 20
469025.04
 10
213867.72
 20
469024.68
 10
213867.24
 20
469023.83999999997
 10
213867.72
 20
469022.51999999996
 10
213867.47999999998
 20
469021.43999999994
 10
213867.59999999998
 20
469020.72
 10
213868.31999999998
 20
469019.87999999995
 10
213868.31999999998
 20
469018.92
 10
213867.96
 20
469018.31999999995
 10
213868.31999999998
 20
469017.83999999997
 10
213870.0
 20
469017.12
 10
213869.75999999998
 20
469015.56
 10
213870.24
 20
469015.19999999995
 10
213870.84
 20
469015.19999999995
 10
213871.56
 20
469015.68
 10
213872.63999999998
 20
469015.43999999994
 10
213874.56
 20
469015.92
 10
213874.8
 20
469016.27999999997
 10
213874.8
 20
469017.12
 10
213875.4
 20
469017.72
 10
213876.47999999998
 20
469017.95999999996
 10
213877.08
 20
469018.68
 10
213877.68
 20
469018.92
 10
213878.16
 20
469019.39999999997
 10
213878.28
 20
469019.99999999994
 10
213879.12
 20
469019.87999999995
 10
213879.24
 20
469018.92
 10
213879.59999999998
 20
469019.27999999997
 10
213880.31999999998
 20
469019.27999999997
 10
213880.8
 20
469019.75999999995
 10
213882.24
 20
469019.75999999995
 10
213882.72
 20
469020.24
 10
213882.84
 20
469024.56
 10
213883.49762754745
 20
469025.4368367299
 10
213887.23244043518
 20
469025.6279265941
 10
213887.87999999998
 20
469025.51999999996
 10
213888.82774881256
 20
469025.7095497625
 10
213890.48562577806
 20
469025.7943742219
 10
213890.75999999998
 20
469025.51999999996
 10
213892.19999999998
 20
469025.27999999997
 10
213896.03999999998
 20
469025.39999999997
 10
213896.52
 20
469025.16
 10
213897.36
 20
469025.16
 10
213897.36
 20
469015.19999999995
 10
213898.68
 20
469015.68
 10
213900.96
 20
469015.43999999994
 10
213901.8
 20
469015.92
 10
213902.63999999998
 20
469015.92
 10
213902.63999999998
 20
469016.16
 10
213901.56
 20
469016.16
 10
213900.72
 20
469016.63999999996
 10
213899.28
 20
469016.63999999996
 10
213898.56
 20
469016.87999999995
 10
213898.56
 20
469017.12
 10
213899.03999999998
 20
469017.24
 10
213899.28
 20
469017.72
 10
213899.03999999998
 20
469018.43999999994
 10
213900.59999999998
 20
469019.27999999997
 10
213900.0
 20
469020.12
 10
213899.4
 20
469020.36
 10
213898.8
 20
469021.07999999996
 10
213898.8
 20
469021.92
 10
213899.4
 20
469022.63999999996
 10
213899.52
 20
469023.48
 10
213900.0
 20
469023.72
 10
213900.47999999998
 20
469024.68
 10
213901.56
 20
469025.04
 10
213902.4
 20
469024.68
 10
213902.28
 20
469024.19999999995
 10
213902.63999999998
 20
469023.72
 10
213903.36
 20
469023.6
 10
213903.72
 20
469023.24
 10
213904.19999999998
 20
469022.51999999996
 10
213904.31999999998
 20
469021.68
 10
213904.68
 20
469021.56
 10
213905.03999999998
 20
469020.95999999996
 10
213905.03999999998
 20
469018.31999999995
 10
213905.4
 20
469016.87999999995
 10
213904.91999999998
 20
469016.27999999997
 10
213904.44
 20
469016.16
 10
213904.44
 20
469015.92
 10
213904.91999999998
 20
469015.68
 10
213906.24
 20
469015.68
 10
213907.56
 20
469015.92
 10
213908.87999999998
 20
469014.95999999996
 10
213909.12
 20
469013.99999999994
 10
213908.28
 20
469013.63999999996
 10
213907.19999999998
 20
469012.43999999994
 10
213907.44
 20
469011.48
 10
213907.31999999998
 20
469010.27999999997
 10
213906.59999999998
 20
469010.27999999997
 10
213906.36
 20
469010.04
 10
213905.16
 20
469009.8
 10
213904.56
 20
469008.24
 10
213904.19999999998
 20
469007.99999999994
 10
213903.96
 20
469007.16
 10
213903.47999999998
 20
469006.56
 10
213902.75999999998
 20
469006.31999999995
 10
213902.52
 20
469006.56
 10
213902.03999999998
 20
469006.56
 10
213901.91999999998
 20
469005.83999999997
 10
213901.44
 20
469005.36
 10
213900.72
 20
469004.99999999994
 10
213899.87999999998
 20
469004.99999999994
 10
213898.56
 20
469005.95999999996
 10
213898.19999999998
 20
469006.68
 10
213897.36
 20
469006.68
 10
213897.36
 20
468997.56
 10
213889.08
 20
468997.56
 10
213889.08
 20
468999.24
 10
213889.8
 20
468999.6
 10
213890.4
 20
468999.6
 10
213890.75999999998
 20
468999.24
 10
213892.31999999998
 20
468999.48
 10
213892.8
 20
469000.07999999996
 10
213892.8
 20
469000.68
 10
213892.19999999998
 20
469001.39999999997
 10
213889.91999999998
 20
469001.51999999996
 10
213889.19999999998
 20
469003.56
 10
213888.0
 20
469003.8
 10
213887.03999999998
 20
469004.75999999995
 10
213886.08
 20
469004.87999999995
 10
213885.59999999998
 20
469003.8
 10
213885.0
 20
469004.04
 10
213885.12
 20
469005.6
 10
213885.59999999998
 20
469006.19999999995
 10
213886.08
 20
469006.19999999995
 10
213886.08
 20
469006.8
 10
213885.47999999998
 20
469006.56
 10
213885.0
 20
469007.04
 10
213885.0
 20
469011.12
 10
213883.68
 20
469013.04
 10
213882.72
 20
469013.39999999997
 10
213882.36
 20
469014.12
 10
213881.52
 20
469013.87999999995
 10
213881.4
 20
469013.39999999997
 10
213881.16
 20
469013.39999999997
 10
213879.96
 20
469015.68
 10
213879.47999999998
 20
469015.56
 10
213879.84
 20
469014.24
 10
213879.24
 20
469013.16
 10
213878.28
 20
469013.16
 10
213878.03999999998
 20
469014.12
 10
213877.8
 20
469014.12
 10
213877.8
 20
469013.16
 10
213877.56
 20
469012.92
 10
213876.47999999998
 20
469013.16
 10
213875.52
 20
469012.92
 10
213875.03999999998
 20
469012.43999999994
 10
213874.44
 20
469012.56
 10
213873.84
 20
469011.83999999997
 10
213873.0
 20
469012.07999999996
 10
213873.24
 20
469012.8
 10
213872.87999999998
 20
469013.04
 10
213872.87999999998
 20
469013.75999999995
 10
213873.12
 20
469013.75999999995
 10
213873.24
 20
469014.12
 10
213872.52
 20
469014.36
 10
213872.28
 20
469014.83999999997
 10
213870.96
 20
469013.87999999995
 10
213870.24
 20
469013.87999999995
 10
213869.15999999997
 20
469014.36
 10
213868.8
 20
469013.87999999995
 10
213868.8
 20
469013.27999999997
 10
213869.15999999997
 20
469012.56
 10
213869.15999999997
 20
469011.95999999996
 10
213868.44
 20
469009.92
 10
213868.08
 20
469009.68
 10
213866.03999999998
 20
469009.8
 10
213864.36
 20
469008.95999999996
 10
213863.87999999998
 20
469008.48
 10
213863.4
 20
469006.31999999995
 10
213861.36
 20
469006.43999999994
 10
213860.28
 20
469006.07999999996
 10
213859.8
 20
469005.12
 10
213860.15999999997
 20
469004.51999999996
 10
213860.15999999997
 20
469003.92
 10
213859.68
 20
469003.19999999995
 10
213858.96
 20
469003.07999999996
 10
213858.96
 20
469002.6
 10
213857.63999999998
 20
469002.95999999996
 10
213857.52
 20
469003.92
 10
213856.91999999998
 20
469004.51999999996
 10
213855.36
 20
469004.39999999997
 10
213854.28
 20
469003.07999999996
 10
213853.8
 20
469002.83999999997
 10
213851.75999999998
 20
469002.72
 10
213851.28
 20
469002.95999999996
 10
213851.28
 20
468999.72
 10
213851.63999999998
 20
468999.36
 10
213852.72
 20
468998.99999999994
 10
213852.84
 20
468997.8
 10
213853.08
 20
468997.56
 10
213827.75999999998
 20
468997.56
 10
213828.24
 20
468996.95999999996
 10
213828.47999999998
 20
468992.51999999996
 10
213828.84
 20
468990.36
 10
213829.08
 20
468981.83999999997
 10
213828.72
 20
468981.6
 10
213825.0
 20
468981.6
 10
213823.44
 20
468981.24
 10
213821.829962862
 20
468981.5850079581
 10
213821.06935222217
 20
468997.20892037026
 10
213821.28
 20
468997.56
 10
213821.0522607988
 20
468997.56
 10
213821.03173135305
 20
468997.98170099326
 10
213820.91999999998
 20
469003.68
 10
213821.28
 20
469004.63999999996
 10
213822.24
 20
469004.75999999995
 10
213822.72
 20
469004.51999999996
 10
213823.44
 20
469005.24
 10
213823.91999999998
 20
469007.99999999994
 10
213823.68
 20
469009.19999999995
 10
213823.8
 20
469010.51999999996
 10
213823.31999999998
 20
469012.07999999996
 10
213823.19999999998
 20
469014.95999999996
 10
213822.84
 20
469016.51999999996
 10
213822.84
 20
469022.9845205236
 10
213825.35906510596
 20
469023.26005193853
 10
213825.72
 20
469023.24
 10
213826.19999999998
 20
469023.72
 10
213828.24
 20
469023.48
 10
213830.63999999998
 20
469023.72
 10
213831.36
 20
469024.31999999995
 10
213831.36
 20
469024.8
 10
213831.72
 20
469025.04
 10
213831.36
 20
469025.87999999995
 10
213830.28
 20
469026.12
 10
213830.75999999998
 20
469026.48
 10
213831.4261710656
 20
469026.55401900725
 10
213831.85309359003
 20
469026.5738128199
 10
213832.08
 20
469026.12
 10
213831.96
 20
469025.04
 10
213832.44
 20
469024.8
 10
213832.8
 20
469025.87999999995
 10
213834.12
 20
469026.24
 10
213834.58025477227
 20
469026.70025477227
 10
213841.09842660566
 20
469027.00246293575
 10
213842.15999999997
 20
469026.95999999996
  0
LWPOLYLINE
  5
7C
330
17
100
AcDbEntity
  8
DESCRIPTION_ERROR
100
AcDbPolyline
 90
12
 70
1
 10
213877.08
 20
469016.39999999997
 10
213876.24
 20
469016.39999999997
 10
213875.75999999998
 20
469015.56
 10
213877.44
 20
469015.43999999994
 10
213877.68
 20
469015.19999999995
 10
213878.52
 20
469015.31999999995
 10
213878.63999999998
 20
469015.68
 10
213879.12
 20
469015.92
 10
213879.0
 20
469016.51999999996
 10
213878.63999999998
 20
469016.75999999995
 10
213877.8
 20
469016.75999999995
 10
213877.08
 20
469016.39999999997
  0
LWPOLYLINE
  5
7D
330
17
100
AcDbEntity
  8
DESCRIPTION_ERROR
100
AcDbPolyline
 90
26
 70
1
 10
213830.52
 20
469005.48
 10
213829.44
 20
469002.83999999997
 10
213829.44
 20
469001.99999999994
 10
213829.08
 20
469001.51999999996
 10
213829.31999999998
 20
469000.19999999995
 10
213828.96
 20
468999.83999999997
 10
213828.36
 20
468999.83999999997
 10
213828.47999999998
 20
468999.6
 10
213829.91999999998
 20
468999.36
 10
213830.63999999998
 20
468998.51999999996
 10
213834.0
 20
468998.75999999995
 10
213834.47999999998
 20
468999.24
 10
213834.47999999998
 20
468999.72
 10
213834.96
 20
468999.95999999996
 10
213835.19999999998
 20
469000.68
 10
213835.08
 20
469002.36
 10
213835.56
 20
469002.83999999997
 10
213835.56
 20
469004.04
 10
213835.31999999998
 20
469004.63999999996
 10
213835.91999999998
 20
469004.87999999995
 10
213835.91999999998
 20
469005.12
 10
213834.24
 20
469005.72
 10
213833.52
 20
469005.72
 10
213833.15999999997
 20
469006.07999999996
 10
213830.75999999998
 20
469005.72
 10
213830.52
 20
469005.48
  0
LWPOLYLINE
  5
7E
330
17
100
AcDbEntity
  8
DESCRIPTION_ERROR
100
AcDbPolyline
 90
5
 70
1
 10
213841.68
 20
469002.6
 10
213842.4
 20
469002.6
 10
213842.4
 20
469002.72
 10
213841.91999999998
 20
469002.83999999997
 10
213841.68
 20
469002.6
  0
LWPOLYLINE
  5
7F
330
17
100
AcDbEntity
  8
DESCRIPTION_ERROR
100
AcDbPolyline
 90
5
 70
1
 10
213835.8
 20
469002.48
 10
213836.15999999997
 20
469001.87999999995
 10
213836.28
 20
469002.6
 10
213836.03999999998
 20
469002.72
 10
213835.8
 20
469002.48
  0
LWPOLYLINE
  5
80
330
17
100
AcDbEntity
  8
DESCRIPTION_ERROR
100
AcDbPolyline
 90
34
 70
1
 10
213768.36
 20
469246.43999999994
 10
213768.36
 20
469249.8
 10
213768.84
 20
469250.51999999996
 10
213768.84
 20
469251.36
 10
213769.31999999998
 20
469252.07999999996
 10
213769.44
 20
469253.16
 10
213769.91999999998
 20
469252.8
 10
213771.0
 20
469253.04
 10
213771.36
 20
469252.19999999995
 10
213771.72
 20
469251.95999999996
 10
213773.75999999998
 20
469251.83999999997
 10
213774.12
 20
469251.24
 10
213774.12
 20
469250.39999999997
 10
213774.47999999998
 20
469251.12
 10
213774.83231340672
 20
469251.12
 10
213774.85013620064
 20
469251.0968315414
 10
213775.68
 20
469249.19999999995
 10
213776.75999999998
 20
469248.24
 10
213777.24
 20
469247.27999999997
 10
213777.24
 20
469246.8
 10
213776.03999999998
 20
469246.56
 10
213775.91999999998
 20
469245.95999999996
 10
213778.19999999998
 20
469245.72
 10
213778.91999999998
 20
469245.12
 10
213778.56
 20
469243.56
 10
213777.59999999998
 20
469242.72
 10
213775.19999999998
 20
469242.12
 10
213774.24
 20
469243.19999999995
 10
213773.63999999998
 20
469243.19999999995
 10
213772.19999999998
 20
469243.8
 10
213771.24
 20
469244.87999999995
 10
213769.36466279323
 20
469244.87999999995
 10
213768.4621060398
 20
469245.8273637611
 10
213768.36
 20
469246.43999999994
  0
LWPOLYLINE
  5
81
330
17
100
AcDbEntity
  8
EXCESS_ERROR
100
AcDbPolyline
 90
5
 70
1
 10
213655.658
 20
466973.3964
 10
213659.7268
 20
466974.2871
 10
213661.9095999999
 20
466961.2207
 10
213657.9955999999
 20
466960.3736
 10
213655.658
 20
466973.3964
  0
LWPOLYLINE
  5
82
330
17
100
AcDbEntity
  8
EXCESS_ERROR
100
AcDbPolyline
 90
5
 70
1
 10
213655.658
 20
466973.3964
 10
213652.7432
 20
466991.5914999999
 10
213656.7229
 20
466992.2837
 10
213659.7268
 20
466974.2871
 10
213655.658
 20
466973.3964
  0
LWPOLYLINE
  5
83
330
17
100
AcDbEntity
  8
EXCESS_ERROR
100
AcDbPolyline
 90
5
 70
1
 10
213764.2668999999
 20
467185.0803
 10
213760.3294999999
 20
467184.8960000001
 10
213760.0251999999
 20
467198.1447
 10
213763.7856
 20
467198.3076
 10
213764.2668999999
 20
467185.0803
  0
LWPOLYLINE
  5
84
330
17
100
AcDbEntity
  8
EXCESS_ERROR
100
AcDbPolyline
 90
12
 70
1
 10
213759.391
 20
467200.0491
 10
213759.8177
 20
467195.8675
 10
213759.5964
 20
467195.8462
 10
213759.657
 20
467194.2978999999
 10
213758.6393999999
 20
467194.2353
 10
213758.45362003127
 20
467184.85200046987
 10
213758.4485
 20
467184.5934
 10
213752.7409
 20
467184.1503
 10
213752.6804999999
 20
467191.6479
 10
213748.2351
 20
467191.6424
 10
213748.1291999999
 20
467198.8085
 10
213759.391
 20
467200.0491
  0
LWPOLYLINE
  5
85
330
17
100
AcDbEntity
  8
EXCESS_ERROR
100
AcDbPolyline
 90
7
 70
1
 10
213736.6881
 20
467378.6347
 10
213740.7565999999
 20
467379.1357
 10
213741.5639
 20
467372.5332
 10
213732.2046
 20
467371.4182
 10
213731.47720167856
 20
467377.9893848362
 10
213731.4772
 20
467377.9894
 10
213736.6881
 20
467378.6347
  0
LWPOLYLINE
  5
86
330
17
100
AcDbEntity
  8
EXCESS_ERROR
100
AcDbPolyline
 90
22
 70
1
 10
213717.5154
 20
467489.0536
 10
213718.7502
 20
467488.0536999999
 10
213722.7493
 20
467492.9043
 10
213733.2228
 20
467484.4389
 10
213729.4231999999
 20
467479.6981
 10
213734.82811364502
 20
467475.34981715045
 10
213737.5155
 20
467473.1878
 10
213741.1366
 20
467477.509
 10
213745.7453
 20
467473.8868
 10
213752.4774
 20
467482.1330999999
 10
213759.7310999999
 20
467476.1346
 10
213744.6222
 20
467457.4587000001
 10
213743.6738999999
 20
467458.17
 10
213742.6297
 20
467456.8911
 10
213736.3456
 20
467461.9792
 10
213737.2787999999
 20
467463.1479
 10
213732.6487
 20
467466.9692
 10
213731.5608
 20
467465.8232
 10
213713.0834
 20
467480.7987
 10
213713.8388999999
 20
467481.7469
 10
213712.4941999999
 20
467482.9018999999
 10
213717.5154
 20
467489.0536
  0
LWPOLYLINE
  5
87
330
17
100
AcDbEntity
  8
EXCESS_ERROR
100
AcDbPolyline
 90
9
 70
1
 10
213572.0312
 20
466863.5668999999
 10
213577.4905999999
 20
466864.0546999999
 10
213580.0974999999
 20
466852.1578
 10
213579.964
 20
466851.9153
 10
213580.4846
 20
466849.3061
 10
213577.8526000001
 20
466848.5868
 10
213577.9159
 20
466847.7911
 10
213573.6689999999
 20
466846.5476
 10
213572.0312
 20
466863.5668999999
  0
LWPOLYLINE
  5
88
330
17
100
AcDbEntity
  8
EXCESS_ERROR
100
AcDbPolyline
 90
14
 70
1
 10
213571.531
 20
466868.0903
 10
213580.8612
 20
466869.7347
 10
213584.6692
 20
466854.0329
 10
213584.2932
 20
466853.9238
 10
213585.6022
 20
466849.9514
 10
213582.4939
 20
466848.9672
 10
213582.4728
 20
466849.2324
 10
213580.5493999999
 20
466848.9080999999
 10
213580.4846
 20
466849.3061
 10
213579.964
 20
466851.9153
 10
213580.0974999999
 20
466852.1578
 10
213577.4905999999
 20
466864.0546999999
 10
213572.4200999999
 20
466863.6016999999
 10
213571.531
 20
466868.0903
  0
LWPOLYLINE
  5
89
330
17
100
AcDbEntity
  8
EXCESS_ERROR
100
AcDbPolyline
 90
7
 70
1
 10
213569.9183999999
 20
466883.5267
 10
213575.2685
 20
466884.3463
 10
213576.3405
 20
466881.492
 10
213576.1856999999
 20
466881.4484
 10
213580.7175
 20
466870.2514
 10
213571.6985
 20
466869.1361
 10
213569.9183999999
 20
466883.5267
  0
LWPOLYLINE
  5
8A
330
17
100
AcDbEntity
  8
EXCESS_ERROR
100
AcDbPolyline
 90
7
 70
1
 10
213431.908
 20
467388.0945
 10
213437.8237
 20
467386.7466999999
 10
213436.9782895395
 20
467383.2505946481
 10
213434.9735
 20
467374.96
 10
213429.3228
 20
467376.2848
 10
213430.8455066334
 20
467383.240822176
 10
213431.908
 20
467388.0945
  0
LWPOLYLINE
  5
8B
330
17
100
AcDbEntity
  8
EXCESS_ERROR
100
AcDbPolyline
 90
7
 70
1
 10
213537.4667
 20
467381.8633999998
 10
213539.8925
 20
467374.7176
 10
213536.2201
 20
467373.4719
 10
213535.4985
 20
467375.4853000001
 10
213528.2413
 20
467372.8168
 10
213526.2278
 20
467377.9725
 10
213537.4667
 20
467381.8633999998
  0
LWPOLYLINE
  5
8C
330
17
100
AcDbEntity
  8
EXCESS_ERROR
100
AcDbPolyline
 90
12
 70
1
 10
213547.933
 20
467421.1367
 10
213548.8738
 20
467412.7370999999
 10
213544.7824999999
 20
467411.7580999999
 10
213544.6958
 20
467412.2003
 10
213540.8934
 20
467411.6621
 10
213540.542
 20
467412.2158
 10
213537.7104999999
 20
467411.3426
 10
213537.2487
 20
467411.9188
 10
213535.6796
 20
467411.8363
 10
213535.1738
 20
467412.4789
 10
213533.9085
 20
467416.7922
 10
213547.933
 20
467421.1367
  0
LWPOLYLINE
  5
8D
330
17
100
AcDbEntity
  8
EXCESS_ERROR
100
AcDbPolyline
 90
9
 70
1
 10
213581.8413
 20
467775.1753
 10
213587.0536
 20
467774.6035000001
 10
213587.1344999999
 20
467775.6796999999
 10
213588.4825999999
 20
467775.5767999999
 10
213587.2436
 20
467763.3186
 10
213579.5132999999
 20
467764.1208999999
 10
213580.5522
 20
467776.0483
 10
213581.8998
 20
467775.9991000001
 10
213581.8413
 20
467775.1753
  0
LWPOLYLINE
  5
8E
330
17
100
AcDbEntity
  8
EXCESS_ERROR
100
AcDbPolyline
 90
7
 70
1
 10
213423.6417999999
 20
467737.4987
 10
213444.6941999999
 20
467725.1143
 10
213442.4263
 20
467721.2725
 10
213422.1291
 20
467733.2788
 10
213418.4641
 20
467734.0361
 10
213419.3993999999
 20
467738.3895
 10
213423.6417999999
 20
467737.4987
  0
LWPOLYLINE
  5
8F
330
17
100
AcDbEntity
  8
EXCESS_ERROR
100
AcDbPolyline
 90
15
 70
1
 10
213477.9521
 20
467834.7544
 10
213477.0242
 20
467834.78
 10
213476.6044
 20
467834.7816
 10
213476.317
 20
467834.7384
 10
213475.9409
 20
467834.6073
 10
213471.9733
 20
467831.2415
 10
213472.1691
 20
467830.4454
 10
213470.3775226838
 20
467827.7821337206
 10
213470.3775
 20
467827.7821
 10
213467.2018999999
 20
467831.5465999999
 10
213469.2192
 20
467833.3288
 10
213468.8328
 20
467833.786
 10
213480.6495
 20
467844.5022
 10
213479.4966
 20
467834.1963
 10
213477.9521
 20
467834.7544
  0
LWPOLYLINE
  5
90
330
17
100
AcDbEntity
  8
EXCESS_ERROR
100
AcDbPolyline
 90
5
 70
1
 10
213665.8122
 20
467707.4956000001
 10
213661.2616
 20
467707.7556999999
 10
213662.3743
 20
467721.7156
 10
213666.8586
 20
467721.4558
 10
213665.8122
 20
467707.4956000001
  0
LWPOLYLINE
  5
91
330
17
100
AcDbEntity
  8
EXCESS_ERROR
100
AcDbPolyline
 90
7
 70
1
 10
213553.2605
 20
467801.3684999999
 10
213547.7076
 20
467799.4890999999
 10
213544.8874
 20
467807.5201000001
 10
213545.7059
 20
467807.8043000001
 10
213544.395
 20
467811.7642
 10
213549.1732999999
 20
467813.293
 10
213553.2605
 20
467801.3684999999
  0
LWPOLYLINE
  5
92
330
17
100
AcDbEntity
  8
EXCESS_ERROR
100
AcDbPolyline
 90
25
 70
1
 10
213557.4268
 20
467839.6122
 10
213557.6269
 20
467839.9650000001
 10
213558.1786
 20
467839.7641
 10
213558.5124999999
 20
467840.4478
 10
213562.4820999999
 20
467838.4223
 10
213561.8584
 20
467837.0767999999
 10
213565.1664
 20
467835.4074
 10
213565.4335
 20
467835.9366
 10
213567.1092
 20
467834.9803
 10
213564.8613
 20
467830.636
 10
213564.1997
 20
467830.9699
 10
213562.461
 20
467826.8667
 10
213559.8143
 20
467828.136
 10
213559.5032
 20
467827.651
 10
213556.4152
 20
467829.0767
 10
213556.0148
 20
467828.3711
 10
213552.3539
 20
467830.1966000001
 10
213553.1773999999
 20
467831.8065
 10
213552.648
 20
467832.0515
 10
213554.4085
 20
467836.0441
 10
213554.8498999999
 20
467835.9099
 10
213555.2956999999
 20
467836.9688
 10
213554.3031
 20
467837.4144
 10
213555.5289
 20
467840.238
 10
213557.4268
 20
467839.6122
  0
LWPOLYLINE
  5
93
330
17
100
AcDbEntity
  8
EXCESS_ERROR
100
AcDbPolyline
 90
25
 70
1
 10
213470.9006976203
 20
467898.7769851882
 10
213479.1972373446
 20
467888.9678142893
 10
213477.7008989052
 20
467887.7081250753
 10
213478.6347507606
 20
467886.4990263376
 10
213472.6666345254
 20
467881.6542312791
 10
213477.3126430879
 20
467875.7799872033
 10
213474.2465406683
 20
467873.5714334767
 10
213474.7048849735
 20
467872.8608851855
 10
213468.0694756736
 20
467866.9086152374
 10
213467.3953116125
 20
467867.4694747565
 10
213466.469537817
 20
467866.7171533038
 10
213465.1865607344
 20
467868.393759372
 10
213463.7623293403
 20
467867.1433853042
 10
213461.4201765773
 20
467869.803119543
 10
213460.6596577533
 20
467869.4347512016
 10
213459.9623729591
 20
467870.1352972438
 10
213457.800260654
 20
467868.4941026275
 10
213449.8309696246
 20
467877.6733489157
 10
213450.5487346224
 20
467878.5691045181
 10
213450.357034838
 20
467879.1319510585
 10
213451.4890903968
 20
467880.1601764738
 10
213450.5582990685
 20
467881.7209967095
 10
213455.5497795963
 20
467886.1198788538
 10
213468.5323892818
 20
467899.0287584926
 10
213470.9006976203
 20
467898.7769851882
  0
LWPOLYLINE
  5
94
330
17
100
AcDbEntity
  8
EXCESS_ERROR
100
AcDbPolyline
 90
9
 70
1
 10
213394.7178360493
 20
467907.7277368312
 10
213388.078809691
 20
467920.3591573556
 10
213389.0934868878
 20
467920.8787097138
 10
213388.6030055587
 20
467921.7577443263
 10
213391.041555647
 20
467922.9333799027
 10
213391.5040213888
 20
467922.0666899026
 10
213392.8124312006
 20
467922.7004166897
 10
213399.0445131514
 20
467909.9503982842
 10
213394.7178360493
 20
467907.7277368312
  0
LWPOLYLINE
  5
95
330
17
100
AcDbEntity
  8
EXCESS_ERROR
100
AcDbPolyline
 90
11
 70
1
 10
213511.5526892156
 20
467886.6891619656
 10
213513.4586116857
 20
467878.1972389007
 10
213513.0528213177
 20
467878.0965297672
 10
213513.9733306671
 20
467874.1711991778
 10
213512.6040220009
 20
467873.7916750158
 10
213512.3710211366
 20
467874.6409917742
 10
213510.019855632
 20
467874.0040705471
 10
213510.2263451248
 20
467873.1435540251
 10
213509.295467277
 20
467872.8993826168
 10
213506.4661021292
 20
467885.5521283482
 10
213511.5526892156
 20
467886.6891619656
  0
LWPOLYLINE
  5
96
330
17
100
AcDbEntity
  8
EXCESS_ERROR
100
AcDbPolyline
 90
10
 70
1
 10
213544.3245193074
 20
467960.6251304327
 10
213550.9622033384
 20
467963.6889956158
 10
213554.7708869598
 20
467962.4133968457
 10
213554.408758806
 20
467958.5710623221
 10
213554.7143116563
 20
467957.5863415125
 10
213554.50696335535
 20
467957.49218248605
 10
213548.4197686428
 20
467954.7279238673
 10
213547.7419380121
 20
467955.9573236216
 10
213546.7783441814
 20
467955.4931718257
 10
213544.3245193074
 20
467960.6251304327
  0
LWPOLYLINE
  5
97
330
17
100
AcDbEntity
  8
EXCESS_ERROR
100
AcDbPolyline
 90
7
 70
1
 10
213463.7196469068
 20
468109.5021175894
 10
213462.699932729
 20
468104.6217370307
 10
213460.11914514005
 20
468104.971373152
 10
213452.3767823733
 20
468106.0202815158
 10
213452.3767823732
 20
468106.0202815158
 10
213453.6732345737
 20
468111.2063389854
 10
213463.7196469068
 20
468109.5021175894
  0
LWPOLYLINE
  5
98
330
17
100
AcDbEntity
  8
EXCESS_ERROR
100
AcDbPolyline
 90
11
 70
1
 10
213396.358678832
 20
468166.9544287472
 10
213398.9742131692
 20
468166.3769129471
 10
213399.7612867247
 20
468169.2892633587
 10
213411.9326997526
 20
468166.4664257482
 10
213414.816668424
 20
468164.3919436747
 10
213414.4660495161
 20
468163.0347041283
 10
213414.0428460124
 20
468161.3964909043
 10
213409.881234573
 20
468158.9368621801
 10
213393.08176298588
 20
468163.0088688771
 10
213392.7347810777
 20
468163.0929734661
 10
213396.358678832
 20
468166.9544287472
  0
LWPOLYLINE
  5
99
330
17
100
AcDbEntity
  8
EXCESS_ERROR
100
AcDbPolyline
 90
5
 70
1
 10
213509.5072866342
 20
468321.6768197367
 10
213481.468171998
 20
468311.3388045632
 10
213480.4621561761
 20
468314.1289334439
 10
213508.4588577677
 20
468324.5583277899
 10
213509.5072866342
 20
468321.6768197367
  0
LWPOLYLINE
  5
9A
330
17
100
AcDbEntity
  8
EXCESS_ERROR
100
AcDbPolyline
 90
5
 70
1
 10
213519.870367728
 20
468328.7430970455
 10
213547.9056133482
 20
468339.0643869997
 10
213548.9541241662
 20
468336.3372845251
 10
213520.855738772
 20
468325.8448951852
 10
213519.870367728
 20
468328.7430970455
  0
LWPOLYLINE
  5
9B
330
17
100
AcDbEntity
  8
EXCESS_ERROR
100
AcDbPolyline
 90
5
 70
1
 10
213947.4544
 20
467461.2758
 10
213943.299
 20
467456.0277
 10
213936.3974
 20
467461.5826
 10
213940.6631
 20
467466.7639
 10
213947.4544
 20
467461.2758
  0
LWPOLYLINE
  5
9C
330
17
100
AcDbEntity
  8
EXCESS_ERROR
100
AcDbPolyline
 90
5
 70
1
 10
213828.1613
 20
467710.8424
 10
213829.8467999999
 20
467706.1696
 10
213788.8783000001
 20
467691.8589
 10
213787.4365
 20
467696.6414
 10
213828.1613
 20
467710.8424
  0
LWPOLYLINE
  5
9D
330
17
100
AcDbEntity
  8
EXCESS_ERROR
100
AcDbPolyline
 90
5
 70
1
 10
213880.9120999999
 20
467729.5323
 10
213882.6861
 20
467724.9034
 10
213844.7067
 20
467711.4882
 10
213843.198
 20
467716.1161999999
 10
213880.9120999999
 20
467729.5323
  0
LWPOLYLINE
  5
9E
330
17
100
AcDbEntity
  8
EXCESS_ERROR
100
AcDbPolyline
 90
29
 70
1
 10
213724.9487557919
 20
467753.7600669832
 10
213727.1209101386
 20
467739.7201432058
 10
213747.9948757817
 20
467742.4248244503
 10
213747.788742219
 20
467745.2911947447
 10
213757.6186454802
 20
467746.5810007837
 10
213757.9567330487
 20
467743.3221858908
 10
213771.3891758908
 20
467744.7207210374
 10
213773.1043013019
 20
467732.8060828089
 10
213727.8434662251
 20
467727.5410548773
 10
213733.3730037088
 20
467710.6700749184
 10
213728.039202257
 20
467709.6312896271
 10
213722.1611778214
 20
467726.8264267516
 10
213707.1992479161
 20
467725.0311104097
 10
213705.8786057687
 20
467736.296644752
 10
213716.6647126018
 20
467737.9456171068
 10
213714.9038751052
 20
467751.8060218341
 10
213704.5863278791
 20
467750.533002238
 10
213702.8155755738
 20
467763.0028176719
 10
213717.0365857162
 20
467764.9858223964
 10
213716.5283046805
 20
467769.4496490015
 10
213727.8065349205
 20
467771.0953910514
 10
213728.514845268
 20
467766.1038530473
 10
213739.6984064227
 20
467767.695170203
 10
213738.8803388997
 20
467773.2236848602
 10
213745.9121710769
 20
467774.086309609
 10
213746.5791766509
 20
467769.3520083211
 10
213769.0506693103
 20
467772.3317483242
 10
213770.950699176
 20
467758.7651699661
 10
213724.9487557919
 20
467753.7600669832
  0
LWPOLYLINE
  5
9F
330
17
100
AcDbEntity
  8
EXCESS_ERROR
100
AcDbPolyline
 90
31
 70
1
 10
213697.4626368016
 20
467666.6760492312
 10
213711.6992549618
 20
467669.5981764818
 10
213712.7916166814
 20
467664.4947705012
 10
213729.4699206893
 20
467667.7347932227
 10
213728.5500399884
 20
467672.4864937376
 10
213733.2519010959
 20
467673.4739665938
 10
213733.2141565829
 20
467674.0969127219
 10
213737.9833505923
 20
467675.2335502661
 10
213735.5676203149
 20
467687.4578821355
 10
213708.4300548725
 20
467683.617177545
 10
213708.2052833227
 20
467684.9755505553
 10
213704.8386085182
 20
467684.4475591725
 10
213701.0616473277
 20
467704.460910921
 10
213769.1432543983
 20
467715.5373803229
 10
213772.3649323249
 20
467695.5090347581
 10
213768.0472522196
 20
467694.3600312747
 10
213768.2446286683
 20
467693.1189719814
 10
213741.8358763065
 20
467688.5397398373
 10
213743.8799329315
 20
467676.8742750573
 10
213748.3886363547
 20
467677.4865139907
 10
213749.5014729902
 20
467671.4576241216
 10
213785.3669229953
 20
467678.4724515194
 10
213787.9657679422
 20
467667.0116015514
 10
213778.4265314543
 20
467665.0633910224
 10
213778.4689792998
 20
467664.3682201119
 10
213773.405746808
 20
467663.4520410824
 10
213773.27650459
 20
467664.5352596458
 10
213765.1220463502
 20
467663.0737489313
 10
213765.2000468317
 20
467662.5953820014
 10
213700.7070564748
 20
467650.0429048561
 10
213697.4626368016
 20
467666.6760492312
  0
LWPOLYLINE
  5
A0
330
17
100
AcDbEntity
  8
EXCESS_ERROR
100
AcDbPolyline
 90
5
 70
1
 10
213892.6655
 20
467850.3533
 10
213895.4671
 20
467842.5137
 10
213858.8358
 20
467828.8724
 10
213856.0789
 20
467836.8003
 10
213892.6655
 20
467850.3533
  0
LWPOLYLINE
  5
A1
330
17
100
AcDbEntity
  8
EXCESS_ERROR
100
AcDbPolyline
 90
8
 70
1
 10
213862.3506871391
 20
467848.3861198816
 10
213860.5773214505
 20
467853.2491977587
 10
213860.10479772039
 20
467854.5449934951
 10
213851.1609375417
 20
467879.071626018
 10
213875.5890701801
 20
467887.9478019822
 10
213886.7093099349
 20
467857.2661964337
 10
213875.6904234509
 20
467853.2491977587
 10
213862.3506871391
 20
467848.3861198816
  0
LWPOLYLINE
  5
A2
330
17
100
AcDbEntity
  8
EXCESS_ERROR
100
AcDbPolyline
 90
7
 70
1
 10
213924.9644256628
 20
468482.466997334
 10
213923.9859329395
 20
468476.2398456039
 10
213913.15191210626
 20
468477.70208068995
 10
213914.89604634972
 20
468477.46668015636
 10
213910.9152364251
 20
468478.0039580546
 10
213911.8434023012
 20
468484.2201478562
 10
213924.9644256628
 20
468482.466997334
  0
LWPOLYLINE
  5
A3
330
17
100
AcDbEntity
  8
EXCESS_ERROR
100
AcDbPolyline
 90
5
 70
1
 10
213901.7627687272
 20
468573.2881465539
 10
213913.4867149544
 20
468571.6694338362
 10
213912.7223983846
 20
468565.8577999586
 10
213901.0656211231
 20
468567.44502722
 10
213901.7627687272
 20
468573.2881465539
  0
LWPOLYLINE
  5
A4
330
17
100
AcDbEntity
  8
EXCESS_ERROR
100
AcDbPolyline
 90
5
 70
1
 10
214047.8925795777
 20
468042.2502651082
 10
214049.3411586946
 20
468037.4763009567
 10
214024.6608856192
 20
468029.1142342757
 10
214023.1951564137
 20
468033.7739128861
 10
214047.8925795777
 20
468042.2502651082
  0
LWPOLYLINE
  5
A5
330
17
100
AcDbEntity
  8
EXCESS_ERROR
100
AcDbPolyline
 90
5
 70
1
 10
214013.6390496955
 20
468030.2844246208
 10
214023.1140226677
 20
468033.4007660073
 10
214024.9515843336
 20
468027.7980099179
 10
214015.4680750973
 20
468024.6115720107
 10
214013.6390496955
 20
468030.2844246208
  0
LWPOLYLINE
  5
A6
330
17
100
AcDbEntity
  8
EXCESS_ERROR
100
AcDbPolyline
 90
7
 70
1
 10
214000.1165256148
 20
468079.1621990019
 10
214004.9410310953
 20
468080.6974171075
 10
214008.5542143363
 20
468069.2072740131
 10
214008.1648082337
 20
468069.0731806555
 10
214009.6371337698
 20
468064.5891391335
 10
214005.3319384259
 20
468063.1599818828
 10
214000.1165256148
 20
468079.1621990019
  0
LWPOLYLINE
  5
A7
330
17
100
AcDbEntity
  8
EXCESS_ERROR
100
AcDbPolyline
 90
21
 70
1
 10
214096.1116792367
 20
468541.5693864572
 10
214095.2332022888
 20
468541.5861340348
 10
214095.2238742787
 20
468544.2379462809
 10
214096.1443995333
 20
468544.2059933361
 10
214096.0375632814
 20
468558.6951933336
 10
214095.1462528805
 20
468558.7493289653
 10
214095.1520816581
 20
468561.3345471837
 10
214095.9464400548
 20
468561.2991460607
 10
214096.0440529296
 20
468575.820964165
 10
214095.0032122479
 20
468575.8728302654
 10
214095.0102019101
 20
468578.4416932015
 10
214095.9541120048
 20
468578.4564576946
 10
214095.9175624792
 20
468585.5439276017
 10
214096.8310764613
 20
468585.5073050015
 10
214096.9333322153
 20
468594.7371868548
 10
214091.9638136766
 20
468594.7218860301
 10
214091.9940128002
 20
468602.1702990845
 10
214103.1763771676
 20
468602.1108250513
 10
214103.8602531465
 20
468537.7483998588
 10
214096.1518182915
 20
468537.7383849597
 10
214096.1116792367
 20
468541.5693864572
  0
LWPOLYLINE
  5
A8
330
17
100
AcDbEntity
  8
EXCESS_ERROR
100
AcDbPolyline
 90
7
 70
1
 10
214141.8088479107
 20
468281.3272560625
 10
214137.4103443974
 20
468280.4736414257
 10
214137.3211627056
 20
468282.058131494
 10
214137.0168071242
 20
468281.9943697329
 10
214136.7911353795
 20
468293.1993384868
 10
214140.2156729817
 20
468293.3017765842
 10
214141.8088479107
 20
468281.3272560625
  0
LWPOLYLINE
  5
A9
330
17
100
AcDbEntity
  8
EXCESS_ERROR
100
AcDbPolyline
 90
5
 70
1
 10
214305.6726
 20
468680.7147
 10
214305.7510999999
 20
468687.649
 10
214315.8936
 20
468687.0109
 10
214315.6938258396
 20
468680.5462205818
 10
214305.6726
 20
468680.7147
  0
LWPOLYLINE
  5
AA
330
17
100
AcDbEntity
  8
EXCESS_ERROR
100
AcDbPolyline
 90
9
 70
1
 10
214308.1286
 20
468786.9105999999
 10
214311.8979445826
 20
468786.904193666
 10
214311.9007842856
 20
468788.5750117539
 10
214318.2179
 20
468788.4643
 10
214318.1855197231
 20
468786.6167097553
 10
214319.7586
 20
468786.5271
 10
214319.7322
 20
468779.0492
 10
214308.1151
 20
468778.9675
 10
214308.1286
 20
468786.9105999999
  0
LWPOLYLINE
  5
AB
330
17
100
AcDbEntity
  8
EXCESS_ERROR
100
AcDbPolyline
 90
7
 70
1
 10
214297.1058
 20
468789.2652000001
 10
214299.5787999999
 20
468789.0621
 10
214299.5988021829
 20
468789.3056519356
 10
214307.1681
 20
468789.3167000001
 10
214307.2362
 20
468778.8891999999
 10
214296.9867
 20
468779.1349
 10
214297.1058
 20
468789.2652000001
  0
LWPOLYLINE
  5
AC
330
17
100
AcDbEntity
  8
EXCESS_ERROR
100
AcDbPolyline
 90
17
 70
1
 10
214294.5158
 20
468802.3283
 10
214295.3045929654
 20
468802.3316327633
 10
214295.2874974116
 20
468806.3777804027
 10
214303.0995477972
 20
468806.4107874357
 10
214303.1977
 20
468803.2349
 10
214305.9096
 20
468803.232
 10
214305.7999999999
 20
468806.4664
 10
214313.8036
 20
468806.4482
 10
214313.9157
 20
468802.3368
 10
214314.1358219978
 20
468802.3428017696
 10
214314.2942
 20
468794.1292
 10
214305.6981
 20
468794.0271
 10
214305.6587182569
 20
468797.3427650427
 10
214303.1714372415
 20
468797.3132224139
 10
214303.208782356
 20
468794.1690271085
 10
214294.55
 20
468794.2339
 10
214294.5158
 20
468802.3283
  0
LWPOLYLINE
  5
AD
330
17
100
AcDbEntity
  8
EXCESS_ERROR
100
AcDbPolyline
 90
9
 70
1
 10
214157.2223450729
 20
469075.3624652932
 10
214151.6427949119
 20
469075.3329010965
 10
214151.4998260262
 20
469079.9310500192
 10
214152.0090914748
 20
469079.9221237633
 10
214152.0058755934
 20
469091.2713642805
 10
214151.691207181
 20
469091.2716027348
 10
214151.7042644843
 20
469092.0115884363
 10
214157.1199176478
 20
469091.9833771205
 10
214157.2223450729
 20
469075.3624652932
  0
LWPOLYLINE
  5
AE
330
17
100
AcDbEntity
  8
EXCESS_ERROR
100
AcDbPolyline
 90
9
 70
1
 10
214275.4813834831
 20
468985.0220085154
 10
214276.1155749319
 20
468984.1371033089
 10
214275.4836224376
 20
468983.6832873822
 10
214269.8842356574
 20
468979.6622716814
 10
214263.7206581502
 20
468987.9785486746
 10
214269.9404222292
 20
468992.7534679521
 10
214271.8084915192
 20
468990.1468982111
 10
214271.7353343641
 20
468990.2489764519
 10
214275.4813834831
 20
468985.0220085154
  0
LWPOLYLINE
  5
AF
330
17
100
AcDbEntity
  8
EXCESS_ERROR
100
AcDbPolyline
 90
7
 70
1
 10
213398.9238374518
 20
468408.9254246194
 10
213392.312237523
 20
468409.2998169055
 10
213392.5458349538
 20
468414.1769740571
 10
213394.3369076234
 20
468415.9201464373
 10
213395.3756041822
 20
468430.0792772257
 10
213400.2100079146
 20
468429.751974412
 10
213398.9238374518
 20
468408.9254246194
  0
LWPOLYLINE
  5
B0
330
17
100
AcDbEntity
  8
EXCESS_ERROR
100
AcDbPolyline
 90
7
 70
1
 10
213446.8529332817
 20
468501.6494786982
 10
213448.7050694312
 20
468506.8127149885
 10
213446.1606695775
 20
468507.7615831064
 10
213446.6387128654
 20
468509.29124796
 10
213466.4216479693
 20
468502.1064022701
 10
213464.1460997365
 20
468495.5305476122
 10
213446.8529332817
 20
468501.6494786982
  0
LWPOLYLINE
  5
B1
330
17
100
AcDbEntity
  8
EXCESS_ERROR
100
AcDbPolyline
 90
8
 70
1
 10
213451.2485800362
 20
468573.1190389504
 10
213454.2166924614
 20
468572.3025454261
 10
213454.21669246114
 20
468572.30254542624
 10
213454.55460182187
 20
468572.20959045505
 10
213464.6762350413
 20
468569.425245796
 10
213463.1782452125
 20
468564.5030616187
 10
213448.8609079129
 20
468567.2097870627
 10
213451.2485800362
 20
468573.1190389504
  0
LWPOLYLINE
  5
B2
330
17
100
AcDbEntity
  8
EXCESS_ERROR
100
AcDbPolyline
 90
5
 70
1
 10
213519.2219810833
 20
468483.8567150143
 10
213498.3909101712
 20
468487.4031240616
 10
213499.246740655
 20
468492.5120212243
 10
213520.0485867741
 20
468489.0253109049
 10
213519.2219810833
 20
468483.8567150143
  0
LWPOLYLINE
  5
B3
330
17
100
AcDbEntity
  8
EXCESS_ERROR
100
AcDbPolyline
 90
9
 70
1
 10
213546.0152950337
 20
468656.9499407733
 10
213545.0925791754
 20
468653.3780805508
 10
213544.4712829891
 20
468653.5855457403
 10
213543.7030781627
 20
468650.7420134224
 10
213539.3725297267
 20
468651.9547288908
 10
213537.9644205384
 20
468647.5516395069
 10
213534.297433335
 20
468648.6560174893
 10
213537.6870130881
 20
468659.4203525543
 10
213546.0152950337
 20
468656.9499407733
  0
LWPOLYLINE
  5
B4
330
17
100
AcDbEntity
  8
EXCESS_ERROR
100
AcDbPolyline
 90
15
 70
1
 10
213532.75529086636
 20
468666.30546721135
 10
213535.0442480202
 20
468666.6862206425
 10
213536.6188958792
 20
468657.4870009649
 10
213534.9753907721
 20
468657.1756975857
 10
213535.4068515019
 20
468654.4208618303
 10
213528.8593870866
 20
468653.27085762
 10
213528.7096062245
 20
468654.0562847304
 10
213522.5578163089
 20
468653.0111107582
 10
213521.8149959283
 20
468657.3034297228
 10
213517.8643134991
 20
468656.5800617079
 10
213517.32570791608
 20
468659.7179409701
 10
213517.0455472471
 20
468661.3501378521
 10
213517.0634447677
 20
468661.24586812215
 10
213516.654691757
 20
468663.6272351857
 10
213532.75529086636
 20
468666.30546721135
  0
LWPOLYLINE
  5
B5
330
17
100
AcDbEntity
  8
EXCESS_ERROR
100
AcDbPolyline
 90
10
 70
1
 10
213537.5826765607
 20
468668.1446382367
 10
213538.2532107985
 20
468668.11845139146
 10
213548.795244703
 20
468667.7067459259
 10
213548.6499190766
 20
468663.9391178816
 10
213543.9329877823
 20
468664.0574601887
 10
213543.8523214952
 20
468660.0414316414
 10
213541.2136032338
 20
468660.1351104992
 10
213541.1699876099
 20
468659.3409508737
 10
213537.4072591288
 20
468659.4695852612
 10
213537.5826765607
 20
468668.1446382367
  0
LWPOLYLINE
  5
B6
330
17
100
AcDbEntity
  8
EXCESS_ERROR
100
AcDbPolyline
 90
9
 70
1
 10
213530.199318936
 20
468675.9617733924
 10
213537.0373790012
 20
468676.9058246972
 10
213538.1830840294
 20
468677.0639988455
 10
213539.2661704377
 20
468677.2135279703
 10
213540.2445549733
 20
468670.9960006406
 10
213531.0130369795
 20
468669.5956728097
 10
213530.8353330224
 20
468669.5687169183
 10
213529.9443928918
 20
468675.9265787229
 10
213530.199318936
 20
468675.9617733924
  0
LWPOLYLINE
  5
B7
330
17
100
AcDbEntity
  8
EXCESS_ERROR
100
AcDbPolyline
 90
13
 70
1
 10
213529.1953076074
 20
468668.4151263758
 10
213522.6924644654
 20
468668.104438746
 10
213522.69170864142
 20
468668.1121796619
 10
213522.5137874558
 20
468669.9343935195
 10
213520.4453099849
 20
468669.8059090166
 10
213520.2662514636
 20
468674.616258187
 10
213516.8234243923
 20
468674.5042100803
 10
213516.9080201921
 20
468672.9766640715
 10
213512.22040083
 20
468672.8338627385
 10
213511.9393148266
 20
468679.6213786786
 10
213526.8492445625
 20
468680.13879659027
 10
213528.7401731053
 20
468680.2044173085
 10
213529.1953076074
 20
468668.4151263758
  0
LWPOLYLINE
  5
B8
330
17
100
AcDbEntity
  8
EXCESS_ERROR
100
AcDbPolyline
 90
8
 70
1
 10
213535.022368344
 20
468690.1985581283
 10
213539.9087534908
 20
468681.9704300861
 10
213537.8417733571
 20
468680.75170337997
 10
213534.1798131924
 20
468678.5925492707
 10
213531.6004345797
 20
468683.2117622577
 10
213530.5153707736
 20
468682.6419794557
 10
213528.4214251487
 20
468686.3175359757
 10
213535.022368344
 20
468690.1985581283
  0
LWPOLYLINE
  5
B9
330
17
100
AcDbEntity
  8
EXCESS_ERROR
100
AcDbPolyline
 90
12
 70
1
 10
213516.2287322197
 20
468689.6941302516
 10
213516.7964121305
 20
468684.6469888489
 10
213516.0394898133
 20
468684.5649290908
 10
213516.3682728675
 20
468680.7126245411
 10
213512.8644490304
 20
468680.3512609404
 10
213512.9437023307
 20
468679.8554681954
 10
213509.6739739654
 20
468679.586728204
 10
213506.7607835254
 20
468679.3472921755
 10
213506.3711172907
 20
468683.1642883953
 10
213505.39428989
 20
468683.0676200844
 10
213504.9191404777
 20
468688.5898476814
 10
213516.2287322197
 20
468689.6941302516
  0
LWPOLYLINE
  5
BA
330
17
100
AcDbEntity
  8
EXCESS_ERROR
100
AcDbPolyline
 90
7
 70
1
 10
213527.4125501025
 20
468690.5756371896
 10
213527.7531390686
 20
468681.2229480253
 10
213520.4207326248
 20
468680.8371109808
 10
213520.2359366602
 20
468685.9350967591
 10
213519.247340511
 20
468685.8600317539
 10
213519.1623116174
 20
468690.2707854203
 10
213527.4125501025
 20
468690.5756371896
  0
LWPOLYLINE
  5
BB
330
17
100
AcDbEntity
  8
EXCESS_ERROR
100
AcDbPolyline
 90
8
 70
1
 10
213504.9393926216
 20
468973.6451248403
 10
213507.5762021999
 20
468975.0668893352
 10
213506.4797839469
 20
468977.1030635401
 10
213507.5480685863
 20
468977.6373449129
 10
213511.1161349205
 20
468979.4218425168
 10
213515.9045963056
 20
468970.2135389693
 10
213509.6813377366
 20
468965.2398420132
 10
213504.9393926216
 20
468973.6451248403
  0
LWPOLYLINE
  5
BC
330
17
100
AcDbEntity
  8
EXCESS_ERROR
100
AcDbPolyline
 90
7
 70
1
 10
213521.9022159318
 20
468985.2172631852
 10
213524.7811497919
 20
468977.8621991475
 10
213516.897244281
 20
468971.4049407355
 10
213517.1167365755
 20
468970.9343513001
 10
213515.9045963056
 20
468970.2135389693
 10
213510.4047231588
 20
468980.7899010481
 10
213521.9022159318
 20
468985.2172631852
  0
LWPOLYLINE
  5
BD
330
17
100
AcDbEntity
  8
EXCESS_ERROR
100
AcDbPolyline
 90
9
 70
1
 10
213512.2165227542
 20
468989.636244029
 10
213512.5742772731
 20
468989.8093506751
 10
213511.8655148341
 20
468992.0589227375
 10
213511.152211673
 20
468991.7360875639
 10
213510.4676743715
 20
468993.6092802724
 10
213517.8506808923
 20
468996.5774093293
 10
213522.1393514994
 20
468985.3258709422
 10
213515.001211144
 20
468982.5725188849
 10
213512.2165227542
 20
468989.636244029
  0
LWPOLYLINE
  5
BE
330
17
100
AcDbEntity
  8
EXCESS_ERROR
100
AcDbPolyline
 90
7
 70
1
 10
213485.9821954962
 20
468966.6558393734
 10
213486.7212033822
 20
468967.0563715307
 10
213494.4937786859
 20
468971.2690009397
 10
213498.2634324057
 20
468964.6473397654
 10
213497.74691579532
 20
468964.3670847532
 10
213489.7245856809
 20
468960.01427561
 10
213485.9821954962
 20
468966.6558393734
  0
LWPOLYLINE
  5
BF
330
17
100
AcDbEntity
  8
EXCESS_ERROR
100
AcDbPolyline
 90
5
 70
1
 10
213466.0512745564
 20
469219.0846716616
 10
213464.4322905149
 20
469213.1587513341
 10
213455.7036124955
 20
469214.5640886177
 10
213457.0732070466
 20
469220.2995241455
 10
213466.0512745564
 20
469219.0846716616
  0
LWPOLYLINE
  5
C0
330
17
100
AcDbEntity
  8
EXCESS_ERROR
100
AcDbPolyline
 90
5
 70
1
 10
213432.8404411385
 20
469446.143133364
 10
213411.9464909452
 20
469449.4856601617
 10
213413.2164557006
 20
469456.7992658027
 10
213433.9135004009
 20
469453.4785804925
 10
213432.8404411385
 20
469446.143133364
  0
LWPOLYLINE
  5
C1
330
17
100
AcDbEntity
  8
EXCESS_ERROR
100
AcDbPolyline
 90
7
 70
1
 10
213987.6050472779
 20
468691.936100248
 10
213987.5844972489
 20
468707.042505083
 10
213987.1276549704
 20
468707.0551820386
 10
213987.4862137873
 20
468731.2459143635
 10
213989.1465853047
 20
468731.2091018794
 10
213988.6360642499
 20
468691.9369048092
 10
213987.6050472779
 20
468691.936100248
  0
LWPOLYLINE
  5
C2
330
17
100
AcDbEntity
  8
EXCESS_ERROR
100
AcDbPolyline
 90
7
 70
1
 10
213851.8880242481
 20
468764.9141112633
 10
213851.958774812
 20
468765.7275017937
 10
213861.3320249314
 20
468765.6833543279
 10
213861.3794394776
 20
468760.6734524567
 10
213845.4623252096
 20
468760.6810841793
 10
213845.5048607136
 20
468764.9189304747
 10
213851.8880242481
 20
468764.9141112633
  0
LWPOLYLINE
  5
C3
330
17
100
AcDbEntity
  8
EXCESS_ERROR
100
AcDbPolyline
 90
12
 70
1
 10
213860.6367915798
 20
468775.0331666939
 10
213860.5864986012
 20
468772.6393505274
 10
213861.3183343449
 20
468772.638941921
 10
213861.297051873
 20
468770.4936576245
 10
213860.575261978
 20
468770.5003370882
 10
213860.5587722326
 20
468765.697594284
 10
213851.958774812
 20
468765.7275017937
 10
213851.8880242481
 20
468764.9141112633
 10
213845.5048607136
 20
468764.9189304747
 10
213845.4696731555
 20
468771.5933443818
 10
213848.4968787835
 20
468775.0838800456
 10
213860.6367915798
 20
468775.0331666939
  0
LWPOLYLINE
  5
C4
330
17
100
AcDbEntity
  8
EXCESS_ERROR
100
AcDbPolyline
 90
11
 70
1
 10
213965.0146338673
 20
468787.4067650309
 10
213964.9492459436
 20
468801.3110323943
 10
213964.6801082502
 20
468801.3167035011
 10
213964.7127784841
 20
468807.9182274658
 10
213969.9038004112
 20
468808.0147042445
 10
213969.881577585
 20
468807.764898726
 10
213981.9321247123
 20
468807.65327461
 10
213981.8430632629
 20
468796.4612052161
 10
213976.9971853151
 20
468796.5287806675
 10
213976.9878584597
 20
468787.2399757043
 10
213965.0146338673
 20
468787.4067650309
  0
LWPOLYLINE
  5
C5
330
17
100
AcDbEntity
  8
EXCESS_ERROR
100
AcDbPolyline
 90
5
 70
1
 10
214065.114121275
 20
468991.964527599
 10
214084.7559999103
 20
468992.7499787186
 10
214084.9367823014
 20
468988.1675346152
 10
214065.4385783628
 20
468987.1468997352
 10
214065.114121275
 20
468991.964527599
  0
LWPOLYLINE
  5
C6
330
17
100
AcDbEntity
  8
EXCESS_ERROR
100
AcDbPolyline
 90
7
 70
1
 10
214058.2767412206
 20
469018.8919828066
 10
214059.2649990042
 20
468995.1913524967
 10
214053.0721524207
 20
468995.0117558544
 10
214051.9669440664
 20
468994.9797040821
 10
214050.8621913175
 20
469018.594642065
 10
214053.0721524207
 20
469018.6832666588
 10
214058.2767412206
 20
469018.8919828066
  0
LWPOLYLINE
  5
C7
330
17
100
AcDbEntity
  8
EXCESS_ERROR
100
AcDbPolyline
 90
6
 70
1
 10
214039.8758769314
 20
469037.5532230642
 10
214040.3771936377
 20
469018.2834632223
 10
214035.4504019045
 20
469018.1372435096
 10
214034.552491544
 20
469037.323369844
 10
214036.7426341438
 20
469037.4898078449
 10
214039.8758769314
 20
469037.5532230642
  0
LWPOLYLINE
  5
C8
330
17
100
AcDbEntity
  8
EXCESS_ERROR
100
AcDbPolyline
 90
6
 70
1
 10
214053.4844679016
 20
469174.1724769545
 10
214053.4452118316
 20
469178.6480646385
 10
214064.9288608325
 20
469178.8033082104
 10
214065.0032673094
 20
469174.35127328953
 10
214065.0034202526
 20
469174.3421220914
 10
214053.4844679016
 20
469174.1724769545
  0
LWPOLYLINE
  5
C9
330
17
100
AcDbEntity
  8
EXCESS_ERROR
100
AcDbPolyline
 90
5
 70
1
 10
213891.3271776608
 20
468942.2486782857
 10
213920.9216682667
 20
468943.7895151104
 10
213920.9952081376
 20
468941.9459694303
 10
213891.4002533176
 20
468940.5208875352
 10
213891.3271776608
 20
468942.2486782857
  0
LWPOLYLINE
  5
CA
330
17
100
AcDbEntity
  8
EXCESS_ERROR
100
AcDbPolyline
 90
9
 70
1
 10
213937.6195873836
 20
468954.2491843957
 10
213936.186442411
 20
468980.7125173095
 10
213940.621752132
 20
468980.9038153808
 10
213940.990775989
 20
468973.8878748353
 10
213937.4492421423
 20
468973.7092515019
 10
213938.8468658296
 20
468952.4100455854
 10
213918.4841099272
 20
468951.4291489129
 10
213918.1903958347
 20
468953.3266580247
 10
213937.6195873836
 20
468954.2491843957
  0
LWPOLYLINE
  5
CB
330
17
100
AcDbEntity
  8
EXCESS_ERROR
100
AcDbPolyline
 90
10
 70
1
 10
214016.29379940045
 20
469092.84019638103
 10
214016.2937994004
 20
469092.8401963812
 10
214019.951607776
 20
469093.0211045539
 10
214019.95160777602
 20
469093.02110455383
 10
214019.951607776
 20
469093.02110455383
 10
214025.8464706711
 20
469073.800419022
 10
214025.1084552692
 20
469073.5806714501
 10
214024.5438262442
 20
469074.1341513533
 10
214022.4602251802
 20
469072.1100233793
 10
214016.29379940045
 20
469092.84019638103
  0
LWPOLYLINE
  5
CC
330
17
100
AcDbEntity
  8
EXCESS_ERROR
100
AcDbPolyline
 90
15
 70
1
 10
213577.4466087781
 20
469358.0455237586
 10
213578.4291347794
 20
469360.6294699576
 10
213578.8965809458
 20
469360.5513373056
 10
213579.3937698722
 20
469363.5770180509
 10
213577.4931061043
 20
469364.1851639358
 10
213582.1513385137
 20
469382.2910034207
 10
213582.5072468176
 20
469387.5217971512
 10
213582.2438186475
 20
469387.5779727654
 10
213582.2892973056
 20
469390.3096877657
 10
213585.2195212863
 20
469389.8744782209
 10
213585.1908303523
 20
469389.5663107524
 10
213586.2108331248
 20
469389.4310142213
 10
213586.2363039509
 20
469389.256610906
 10
213580.3263155813
 20
469357.1363957522
 10
213577.4466087781
 20
469358.0455237586
  0
LWPOLYLINE
  5
CD
330
17
100
AcDbEntity
  8
EXCESS_ERROR
100
AcDbPolyline
 90
9
 70
1
 10
214083.0418870716
 20
469513.3104144808
 10
214080.8445381796
 20
469512.7859848581
 10
214079.921045436
 20
469513.2568449603
 10
214079.257513893
 20
469515.1861766671
 10
214088.8155717872
 20
469532.83686034
 10
214090.954485594
 20
469533.374772177
 10
214091.7849964067
 20
469532.9201656384
 10
214092.5484739026
 20
469530.6662123496
 10
214083.0418870716
 20
469513.3104144808
  0
LWPOLYLINE
  5
CE
330
17
100
AcDbEntity
  8
EXCESS_ERROR
100
AcDbPolyline
 90
14
 70
1
 10
213725.9218186299
 20
469561.3622645923
 10
213700.5262680015
 20
469560.1820995693
 10
213685.8721700602
 20
469559.676820309
 10
213650.6600985641
 20
469559.4701851601
 10
213651.0194849945
 20
469576.5400328388
 10
213663.9588699546
 20
469576.490614816
 10
213697.0384580288
 20
469576.9173434682
 10
213724.7953592275
 20
469578.1096764689
 10
213734.2061524207
 20
469578.7416319254
 10
213739.0648215435
 20
469579.067902241
 10
213770.7251891789
 20
469581.3696195439
 10
213771.6063871556
 20
469564.4740576368
 10
213734.2061524207
 20
469561.926549932
 10
213725.9218186299
 20
469561.3622645923
  0
LWPOLYLINE
  5
CF
330
17
100
AcDbEntity
  8
EXCESS_ERROR
100
AcDbPolyline
 90
8
 70
1
 10
214342.7051
 20
466994.6906999999
 10
214342.2435
 20
466994.6339
 10
214342.0697
 20
466999.2546
 10
214344.9059
 20
466999.2885
 10
214344.9106
 20
466998.6098999999
 10
214360.0948
 20
466999.4190999999
 10
214360.3338177999
 20
466996.0462398458
 10
214342.7051
 20
466994.6906999999
  0
LWPOLYLINE
  5
D0
330
17
100
AcDbEntity
  8
EXCESS_ERROR
100
AcDbPolyline
 90
7
 70
1
 10
214406.3574
 20
467045.9541999999
 10
214406.3713387755
 20
467045.7022265092
 10
214406.8421
 20
467037.1922
 10
214395.7208999999
 20
467036.7934
 10
214395.7171934703
 20
467036.884931951
 10
214395.37
 20
467045.4588000001
 10
214406.3574
 20
467045.9541999999
  0
LWPOLYLINE
  5
D1
330
17
100
AcDbEntity
  8
EXCESS_ERROR
100
AcDbPolyline
 90
9
 70
1
 10
214429.1431
 20
467061.0591
 10
214429.4851585374
 20
467052.6215510398
 10
214427.8289
 20
467052.6397
 10
214427.8694
 20
467050.9124
 10
214423.9086384083
 20
467050.8195320299
 10
214423.8489000001
 20
467049.4013999999
 10
214418.9591
 20
467049.3506
 10
214418.4327
 20
467060.6249
 10
214429.1431
 20
467061.0591
  0
LWPOLYLINE
  5
D2
330
17
100
AcDbEntity
  8
EXCESS_ERROR
100
AcDbPolyline
 90
7
 70
1
 10
214476.7687999999
 20
467006.2011
 10
214470.3350999999
 20
467001.4887999999
 10
214469.6386431605
 20
467002.4396720512
 10
214468.9278702661
 20
467001.9190734671
 10
214465.8592
 20
467005.0192
 10
214472.8379
 20
467010.7546999999
 10
214476.7687999999
 20
467006.2011
  0
LWPOLYLINE
  5
D3
330
17
100
AcDbEntity
  8
EXCESS_ERROR
100
AcDbPolyline
 90
5
 70
1
 10
214471.4685999999
 20
467013.3818
 10
214463.4359
 20
467006.1538
 10
214459.1951
 20
467010.6273
 10
214467.1574
 20
467017.9749999999
 10
214471.4685999999
 20
467013.3818
  0
LWPOLYLINE
  5
D4
330
17
100
AcDbEntity
  8
EXCESS_ERROR
100
AcDbPolyline
 90
7
 70
1
 10
214468.4672
 20
467018.5891
 10
214476.0407688325
 20
467023.28895926
 10
214478.5645
 20
467023.8204
 10
214479.5435
 20
467024.1947
 10
214481.8705
 20
467019.7461999999
 10
214471.6369000001
 20
467013.4812999999
 10
214468.4672
 20
467018.5891
  0
LWPOLYLINE
  5
D5
330
17
100
AcDbEntity
  8
EXCESS_ERROR
100
AcDbPolyline
 90
11
 70
1
 10
214405.8001
 20
467056.8067
 10
214405.80089137823
 20
467056.7869404625
 10
214406.1558
 20
467047.9253999999
 10
214401.9259
 20
467047.8199
 10
214401.8091
 20
467049.2716
 10
214399.4994
 20
467049.2712
 10
214399.499573409
 20
467048.2698926178
 10
214394.786500489
 20
467048.2690763956
 10
214394.5399
 20
467048.6241
 10
214394.126
 20
467056.0777000001
 10
214405.8001
 20
467056.8067
  0
LWPOLYLINE
  5
D6
330
17
100
AcDbEntity
  8
EXCESS_ERROR
100
AcDbPolyline
 90
21
 70
1
 10
214411.7883999999
 20
467060.1009000001
 10
214411.836375952
 20
467058.8752368017
 10
214415.5354
 20
467058.9521
 10
214415.5463819802
 20
467058.4235946919
 10
214416.3912194806
 20
467058.4411498396
 10
214416.4956
 20
467055.9123
 10
214418.1505729216
 20
467055.9806104747
 10
214418.2661962644
 20
467053.17937827
 10
214416.5204797567
 20
467053.1073222732
 10
214416.6237115559
 20
467050.6063027288
 10
214416.1892663164
 20
467050.5883706161
 10
214416.2439505493
 20
467049.2635236622
 10
214412.3964999999
 20
467049.1907
 10
214412.4153724601
 20
467048.193622192
 10
214411.8280011823
 20
467048.182504563
 10
214411.8471952719
 20
467047.1684342976
 10
214408.3372785564
 20
467047.1019993984
 10
214408.2123
 20
467047.9972
 10
214407.4804
 20
467047.9869
 10
214407.1311
 20
467059.9185999999
 10
214411.7883999999
 20
467060.1009000001
  0
LWPOLYLINE
  5
D7
330
17
100
AcDbEntity
  8
EXCESS_ERROR
100
AcDbPolyline
 90
13
 70
1
 10
214119.8862
 20
466931.4314
 10
214118.7577999999
 20
466931.3692
 10
214118.6359
 20
466934.3561
 10
214119.8086
 20
466934.4182
 10
214119.7268
 20
466936.2325
 10
214133.8871999999
 20
466936.8665
 10
214134.1771
 20
466931.4456
 10
214136.6897
 20
466928.8924
 10
214136.8152
 20
466926.923
 10
214138.3642
 20
466927.0501
 10
214138.4416
 20
466924.0191
 10
214120.2098
 20
466923.1124
 10
214119.8862
 20
466931.4314
  0
LWPOLYLINE
  5
D8
330
17
100
AcDbEntity
  8
EXCESS_ERROR
100
AcDbPolyline
 90
14
 70
1
 10
214051.9827999999
 20
467296.1748
 10
214053.6867
 20
467296.3013
 10
214053.4313999999
 20
467299.0896
 10
214065.4453
 20
467299.5545
 10
214065.7227
 20
467296.7439999999
 10
214065.9661
 20
467296.7652
 10
214066.1337
 20
467294.1985
 10
214064.9832
 20
467294.1584
 10
214065.1276
 20
467291.3041
 10
214058.0913
 20
467290.8873999999
 10
214058.1538
 20
467289.8253
 10
214052.6225999999
 20
467289.6464
 10
214052.2743
 20
467291.1963
 10
214051.9827999999
 20
467296.1748
  0
LWPOLYLINE
  5
D9
330
17
100
AcDbEntity
  8
EXCESS_ERROR
100
AcDbPolyline
 90
5
 70
1
 10
214782.851
 20
466848.2079999999
 10
214771.609
 20
466891.51
 10
214782.082
 20
466894.3060000001
 10
214793.0039999998
 20
466850.9779999999
 10
214782.851
 20
466848.2079999999
  0
LWPOLYLINE
  5
DA
330
17
100
AcDbEntity
  8
EXCESS_ERROR
100
AcDbPolyline
 90
7
 70
1
 10
214803.2469999999
 20
466895.1210000001
 10
214813.65003353928
 20
466855.0315267846
 10
214813.6500335392
 20
466855.0315267846
 10
214813.748
 20
466854.654
 10
214801.0589999999
 20
466851.5659999999
 10
214790.82
 20
466891.8579999998
 10
214803.2469999999
 20
466895.1210000001
  0
LWPOLYLINE
  5
DB
330
17
100
AcDbEntity
  8
EXCESS_ERROR
100
AcDbPolyline
 90
5
 70
1
 10
214793.611
 20
466850.363
 10
214782.57
 20
466894.6629999999
 10
214789.424
 20
466896.466
 10
214800.715
 20
466852.058
 10
214793.611
 20
466850.363
  0
LWPOLYLINE
  5
DC
330
17
100
AcDbEntity
  8
EXCESS_ERROR
100
AcDbPolyline
 90
9
 70
1
 10
214807.6007999998
 20
466883.844
 10
214808.2197
 20
466884.0423999999
 10
214810.8039
 20
466873.9629
 10
214810.0858
 20
466873.7995
 10
214814.9531
 20
466855.3985
 10
214813.6500335392
 20
466855.0315267846
 10
214803.3943281875
 20
466894.5532512366
 10
214804.7251
 20
466894.8964000001
 10
214807.6007999998
 20
466883.844
  0
LWPOLYLINE
  5
DD
330
17
100
AcDbEntity
  8
EXCESS_ERROR
100
AcDbPolyline
 90
8
 70
1
 10
214813.141
 20
466915.9387999999
 10
214814.6032
 20
466906.6291
 10
214819.6767
 20
466879.2484999999
 10
214815.3882
 20
466878.2804
 10
214811.7183
 20
466900.0315
 10
214810.4038
 20
466899.7027
 10
214808.7297
 20
466910.1998
 10
214813.141
 20
466915.9387999999
  0
LWPOLYLINE
  5
DE
330
17
100
AcDbEntity
  8
EXCESS_ERROR
100
AcDbPolyline
 90
6
 70
1
 10
214885.666
 20
467039.453
 10
214871.2219999999
 20
467031.6179999999
 10
214868.9419999999
 20
467036.086
 10
214883.2089999999
 20
467043.8599999999
 10
214885.666
 20
467039.4650000001
 10
214885.666
 20
467039.453
  0
LWPOLYLINE
  5
DF
330
17
100
AcDbEntity
  8
EXCESS_ERROR
100
AcDbPolyline
 90
5
 70
1
 10
214745.743
 20
467066.58
 10
214738.186
 20
467074.122
 10
214745.0019999999
 20
467081.226
 10
214752.561
 20
467073.3730000001
 10
214745.743
 20
467066.58
  0
LWPOLYLINE
  5
E0
330
17
100
AcDbEntity
  8
EXCESS_ERROR
100
AcDbPolyline
 90
5
 70
1
 10
215086.142
 20
466957.106
 10
215084.448
 20
466952.775
 10
215059.122
 20
466963.196
 10
215060.689
 20
466967.1679999999
 10
215086.142
 20
466957.106
  0
LWPOLYLINE
  5
E1
330
17
100
AcDbEntity
  8
EXCESS_ERROR
100
AcDbPolyline
 90
6
 70
1
 10
215218.8520000001
 20
467095.414
 10
215236.398
 20
467095.312
 10
215236.442
 20
467093.667
 10
215234.42
 20
467092.396
 10
215218.957
 20
467091.758
 10
215218.8520000001
 20
467095.414
  0
LWPOLYLINE
  5
E2
330
17
100
AcDbEntity
  8
EXCESS_ERROR
100
AcDbPolyline
 90
5
 70
1
 10
215217.4549999998
 20
467101.29
 10
215238.629
 20
467100.992
 10
215238.466
 20
467095.428
 10
215217.7270000001
 20
467095.501
 10
215217.4549999998
 20
467101.29
  0
LWPOLYLINE
  5
E3
330
17
100
AcDbEntity
  8
EXCESS_ERROR
100
AcDbPolyline
 90
5
 70
1
 10
215218.1969999998
 20
467101.912
 10
215218.255
 20
467107.256
 10
215238.999
 20
467107.434
 10
215239.021
 20
467101.717
 10
215218.1969999998
 20
467101.912
  0
LWPOLYLINE
  5
E4
330
17
100
AcDbEntity
  8
EXCESS_ERROR
100
AcDbPolyline
 90
7
 70
1
 10
214701.6274999999
 20
467229.2
 10
214701.6245
 20
467236.3126
 10
214724.6073503602
 20
467237.3204876111
 10
214727.7134
 20
467237.4567
 10
214727.941
 20
467230.5019
 10
214724.6193940157
 20
467230.3375585467
 10
214701.6274999999
 20
467229.2
  0
LWPOLYLINE
  5
E5
330
17
100
AcDbEntity
  8
EXCESS_ERROR
100
AcDbPolyline
 90
7
 70
1
 10
214937.374
 20
467278.011
 10
214930.2019999999
 20
467289.0269999999
 10
214933.137
 20
467290.862
 10
214936.915
 20
467284.8609999999
 10
214937.922
 20
467285.406
 10
214941.0759999998
 20
467280.315
 10
214937.374
 20
467278.011
  0
LWPOLYLINE
  5
E6
330
17
100
AcDbEntity
  8
EXCESS_ERROR
100
AcDbPolyline
 90
8
 70
1
 10
214727.2939
 20
467237.6182999999
 10
214724.6070315629
 20
467237.5053267511
 10
214701.5438
 20
467236.5356
 10
214699.2302
 20
467236.9309999999
 10
214699.3133
 20
467242.6232
 10
214724.5950271182
 20
467244.4655213713
 10
214727.294
 20
467244.6622
 10
214727.2939
 20
467237.6182999999
  0
LWPOLYLINE
  5
E7
330
17
100
AcDbEntity
  8
EXCESS_ERROR
100
AcDbPolyline
 90
5
 70
1
 10
215048.842
 20
467242.917
 10
215062.3159999998
 20
467251.3109999999
 10
215080.6629999999
 20
467221.624
 10
215067.368
 20
467213.1989999999
 10
215048.842
 20
467242.917
  0
LWPOLYLINE
  5
E8
330
17
100
AcDbEntity
  8
EXCESS_ERROR
100
AcDbPolyline
 90
5
 70
1
 10
215078.361
 20
467235.0629999999
 10
215074.008
 20
467232.4470000001
 10
215067.006
 20
467244.041
 10
215071.02
 20
467246.53
 10
215078.361
 20
467235.0629999999
  0
LWPOLYLINE
  5
E9
330
17
100
AcDbEntity
  8
EXCESS_ERROR
100
AcDbPolyline
 90
5
 70
1
 10
215362.6584749317
 20
467359.4365943542
 10
215366.3572571186
 20
467364.2005143152
 10
215378.0105173467
 20
467357.4452205399
 10
215374.2885322952
 20
467352.430519386
 10
215362.6584749317
 20
467359.4365943542
  0
LWPOLYLINE
  5
EA
330
17
100
AcDbEntity
  8
EXCESS_ERROR
100
AcDbPolyline
 90
7
 70
1
 10
215340.167
 20
467378.36
 10
215350.5539999998
 20
467379.4420000001
 10
215353.333
 20
467379.831
 10
215353.976
 20
467375.73
 10
215351.23
 20
467375.3370000001
 10
215340.757
 20
467374.3159999999
 10
215340.167
 20
467378.36
  0
LWPOLYLINE
  5
EB
330
17
100
AcDbEntity
  8
EXCESS_ERROR
100
AcDbPolyline
 90
5
 70
1
 10
215230.7747072573
 20
467337.4358660075
 10
215229.0782614779
 20
467342.1170111093
 10
215240.0127735678
 20
467346.4492749138
 10
215241.6271810124
 20
467341.9839580561
 10
215230.7747072573
 20
467337.4358660075
  0
LWPOLYLINE
  5
EC
330
17
100
AcDbEntity
  8
EXCESS_ERROR
100
AcDbPolyline
 90
5
 70
1
 10
215263.7384258445
 20
467523.7711004363
 10
215264.4497
 20
467524.4784
 10
215278.7368
 20
467518.1803
 10
215273.3747
 20
467513.0811
 10
215263.7384258445
 20
467523.7711004363
  0
LWPOLYLINE
  5
ED
330
17
100
AcDbEntity
  8
EXCESS_ERROR
100
AcDbPolyline
 90
5
 70
1
 10
214724.3571
 20
467255.8265000001
 10
214716.632
 20
467252.1845
 10
214713.5691
 20
467258.3648999999
 10
214721.2113
 20
467261.9353
 10
214724.3571
 20
467255.8265000001
  0
LWPOLYLINE
  5
EE
330
17
100
AcDbEntity
  8
EXCESS_ERROR
100
AcDbPolyline
 90
7
 70
1
 10
214816.896
 20
467426.3729999998
 10
214822.003
 20
467424.0679999999
 10
214828.221
 20
467421.2620000001
 10
214826.2719999999
 20
467415.954
 10
214814.4849999999
 20
467420.432
 10
214815.9689999999
 20
467424.089
 10
214816.896
 20
467426.3729999998
  0
LWPOLYLINE
  5
EF
330
17
100
AcDbEntity
  8
EXCESS_ERROR
100
AcDbPolyline
 90
7
 70
1
 10
214817.9139999998
 20
467429.119
 10
214820.284
 20
467435.091
 10
214832.4070000001
 20
467429.067
 10
214830.731
 20
467424.0379999999
 10
214830.708
 20
467423.969
 10
214830.5339999998
 20
467424.039
 10
214817.9139999998
 20
467429.119
  0
LWPOLYLINE
  5
F0
330
17
100
AcDbEntity
  8
EXCESS_ERROR
100
AcDbPolyline
 90
7
 70
1
 10
215489.251
 20
467747.097
 10
215488.2269999999
 20
467748.341
 10
215487.7739999999
 20
467747.967
 10
215485.242
 20
467751.0429999998
 10
215492.026
 20
467756.969
 10
215497.355
 20
467753.443
 10
215489.251
 20
467747.097
  0
LWPOLYLINE
  5
F1
330
17
100
AcDbEntity
  8
EXCESS_ERROR
100
AcDbPolyline
 90
5
 70
1
 10
214886.8302973337
 20
467658.3994720005
 10
214878.253844352
 20
467657.9418789251
 10
214878.666873851
 20
467664.8946802197
 10
214886.5600334584
 20
467665.4096980299
 10
214886.8302973337
 20
467658.3994720005
  0
LWPOLYLINE
  5
F2
330
17
100
AcDbEntity
  8
EXCESS_ERROR
100
AcDbPolyline
 90
5
 70
1
 10
214793.255
 20
467646.935
 10
214779.297
 20
467632.338
 10
214776.19
 20
467635.3879999999
 10
214789.624
 20
467650.376
 10
214793.255
 20
467646.935
  0
LWPOLYLINE
  5
F3
330
17
100
AcDbEntity
  8
EXCESS_ERROR
100
AcDbPolyline
 90
5
 70
1
 10
214871.288
 20
467779.744
 10
214862.414
 20
467799.027
 10
214867.518
 20
467800.968
 10
214875.935
 20
467781.919
 10
214871.288
 20
467779.744
  0
LWPOLYLINE
  5
F4
330
17
100
AcDbEntity
  8
EXCESS_ERROR
100
AcDbPolyline
 90
7
 70
1
 10
214507.0265590358
 20
467606.58878839517
 10
214507.0272
 20
467606.5888000001
 10
214507.1066287249
 20
467602.2017730701
 10
214503.9337
 20
467599.5232
 10
214497.8491999999
 20
467599.4095
 10
214497.5382999999
 20
467606.417
 10
214507.0265590358
 20
467606.58878839517
  0
LWPOLYLINE
  5
F5
330
17
100
AcDbEntity
  8
EXCESS_ERROR
100
AcDbPolyline
 90
8
 70
1
 10
214518.85
 20
467690.9724
 10
214516.5879
 20
467690.9273999999
 10
214514.8225
 20
467691.9224
 10
214513.1041
 20
467694.2606999999
 10
214513.1227
 20
467701.7003999999
 10
214518.7426
 20
467701.4237
 10
214518.77435592073
 20
467698.3334704436
 10
214518.85
 20
467690.9724
  0
LWPOLYLINE
  5
F6
330
17
100
AcDbEntity
  8
EXCESS_ERROR
100
AcDbPolyline
 90
5
 70
1
 10
214295.8115
 20
467735.5471000001
 10
214295.8384
 20
467753.2041
 10
214302.1552401839
 20
467753.1944764512
 10
214302.1244
 20
467735.3381
 10
214295.8115
 20
467735.5471000001
  0
LWPOLYLINE
  5
F7
330
17
100
AcDbEntity
  8
EXCESS_ERROR
100
AcDbPolyline
 90
5
 70
1
 10
214193.5321
 20
467759.8536
 10
214198.4663
 20
467760.1231
 10
214199.7037
 20
467741.5803
 10
214194.725
 20
467741.2446
 10
214193.5321
 20
467759.8536
  0
LWPOLYLINE
  5
F8
330
17
100
AcDbEntity
  8
EXCESS_ERROR
100
AcDbPolyline
 90
11
 70
1
 10
214253.515
 20
467820.0705
 10
214253.5907
 20
467810.5356
 10
214249.2987
 20
467810.4407
 10
214249.3011
 20
467811.0821999999
 10
214243.0631
 20
467811.1935
 10
214243.0451
 20
467812.3217999999
 10
214241.6957
 20
467812.3488999999
 10
214241.721
 20
467813.2114999999
 10
214241.3227
 20
467813.1909
 10
214241.2585
 20
467819.8277
 10
214253.515
 20
467820.0705
  0
LWPOLYLINE
  5
F9
330
17
100
AcDbEntity
  8
EXCESS_ERROR
100
AcDbPolyline
 90
11
 70
1
 10
214253.4975
 20
467833.6448
 10
214253.5327
 20
467825.1056
 10
214253.0240000001
 20
467825.1294999999
 10
214253.0642
 20
467824.0233
 10
214241.7596
 20
467823.954
 10
214241.7882
 20
467825.7236
 10
214242.6508
 20
467825.6983999999
 10
214242.6903
 20
467830.4545
 10
214241.65
 20
467830.3033999999
 10
214241.684
 20
467833.5552
 10
214253.4975
 20
467833.6448
  0
LWPOLYLINE
  5
FA
330
17
100
AcDbEntity
  8
EXCESS_ERROR
100
AcDbPolyline
 90
5
 70
1
 10
214183.354994516
 20
468012.9134343487
 10
214207.0480921143
 20
468012.4676103996
 10
214207.0386902525
 20
468007.5970506979
 10
214183.3054300085
 20
468008.1305616432
 10
214183.354994516
 20
468012.9134343487
  0
LWPOLYLINE
  5
FB
330
17
100
AcDbEntity
  8
EXCESS_ERROR
100
AcDbPolyline
 90
5
 70
1
 10
214242.9498161269
 20
468011.8505319548
 10
214242.8504932105
 20
468007.1542336373
 10
214219.1980831307
 20
468007.4859742537
 10
214219.1903150486
 20
468012.3507854205
 10
214242.9498161269
 20
468011.8505319548
  0
LWPOLYLINE
  5
FC
330
17
100
AcDbEntity
  8
EXCESS_ERROR
100
AcDbPolyline
 90
17
 70
1
 10
214164.4730572941
 20
468070.029903699
 10
214164.4735182518
 20
468062.1636775475
 10
214170.9512408221
 20
468062.0444137801
 10
214170.9272260872
 20
468061.7211822078
 10
214202.2168139702
 20
468061.1223710282
 10
214201.7366087483
 20
468041.5122207267
 10
214184.2050715701
 20
468041.8055078382
 10
214184.2052641404
 20
468042.2361659682
 10
214179.089120022
 20
468042.316031824
 10
214179.1048484777
 20
468041.9022746341
 10
214173.9141406831
 20
468042.0508006601
 10
214173.7304608499
 20
468044.9899013381
 10
214166.7701261256
 20
468044.5832418858
 10
214165.893375565
 20
468061.2251426569
 10
214163.4675192478
 20
468061.119806073
 10
214162.9652303026
 20
468069.9718970191
 10
214164.4730572941
 20
468070.029903699
  0
LWPOLYLINE
  5
FD
330
17
100
AcDbEntity
  8
EXCESS_ERROR
100
AcDbPolyline
 90
7
 70
1
 10
214949.0899999999
 20
467827.9540000001
 10
214944.5389999999
 20
467826.9089999999
 10
214946.2197857586
 20
467853.2491977587
 10
214946.812
 20
467862.53
 10
214951.418
 20
467862.745
 10
214950.7825992464
 20
467853.2491977587
 10
214949.0899999999
 20
467827.9540000001
  0
LWPOLYLINE
  5
FE
330
17
100
AcDbEntity
  8
EXCESS_ERROR
100
AcDbPolyline
 90
7
 70
1
 10
214953.115
 20
467865.409
 10
214958.0530000001
 20
467865.075
 10
214957.2544104532
 20
467853.2491977587
 10
214955.6369999999
 20
467829.2980000001
 10
214950.593
 20
467829.1159999999
 10
214952.2700155332
 20
467853.2491977587
 10
214953.115
 20
467865.409
  0
LWPOLYLINE
  5
FF
330
17
100
AcDbEntity
  8
EXCESS_ERROR
100
AcDbPolyline
 90
5
 70
1
 10
214952.755
 20
467955.729
 10
214962.8369999998
 20
467965.3889999999
 10
214965.841
 20
467961.7279999999
 10
214955.79
 20
467952.33
 10
214952.755
 20
467955.729
  0
LWPOLYLINE
  5
100
330
17
100
AcDbEntity
  8
EXCESS_ERROR
100
AcDbPolyline
 90
7
 70
1
 10
215308.9689999999
 20
467848.569
 10
215306.367
 20
467852.881
 10
215306.9545377686
 20
467853.2491977587
 10
215324.306
 20
467864.123
 10
215327.4029999999
 20
467859.8
 10
215316.6508418201
 20
467853.2491977587
 10
215308.9689999999
 20
467848.569
  0
LWPOLYLINE
  5
101
330
17
100
AcDbEntity
  8
EXCESS_ERROR
100
AcDbPolyline
 90
5
 70
1
 10
215528.71
 20
467858.613
 10
215519.028
 20
467859.95
 10
215519.782
 20
467866.586
 10
215529.448
 20
467865.368
 10
215528.71
 20
467858.613
  0
LWPOLYLINE
  5
102
330
17
100
AcDbEntity
  8
EXCESS_ERROR
100
AcDbPolyline
 90
5
 70
1
 10
215201.1340940377
 20
467918.8252457767
 10
215213.2124986825
 20
467920.043701451
 10
215213.6769267189
 20
467915.7025909698
 10
215201.5723337603
 20
467914.3360954917
 10
215201.1340940377
 20
467918.8252457767
  0
LWPOLYLINE
  5
103
330
17
100
AcDbEntity
  8
EXCESS_ERROR
100
AcDbPolyline
 90
5
 70
1
 10
215222.5990682344
 20
467950.3819330165
 10
215227.8535884574
 20
467951.5876024498
 10
215235.1400305688
 20
467924.8741175392
 10
215230.160468775
 20
467923.5704444944
 10
215222.5990682344
 20
467950.3819330165
  0
LWPOLYLINE
  5
104
330
17
100
AcDbEntity
  8
EXCESS_ERROR
100
AcDbPolyline
 90
9
 70
1
 10
214643.5351
 20
468071.8095
 10
214641.8369912326
 20
468071.8928248345
 10
214642.1420384678
 20
468078.1094994578
 10
214655.280248931
 20
468077.4648180133
 10
214654.9766
 20
468068.9308
 10
214650.0451923647
 20
468069.1062644358
 10
214650.0606610685
 20
468069.5410105667
 10
214643.441
 20
468069.8918
 10
214643.5351
 20
468071.8095
  0
LWPOLYLINE
  5
105
330
17
100
AcDbEntity
  8
EXCESS_ERROR
100
AcDbPolyline
 90
7
 70
1
 10
214667.0168
 20
468079.3531
 10
214680.0450840616
 20
468078.6248790073
 10
214679.9239999999
 20
468075.4591
 10
214678.3002465785
 20
468075.5212049853
 10
214678.035
 20
468070.3943
 10
214666.5325
 20
468070.6887
 10
214667.0168
 20
468079.3531
  0
LWPOLYLINE
  5
106
330
17
100
AcDbEntity
  8
EXCESS_ERROR
100
AcDbPolyline
 90
7
 70
1
 10
214656.4699
 20
468080.3670999999
 10
214666.1798
 20
468079.5881
 10
214665.8037999999
 20
468070.9241
 10
214661.1309
 20
468070.905
 10
214661.0251999999
 20
468069.5011
 10
214655.8873
 20
468069.9544
 10
214656.4699
 20
468080.3670999999
  0
LWPOLYLINE
  5
107
330
17
100
AcDbEntity
  8
EXCESS_ERROR
100
AcDbPolyline
 90
9
 70
1
 10
214650.5444
 20
468080.3279
 10
214650.5621326269
 20
468080.8358043403
 10
214644.2786
 20
468081.1964
 10
214644.3913263509
 20
468083.1607045769
 10
214642.2126176408
 20
468083.2857350257
 10
214642.5554348449
 20
468089.2594705129
 10
214656.197
 20
468088.5855
 10
214655.9262999999
 20
468080.14
 10
214650.5444
 20
468080.3279
  0
LWPOLYLINE
  5
108
330
17
100
AcDbEntity
  8
EXCESS_ERROR
100
AcDbPolyline
 90
5
 70
1
 10
215506.82
 20
468065.89
 10
215507.34
 20
468060.31
 10
215497.67
 20
468059.64
 10
215497.26
 20
468065.21
 10
215506.82
 20
468065.89
  0
LWPOLYLINE
  5
109
330
17
100
AcDbEntity
  8
EXCESS_ERROR
100
AcDbPolyline
 90
5
 70
1
 10
215100.218
 20
468072.3079999999
 10
215096.822
 20
468093.946
 10
215103.985
 20
468096.527
 10
215108.22
 20
468073.5379999998
 10
215100.218
 20
468072.3079999999
  0
LWPOLYLINE
  5
10A
330
17
100
AcDbEntity
  8
EXCESS_ERROR
100
AcDbPolyline
 90
5
 70
1
 10
215112.066
 20
468098.316
 10
215116.371
 20
468075.025
 10
215108.553
 20
468073.6630000001
 10
215104.715
 20
468096.972
 10
215112.066
 20
468098.316
  0
LWPOLYLINE
  5
10B
330
17
100
AcDbEntity
  8
EXCESS_ERROR
100
AcDbPolyline
 90
5
 70
1
 10
214968.976
 20
467971.6820000001
 10
214990.256
 20
467991.9960000002
 10
214992.636
 20
467988.556
 10
214971.712
 20
467968.924
 10
214968.976
 20
467971.6820000001
  0
LWPOLYLINE
  5
10C
330
17
100
AcDbEntity
  8
EXCESS_ERROR
100
AcDbPolyline
 90
5
 70
1
 10
215018.73
 20
468030.3499999999
 10
215018.79
 20
468025.1
 10
214993.5
 20
468026.5499999999
 10
214994.0
 20
468031.39
 10
215018.73
 20
468030.3499999999
  0
LWPOLYLINE
  5
10D
330
17
100
AcDbEntity
  8
EXCESS_ERROR
100
AcDbPolyline
 90
5
 70
1
 10
214827.1314
 20
468083.9719
 10
214884.8968
 20
468107.536
 10
214888.6334999998
 20
468093.4178
 10
214832.4083
 20
468070.9516999999
 10
214827.1314
 20
468083.9719
  0
LWPOLYLINE
  5
10E
330
17
100
AcDbEntity
  8
EXCESS_ERROR
100
AcDbPolyline
 90
5
 70
1
 10
215175.3926096625
 20
468190.9086827134
 10
215169.6135022129
 20
468190.6711271806
 10
215169.126072333
 20
468201.0580370582
 10
215174.5925131486
 20
468201.2404627848
 10
215175.3926096625
 20
468190.9086827134
  0
LWPOLYLINE
  5
10F
330
17
100
AcDbEntity
  8
EXCESS_ERROR
100
AcDbPolyline
 90
5
 70
1
 10
215515.5133119313
 20
468313.5364980017
 10
215511.4509313428
 20
468311.9573118069
 10
215506.6031715628
 20
468325.6365256676
 10
215510.8634724354
 20
468327.0687398128
 10
215515.5133119313
 20
468313.5364980017
  0
LWPOLYLINE
  5
110
330
17
100
AcDbEntity
  8
EXCESS_ERROR
100
AcDbPolyline
 90
5
 70
1
 10
215111.53
 20
468309.3359999999
 10
215129.425
 20
468318.7450000001
 10
215131.7489999999
 20
468314.473
 10
215114.155
 20
468304.6370000001
 10
215111.53
 20
468309.3359999999
  0
LWPOLYLINE
  5
111
330
17
100
AcDbEntity
  8
EXCESS_ERROR
100
AcDbPolyline
 90
7
 70
1
 10
214424.2607
 20
467966.5068
 10
214438.9511
 20
467966.4891
 10
214438.9725
 20
467962.5066
 10
214436.1227376148
 20
467962.4603040603
 10
214436.1072
 20
467962.8776
 10
214424.3331177871
 20
467962.8683860108
 10
214424.2607
 20
467966.5068
  0
LWPOLYLINE
  5
112
330
17
100
AcDbEntity
  8
EXCESS_ERROR
100
AcDbPolyline
 90
10
 70
1
 10
214494.9543
 20
467957.2474
 10
214494.9105886108
 20
467959.4291576985
 10
214490.6092177336
 20
467959.3429799822
 10
214490.5563161493
 20
467959.341920102
 10
214490.3968663727
 20
467967.3005044632
 10
214497.9413252476
 20
467967.4516572598
 10
214497.9334526241
 20
467967.844601928
 10
214499.1557746574
 20
467967.8690910787
 10
214499.3616
 20
467957.3357
 10
214494.9543
 20
467957.2474
  0
LWPOLYLINE
  5
113
330
17
100
AcDbEntity
  8
EXCESS_ERROR
100
AcDbPolyline
 90
13
 70
1
 10
214393.1952
 20
468063.9887
 10
214393.0154
 20
468068.5512
 10
214391.4297
 20
468068.6237
 10
214391.4504
 20
468077.2397
 10
214412.1551
 20
468077.4656999999
 10
214412.2333739336
 20
468074.7942235726
 10
214408.36192708233
 20
468074.7387570516
 10
214405.3033029901
 20
468074.6949359057
 10
214405.23088494525
 20
468074.69364716974
 10
214402.6726404662
 20
468074.6481212017
 10
214395.3703
 20
468074.5435000001
 10
214395.6004812794
 20
468064.0381867321
 10
214393.1952
 20
468063.9887
  0
LWPOLYLINE
  5
114
330
17
100
AcDbEntity
  8
EXCESS_ERROR
100
AcDbPolyline
 90
5
 70
1
 10
214526.1254
 20
468615.3283
 10
214526.2587
 20
468607.8780999999
 10
214506.7098
 20
468607.3877
 10
214506.6479
 20
468614.9007
 10
214526.1254
 20
468615.3283
  0
LWPOLYLINE
  5
115
330
17
100
AcDbEntity
  8
EXCESS_ERROR
100
AcDbPolyline
 90
14
 70
1
 10
214574.4027
 20
468616.2120000001
 10
214568.2652
 20
468616.3789
 10
214564.7193999999
 20
468616.3779
 10
214562.9018
 20
468616.2599
 10
214560.3052
 20
468614.0959
 10
214555.9157
 20
468621.7326
 10
214561.3530999999
 20
468624.1276
 10
214565.1889
 20
468624.5817999999
 10
214574.8456
 20
468624.4637
 10
214577.8815999999
 20
468623.7543999999
 10
214581.4051999999
 20
468621.9324
 10
214583.0245
 20
468620.5268000001
 10
214577.9564
 20
468614.6873
 10
214574.4027
 20
468616.2120000001
  0
LWPOLYLINE
  5
116
330
17
100
AcDbEntity
  8
EXCESS_ERROR
100
AcDbPolyline
 90
15
 70
1
 10
214556.5997999999
 20
468688.1345999998
 10
214553.9225999999
 20
468691.0689
 10
214551.1355
 20
468695.7054999999
 10
214549.3401
 20
468699.7888999999
 10
214548.339
 20
468705.0093999999
 10
214547.9757
 20
468709.0461999999
 10
214556.2492999999
 20
468709.975
 10
214556.6692
 20
468704.7321
 10
214557.1187999999
 20
468702.3005
 10
214559.0694
 20
468698.3044
 10
214560.5562
 20
468695.9226
 10
214562.7015
 20
468693.5175000001
 10
214565.2706999999
 20
468691.2133999999
 10
214560.0869
 20
468685.4937
 10
214556.5997999999
 20
468688.1345999998
  0
LWPOLYLINE
  5
117
330
17
100
AcDbEntity
  8
EXCESS_ERROR
100
AcDbPolyline
 90
15
 70
1
 10
214386.6068
 20
468795.5447
 10
214386.728
 20
468797.8195
 10
214392.3349
 20
468797.6672
 10
214392.7478
 20
468807.5994
 10
214393.397
 20
468807.6248
 10
214393.2804999999
 20
468802.284
 10
214393.8208
 20
468802.2764
 10
214393.6576
 20
468790.7764
 10
214392.9528
 20
468788.2217
 10
214390.1884
 20
468789.6209
 10
214391.7193
 20
468792.4572
 10
214391.5938
 20
468794.2207
 10
214381.2400999999
 20
468794.6611
 10
214381.3288
 20
468795.6101
 10
214386.6068
 20
468795.5447
  0
LWPOLYLINE
  5
118
330
17
100
AcDbEntity
  8
EXCESS_ERROR
100
AcDbPolyline
 90
5
 70
1
 10
214678.8019
 20
469156.8554
 10
214674.6083883144
 20
469176.5465743874
 10
214680.6177
 20
469177.7684
 10
214684.925
 20
469158.1594
 10
214678.8019
 20
469156.8554
  0
LWPOLYLINE
  5
119
330
17
100
AcDbEntity
  8
EXCESS_ERROR
100
AcDbPolyline
 90
5
 70
1
 10
214690.7754
 20
469159.6412
 10
214684.925
 20
469158.1594
 10
214680.6177
 20
469177.7684
 10
214686.5255999999
 20
469179.2491
 10
214690.7754
 20
469159.6412
  0
LWPOLYLINE
  5
11A
330
17
100
AcDbEntity
  8
EXCESS_ERROR
100
AcDbPolyline
 90
5
 70
1
 10
214692.6668
 20
469180.7157
 10
214696.5789189886
 20
469160.8990498969
 10
214690.7754
 20
469159.6412
 10
214686.5255999999
 20
469179.2491
 10
214692.6668
 20
469180.7157
  0
LWPOLYLINE
  5
11B
330
17
100
AcDbEntity
  8
EXCESS_ERROR
100
AcDbPolyline
 90
5
 70
1
 10
214678.4621
 20
469185.6687
 10
214680.888
 20
469191.1087
 10
214689.937
 20
469187.1714
 10
214687.3696
 20
469181.6353
 10
214678.4621
 20
469185.6687
  0
LWPOLYLINE
  5
11C
330
17
100
AcDbEntity
  8
EXCESS_ERROR
100
AcDbPolyline
 90
9
 70
1
 10
214645.7152
 20
469054.6342
 10
214640.6253
 20
469051.6219
 10
214640.0062
 20
469051.6341000001
 10
214639.2295
 20
469051.8807
 10
214634.5355
 20
469058.9607
 10
214634.499
 20
469059.3118999999
 10
214634.5866
 20
469060.1054
 10
214639.929
 20
469063.7449
 10
214645.7152
 20
469054.6342
  0
LWPOLYLINE
  5
11D
330
17
100
AcDbEntity
  8
EXCESS_ERROR
100
AcDbPolyline
 90
5
 70
1
 10
215001.238
 20
468471.9310000001
 10
215001.826
 20
468467.8729999999
 10
214987.006
 20
468466.141
 10
214986.604
 20
468470.4329999999
 10
215001.238
 20
468471.9310000001
  0
LWPOLYLINE
  5
11E
330
17
100
AcDbEntity
  8
EXCESS_ERROR
100
AcDbPolyline
 90
6
 70
1
 10
215410.27
 20
468650.61
 10
215402.42
 20
468634.69
 10
215399.94
 20
468635.34
 10
215402.88
 20
468647.38
 10
215404.76
 20
468652.89
 10
215410.27
 20
468650.61
  0
LWPOLYLINE
  5
11F
330
17
100
AcDbEntity
  8
EXCESS_ERROR
100
AcDbPolyline
 90
5
 70
1
 10
214779.3934529536
 20
468562.1333543106
 10
214777.526220315
 20
468545.1518929827
 10
214773.8568967282
 20
468545.5600143753
 10
214775.8593520914
 20
468562.5153514389
 10
214779.3934529536
 20
468562.1333543106
  0
LWPOLYLINE
  5
120
330
17
100
AcDbEntity
  8
EXCESS_ERROR
100
AcDbPolyline
 90
8
 70
1
 10
214752.055
 20
468590.159
 10
214754.588
 20
468594.854
 10
214756.606
 20
468593.7980000001
 10
214761.7729999999
 20
468591.092
 10
214765.1080000001
 20
468588.3519999999
 10
214762.669
 20
468583.7379999997
 10
214756.606
 20
468587.406
 10
214752.055
 20
468590.159
  0
LWPOLYLINE
  5
121
330
17
100
AcDbEntity
  8
EXCESS_ERROR
100
AcDbPolyline
 90
9
 70
1
 10
214756.0729999999
 20
468707.121
 10
214752.515
 20
468706.953
 10
214752.444
 20
468710.1420000001
 10
214751.593
 20
468747.9930000001
 10
214752.48
 20
468748.064
 10
214752.53
 20
468746.953
 10
214755.147
 20
468747.058
 10
214756.0019999999
 20
468710.143
 10
214756.0729999999
 20
468707.121
  0
LWPOLYLINE
  5
122
330
17
100
AcDbEntity
  8
EXCESS_ERROR
100
AcDbPolyline
 90
6
 70
1
 10
214788.6854
 20
468853.7037
 10
214788.4265
 20
468844.3574999999
 10
214787.3974999999
 20
468826.0055999999
 10
214784.1847
 20
468826.2755
 10
214785.5319
 20
468853.8032
 10
214788.6854
 20
468853.7037
  0
LWPOLYLINE
  5
123
330
17
100
AcDbEntity
  8
EXCESS_ERROR
100
AcDbPolyline
 90
5
 70
1
 10
214741.1900586158
 20
468908.7591058326
 10
214743.3859927355
 20
468904.7908730522
 10
214732.8754047357
 20
468899.2825892404
 10
214730.7307033475
 20
468902.8174359036
 10
214741.1900586158
 20
468908.7591058326
  0
LWPOLYLINE
  5
124
330
17
100
AcDbEntity
  8
EXCESS_ERROR
100
AcDbPolyline
 90
5
 70
1
 10
214945.1541
 20
469130.0212
 10
214941.2219999998
 20
469128.5472999999
 10
214935.1008
 20
469143.5853
 10
214939.053
 20
469144.8287
 10
214945.1541
 20
469130.0212
  0
LWPOLYLINE
  5
125
330
17
100
AcDbEntity
  8
EXCESS_ERROR
100
AcDbPolyline
 90
5
 70
1
 10
215227.0704455472
 20
468877.2581729259
 10
215223.8553452658
 20
468877.5670449979
 10
215227.7939221432
 20
468895.2225229502
 10
215230.9582123644
 20
468894.9719446966
 10
215227.0704455472
 20
468877.2581729259
  0
LWPOLYLINE
  5
126
330
17
100
AcDbEntity
  8
EXCESS_ERROR
100
AcDbPolyline
 90
5
 70
1
 10
215394.898
 20
468927.635
 10
215409.556
 20
468953.4019999999
 10
215416.2009999998
 20
468949.621
 10
215402.0309999999
 20
468923.52
 10
215394.898
 20
468927.635
  0
LWPOLYLINE
  5
127
330
17
100
AcDbEntity
  8
EXCESS_ERROR
100
AcDbPolyline
 90
5
 70
1
 10
215577.8
 20
468927.29
 10
215573.3
 20
468923.88
 10
215566.3099999999
 20
468933.14
 10
215570.96
 20
468936.83
 10
215577.8
 20
468927.29
  0
LWPOLYLINE
  5
128
330
17
100
AcDbEntity
  8
EXCESS_ERROR
100
AcDbPolyline
 90
11
 70
1
 10
215336.25
 20
469013.7
 10
215322.3399999999
 20
469020.74
 10
215316.92544060366
 20
469017.0108311851
 10
215316.7499999999
 20
469016.89
 10
215315.22
 20
469019.37
 10
215315.39719210414
 20
469019.4915494617
 10
215321.78
 20
469023.87
 10
215337.4
 20
469016.84
 10
215337.1320710486
 20
469016.1084374719
 10
215337.13207104866
 20
469016.108437472
 10
215336.25
 20
469013.7
  0
LWPOLYLINE
  5
129
330
17
100
AcDbEntity
  8
EXCESS_ERROR
100
AcDbPolyline
 90
5
 70
1
 10
215178.726
 20
469304.5029999999
 10
215173.3489999998
 20
469305.244
 10
215182.1270000001
 20
469354.3239999999
 10
215187.8469999999
 20
469353.343
 10
215178.726
 20
469304.5029999999
  0
LWPOLYLINE
  5
12A
330
17
100
AcDbEntity
  8
EXCESS_ERROR
100
AcDbPolyline
 90
5
 70
1
 10
214764.9
 20
468925.3599999999
 10
214762.57
 20
468924.04
 10
214754.0799999998
 20
468939.78
 10
214756.7
 20
468941.13
 10
214764.9
 20
468925.3599999999
  0
LWPOLYLINE
  5
12B
330
17
100
AcDbEntity
  8
EXCESS_ERROR
100
AcDbPolyline
 90
5
 70
1
 10
214935.7469999999
 20
469192.588
 10
214926.385
 20
469188.901
 10
214925.321
 20
469194.2079999999
 10
214934.4589999999
 20
469197.804
 10
214935.7469999999
 20
469192.588
  0
LWPOLYLINE
  5
12C
330
17
100
AcDbEntity
  8
EXCESS_ERROR
100
AcDbPolyline
 90
5
 70
1
 10
214749.9064733096
 20
469210.1227269009
 10
214748.7689
 20
469202.3196
 10
214727.1047
 20
469205.4779
 10
214728.0955
 20
469213.1737
 10
214749.9064733096
 20
469210.1227269009
  0
LWPOLYLINE
  5
12D
330
17
100
AcDbEntity
  8
EXCESS_ERROR
100
AcDbPolyline
 90
6
 70
1
 10
214705.9397
 20
469322.5599
 10
214705.01301375323
 20
469320.8739569453
 10
214704.2134
 20
469319.4191999999
 10
214690.6305999999
 20
469326.3591
 10
214692.2217
 20
469329.4148999998
 10
214705.9397
 20
469322.5599
  0
LWPOLYLINE
  5
12E
330
17
100
AcDbEntity
  8
EXCESS_ERROR
100
AcDbPolyline
 90
5
 70
1
 10
214705.1387999999
 20
469448.7987
 10
214697.1842
 20
469426.3719000001
 10
214691.5567
 20
469428.2408000001
 10
214699.408
 20
469450.7777
 10
214705.1387999999
 20
469448.7987
  0
LWPOLYLINE
  5
12F
330
17
100
AcDbEntity
  8
EXCESS_ERROR
100
AcDbPolyline
 90
8
 70
1
 10
215077.21
 20
469416.352
 10
215080.2524665111
 20
469412.4494459876
 10
215088.657
 20
469401.669
 10
215082.106
 20
469396.3240000001
 10
215070.166
 20
469410.3609999999
 10
215072.6215188678
 20
469412.4494459877
 10
215072.6215188678
 20
469412.4494459876
 10
215077.21
 20
469416.352
  0
LWPOLYLINE
  5
130
330
17
100
AcDbEntity
  8
EXCESS_ERROR
100
AcDbPolyline
 90
8
 70
1
 10
215055.094
 20
469427.715
 10
215059.2179999998
 20
469432.63
 10
215074.069
 20
469414.3079999999
 10
215071.7152700701
 20
469412.4494459876
 10
215069.0589999999
 20
469410.352
 10
215067.3720315488
 20
469412.4494459876
 10
215067.3720315487
 20
469412.4494459876
 10
215055.094
 20
469427.715
  0
LWPOLYLINE
  5
131
330
17
100
AcDbEntity
  8
EXCESS_ERROR
100
AcDbPolyline
 90
5
 70
1
 10
215037.0887164569
 20
469465.6990873968
 10
215026.4873678638
 20
469481.1267855022
 10
215029.0497864999
 20
469482.9583310509
 10
215039.5833909987
 20
469467.5639519249
 10
215037.0887164569
 20
469465.6990873968
  0
LWPOLYLINE
  5
132
330
17
100
AcDbEntity
  8
EXCESS_ERROR
100
AcDbPolyline
 90
5
 70
1
 10
215007.577
 20
469277.6629999999
 10
215004.617
 20
469273.073
 10
214996.577
 20
469278.583
 10
214999.1270000001
 20
469283.1929999999
 10
215007.577
 20
469277.6629999999
  0
LWPOLYLINE
  5
133
330
17
100
AcDbEntity
  8
EXCESS_ERROR
100
AcDbPolyline
 90
5
 70
1
 10
215054.916
 20
469438.475
 10
215050.4689999999
 20
469435.152
 10
215039.647
 20
469448.715
 10
215044.103
 20
469452.2789999999
 10
215054.916
 20
469438.475
  0
LWPOLYLINE
  5
134
330
17
100
AcDbEntity
  8
EXCESS_ERROR
100
AcDbPolyline
 90
5
 70
1
 10
215023.815
 20
469450.3939999999
 10
214996.53
 20
469478.794
 10
215000.656
 20
469483.154
 10
215028.0589999999
 20
469454.304
 10
215023.815
 20
469450.3939999999
  0
LWPOLYLINE
  5
135
330
17
100
AcDbEntity
  8
EXCESS_ERROR
100
AcDbPolyline
 90
9
 70
1
 10
214795.3159033306
 20
469400.9113582152
 10
214802.0569881805
 20
469421.5597338397
 10
214788.8201812104
 20
469426.017229583
 10
214791.2861610375
 20
469432.1669326973
 10
214806.082670244
 20
469427.0416598956
 10
214804.1429697089
 20
469421.3644034278
 10
214808.4670931881
 20
469419.8879278576
 10
214802.0811358771
 20
469398.6833307326
 10
214795.3159033306
 20
469400.9113582152
  0
LWPOLYLINE
  5
136
330
17
100
AcDbEntity
  8
EXCESS_ERROR
100
AcDbPolyline
 90
11
 70
1
 10
214746.5363971939
 20
469420.5476274667
 10
214745.090060523
 20
469421.0019013267
 10
214744.5864134722
 20
469419.5642735002
 10
214753.2092549337
 20
469417.0984297834
 10
214753.4294060726
 20
469417.8708887348
 10
214759.1598808926
 20
469416.2552983734
 10
214757.7609263398
 20
469411.9654256203
 10
214740.7571769167
 20
469416.9387446961
 10
214744.2467871498
 20
469427.8629372895
 10
214748.3778732913
 20
469426.8129231861
 10
214746.5363971939
 20
469420.5476274667
  0
LWPOLYLINE
  5
137
330
17
100
AcDbEntity
  8
EXCESS_ERROR
100
AcDbPolyline
 90
5
 70
1
 10
214884.4659999999
 20
469514.4120000001
 10
214879.275
 20
469499.9120000001
 10
214875.045
 20
469501.324
 10
214879.595
 20
469515.857
 10
214884.4659999999
 20
469514.4120000001
  0
LWPOLYLINE
  5
138
330
17
100
AcDbEntity
  8
EXCESS_ERROR
100
AcDbPolyline
 90
5
 70
1
 10
214854.725
 20
469539.738
 10
214827.976
 20
469551.3
 10
214828.987
 20
469553.469
 10
214855.594
 20
469541.8670000001
 10
214854.725
 20
469539.738
  0
LWPOLYLINE
  5
139
330
17
100
AcDbEntity
  8
EXCESS_ERROR
100
AcDbPolyline
 90
8
 70
1
 10
214866.461
 20
469569.213
 10
214868.8941524207
 20
469575.5211729426
 10
214869.188
 20
469576.283
 10
214872.457
 20
469580.9210000001
 10
214875.404
 20
469579.626
 10
214870.291
 20
469568.001
 10
214868.8941524207
 20
469568.44303114
 10
214866.461
 20
469569.213
  0
LWPOLYLINE
  5
13A
330
17
100
AcDbEntity
  8
EXCESS_ERROR
100
AcDbPolyline
 90
5
 70
1
 10
214877.816
 20
469566.498
 10
214871.414
 20
469567.846
 10
214880.863
 20
469591.411
 10
214886.206
 20
469589.1779999999
 10
214877.816
 20
469566.498
  0
ENDSEC
  0
SECTION
  2
OBJECTS
  0
DICTIONARY
  5
A
330
0
100
AcDbDictionary
281
1
  3
ACAD_COLOR
350
B
  3
ACAD_GROUP
350
C
  3
ACAD_LAYOUT
350
D
  3
ACAD_MATERIAL
350
E
  3
ACAD_MLEADERSTYLE
350
F
  3
ACAD_MLINESTYLE
350
10
  3
ACAD_PLOTSETTINGS
350
11
  3
ACAD_PLOTSTYLENAME
350
12
  3
ACAD_SCALELIST
350
14
  3
ACAD_TABLESTYLE
350
15
  3
ACAD_VISUALSTYLE
350
16
  3
EZDXF_META
350
2D
  0
DICTIONARY
  5
B
330
A
100
AcDbDictionary
281
1
  0
DICTIONARY
  5
C
330
A
100
AcDbDictionary
281
1
  0
DICTIONARY
  5
D
330
A
100
AcDbDictionary
281
1
  3
Model
350
1A
  3
Layout1
350
1E
  0
DICTIONARY
  5
E
330
A
100
AcDbDictionary
281
1
  3
ByBlock
350
1F
  3
ByLayer
350
20
  3
Global
350
21
  0
DICTIONARY
  5
F
330
A
100
AcDbDictionary
281
1
  3
Standard
350
2C
  0
DICTIONARY
  5
10
330
A
100
AcDbDictionary
281
1
  3
Standard
350
22
  0
DICTIONARY
  5
11
330
A
100
AcDbDictionary
281
1
  0
ACDBDICTIONARYWDFLT
  5
12
330
A
100
AcDbDictionary
281
1
  3
Normal
350
13
100
AcDbDictionaryWithDefault
340
13
  0
ACDBPLACEHOLDER
  5
13
330
12
  0
DICTIONARY
  5
14
330
A
100
AcDbDictionary
281
1
  0
DICTIONARY
  5
15
330
A
100
AcDbDictionary
281
1
  0
DICTIONARY
  5
16
330
A
100
AcDbDictionary
281
1
  0
LAYOUT
  5
1A
330
D
100
AcDbPlotSettings
  1

  4
A3
  6

 40
7.5
 41
20.0
 42
7.5
 43
20.0
 44
420.0
 45
297.0
 46
0.0
 47
0.0
 48
0.0
 49
0.0
140
0.0
141
0.0
142
1.0
143
1.0
 70
1024
 72
1
 73
0
 74
5
  7

 75
16
 76
0
 77
2
 78
300
147
1.0
148
0.0
149
0.0
100
AcDbLayout
  1
Model
 70
1
 71
0
 10
0.0
 20
0.0
 11
420.0
 21
297.0
 12
0.0
 22
0.0
 32
0.0
 14
1e+20
 24
1e+20
 34
1e+20
 15
-1e+20
 25
-1e+20
 35
-1e+20
146
0.0
 13
0.0
 23
0.0
 33
0.0
 16
1.0
 26
0.0
 36
0.0
 17
0.0
 27
1.0
 37
0.0
 76
1
330
17
  0
LAYOUT
  5
1E
330
D
100
AcDbPlotSettings
  1

  4
A3
  6

 40
7.5
 41
20.0
 42
7.5
 43
20.0
 44
420.0
 45
297.0
 46
0.0
 47
0.0
 48
0.0
 49
0.0
140
0.0
141
0.0
142
1.0
143
1.0
 70
0
 72
1
 73
0
 74
5
  7

 75
16
 76
0
 77
2
 78
300
147
1.0
148
0.0
149
0.0
100
AcDbLayout
  1
Layout1
 70
1
 71
1
 10
0.0
 20
0.0
 11
420.0
 21
297.0
 12
0.0
 22
0.0
 32
0.0
 14
1e+20
 24
1e+20
 34
1e+20
 15
-1e+20
 25
-1e+20
 35
-1e+20
146
0.0
 13
0.0
 23
0.0
 33
0.0
 16
1.0
 26
0.0
 36
0.0
 17
0.0
 27
1.0
 37
0.0
 76
1
330
1B
  0
MATERIAL
  5
1F
102
{ACAD_REACTORS
330
E
102
}
330
E
100
AcDbMaterial
  1
ByBlock
  2

 70
0
 40
1.0
 71
1
 41
1.0
 91
-1023410177
 42
1.0
 72
1
  3

 73
1
 74
1
 75
1
 44
0.5
 73
0
 45
1.0
 46
1.0
 77
1
  4

 78
1
 79
1
170
1
 48
1.0
171
1
  6

172
1
173
1
174
1
140
1.0
141
1.0
175
1
  7

176
1
177
1
178
1
143
1.0
179
1
  8

270
1
271
1
272
1
145
1.0
146
1.0
273
1
  9

274
1
275
1
276
1
 42
1.0
 72
1
  3

 73
1
 74
1
 75
1
 94
63
  0
MATERIAL
  5
20
102
{ACAD_REACTORS
330
E
102
}
330
E
100
AcDbMaterial
  1
ByLayer
  2

 70
0
 40
1.0
 71
1
 41
1.0
 91
-1023410177
 42
1.0
 72
1
  3

 73
1
 74
1
 75
1
 44
0.5
 73
0
 45
1.0
 46
1.0
 77
1
  4

 78
1
 79
1
170
1
 48
1.0
171
1
  6

172
1
173
1
174
1
140
1.0
141
1.0
175
1
  7

176
1
177
1
178
1
143
1.0
179
1
  8

270
1
271
1
272
1
145
1.0
146
1.0
273
1
  9

274
1
275
1
276
1
 42
1.0
 72
1
  3

 73
1
 74
1
 75
1
 94
63
  0
MATERIAL
  5
21
102
{ACAD_REACTORS
330
E
102
}
330
E
100
AcDbMaterial
  1
Global
  2

 70
0
 40
1.0
 71
1
 41
1.0
 91
-1023410177
 42
1.0
 72
1
  3

 73
1
 74
1
 75
1
 44
0.5
 73
0
 45
1.0
 46
1.0
 77
1
  4

 78
1
 79
1
170
1
 48
1.0
171
1
  6

172
1
173
1
174
1
140
1.0
141
1.0
175
1
  7

176
1
177
1
178
1
143
1.0
179
1
  8

270
1
271
1
272
1
145
1.0
146
1.0
273
1
  9

274
1
275
1
276
1
 42
1.0
 72
1
  3

 73
1
 74
1
 75
1
 94
63
  0
MLINESTYLE
  5
22
102
{ACAD_REACTORS
330
10
102
}
330
10
100
AcDbMlineStyle
  2
Standard
 70
0
  3

 62
256
 51
90.0
 52
90.0
 71
2
 49
0.5
 62
256
  6
BYLAYER
 49
-0.5
 62
256
  6
BYLAYER
  0
MLEADERSTYLE
  5
2C
102
{ACAD_REACTORS
330
F
102
}
330
F
100
AcDbMLeaderStyle
179
2
170
2
171
1
172
0
 90
2
 40
0.0
 41
0.0
173
1
 91
-1056964608
 92
-2
290
1
 42
2.0
291
1
 43
8.0
  3
Standard
 44
4.0
300

342
29
174
1
175
1
176
0
178
1
 93
-1056964608
 45
4.0
292
0
297
0
 46
4.0
 94
-1056964608
 47
1.0
 49
1.0
140
1.0
294
1
141
0.0
177
0
142
1.0
295
0
296
0
143
3.75
271
0
272
9
273
9
  0
DICTIONARY
  5
2D
330
A
100
AcDbDictionary
280
1
281
1
  3
CREATED_BY_EZDXF
350
2E
  3
WRITTEN_BY_EZDXF
350
13D
  0
DICTIONARYVAR
  5
2E
330
2D
100
DictionaryVariables
280
0
  1
1.4.4 @ 2026-06-09T07:56:33.146721+00:00
  0
DICTIONARYVAR
  5
13D
330
2D
100
DictionaryVariables
280
0
  1
1.4.4 @ 2026-06-09T07:56:33.201225+00:00
  0
ENDSEC
  0
EOF
